<mxfile modified="2024-06-24T22:03:25.882Z" host="app.diagrams.net" agent="Mozilla/5.0 (Windows NT 10.0; Win64; x64; rv:127.0) Gecko/20100101 Firefox/127.0" etag="RUfXLrNHfop6oGVNmS-B" version="24.6.2" type="github">
  <diagram id="Ht1M8jgEwFfnCIfOTk4-" name="Page-1">
    <mxGraphModel dx="2330" dy="1243" grid="0" gridSize="10" guides="1" tooltips="1" connect="1" arrows="1" fold="1" page="1" pageScale="1" pageWidth="827" pageHeight="1169" math="0" shadow="0">
      <root>
        <mxCell id="0" />
        <mxCell id="1" parent="0" />
        <mxCell id="-QjtrjUzRDEMRZ5MF8oH-46" value="" style="rounded=0;whiteSpace=wrap;html=1;fillColor=#EAEDED;fontSize=22;fontColor=#FFFFFF;strokeColor=none;labelBackgroundColor=none;" parent="1" vertex="1">
          <mxGeometry x="1605" y="107" width="541" height="663" as="geometry" />
        </mxCell>
        <mxCell id="-QjtrjUzRDEMRZ5MF8oH-47" value="OpenChallenges Infra" style="text;html=1;resizable=0;points=[];autosize=1;align=left;verticalAlign=top;spacingTop=-4;fontSize=30;fontStyle=1;labelBackgroundColor=none;" parent="1" vertex="1">
          <mxGeometry x="36.5" y="26.5" width="310" height="42" as="geometry" />
        </mxCell>
        <mxCell id="-QjtrjUzRDEMRZ5MF8oH-48" value="Architect: Thomas Schaffter&amp;nbsp;&amp;nbsp;&amp;nbsp;&amp;nbsp; Last Updated: 2024-04-02" style="text;html=1;resizable=0;points=[];autosize=1;align=left;verticalAlign=top;spacingTop=-4;fontSize=16;labelBackgroundColor=none;" parent="1" vertex="1">
          <mxGeometry x="36.5" y="76.5" width="423" height="25" as="geometry" />
        </mxCell>
        <mxCell id="SCVMTBWpLvtzJIhz15lM-1" value="" style="line;strokeWidth=2;html=1;fontSize=14;labelBackgroundColor=none;" parent="1" vertex="1">
          <mxGeometry x="32.5" y="101.5" width="1060" height="10" as="geometry" />
        </mxCell>
        <mxCell id="jZVaUwOg5UY3L9NAnvdq-92" value="User" style="outlineConnect=0;fontColor=#232F3E;gradientColor=none;fillColor=#232F3E;strokeColor=none;dashed=0;verticalLabelPosition=bottom;verticalAlign=top;align=center;html=1;fontSize=12;fontStyle=0;aspect=fixed;pointerEvents=1;shape=mxgraph.aws4.user;labelBackgroundColor=none;" parent="1" vertex="1">
          <mxGeometry x="1490.0000000000002" y="387" width="50" height="50" as="geometry" />
        </mxCell>
        <mxCell id="jZVaUwOg5UY3L9NAnvdq-93" value="API" style="outlineConnect=0;fontColor=#232F3E;gradientColor=none;fillColor=#232F3E;strokeColor=none;dashed=0;verticalLabelPosition=bottom;verticalAlign=top;align=center;html=1;fontSize=12;fontStyle=0;aspect=fixed;pointerEvents=1;shape=mxgraph.aws4.external_sdk;labelBackgroundColor=none;" parent="1" vertex="1">
          <mxGeometry x="1493.205" y="597" width="43.59" height="50" as="geometry" />
        </mxCell>
        <mxCell id="dtOV9YOIjFEI8-B-jVSO-31" style="edgeStyle=orthogonalEdgeStyle;rounded=0;orthogonalLoop=1;jettySize=auto;html=1;entryX=0.5;entryY=0;entryDx=0;entryDy=0;" parent="1" source="N08xS9JCno1T1F9PN58o-160" target="N08xS9JCno1T1F9PN58o-159" edge="1">
          <mxGeometry relative="1" as="geometry" />
        </mxCell>
        <mxCell id="dtOV9YOIjFEI8-B-jVSO-45" value="&lt;div&gt;YAML&lt;/div&gt;&lt;div&gt;config&lt;/div&gt;" style="edgeLabel;html=1;align=center;verticalAlign=middle;resizable=0;points=[];" parent="dtOV9YOIjFEI8-B-jVSO-31" vertex="1" connectable="0">
          <mxGeometry x="0.0854" y="-1" relative="1" as="geometry">
            <mxPoint x="1" y="-6" as="offset" />
          </mxGeometry>
        </mxCell>
        <mxCell id="N08xS9JCno1T1F9PN58o-160" value="Sage-Bionetworks/&lt;br&gt;openchallenges-&lt;br&gt;config-server-repository " style="dashed=0;outlineConnect=0;html=1;align=center;labelPosition=center;verticalLabelPosition=bottom;verticalAlign=top;shape=mxgraph.weblogos.github;aspect=fixed;" parent="1" vertex="1">
          <mxGeometry x="210.00000000000023" y="140" width="50" height="50" as="geometry" />
        </mxCell>
        <mxCell id="dtOV9YOIjFEI8-B-jVSO-7" value="Research&lt;br&gt;" style="outlineConnect=0;fontColor=#232F3E;gradientColor=none;fillColor=#116D5B;strokeColor=none;dashed=0;verticalLabelPosition=bottom;verticalAlign=top;align=center;html=1;fontSize=12;fontStyle=0;aspect=fixed;pointerEvents=1;shape=mxgraph.aws4.sagemaker_notebook;labelBackgroundColor=none;" parent="1" vertex="1">
          <mxGeometry x="1493.205" y="492" width="43.59" height="50" as="geometry" />
        </mxCell>
        <mxCell id="PfW1Trj3aX01LcuOc2Ej-1" value="" style="group;recursiveResize=0" parent="1" vertex="1" connectable="0">
          <mxGeometry x="50" y="255" width="1350" height="886.5" as="geometry" />
        </mxCell>
        <mxCell id="PfW1Trj3aX01LcuOc2Ej-2" value="&amp;nbsp;" style="whiteSpace=wrap;html=1;strokeColor=#242F3E;fillColor=none;container=0;verticalAlign=top;align=left;spacingLeft=35;spacingTop=3;fontColor=#242F3E;" parent="PfW1Trj3aX01LcuOc2Ej-1" vertex="1">
          <mxGeometry width="1350" height="890" as="geometry" />
        </mxCell>
        <mxCell id="PfW1Trj3aX01LcuOc2Ej-3" value="" style="shape=image;verticalLabelPosition=bottom;labelBackgroundColor=default;verticalAlign=top;aspect=fixed;imageAspect=0;image=data:image/svg+xml,PHN2ZyB4bWxuczp4bGluaz0iaHR0cDovL3d3dy53My5vcmcvMTk5OS94bGluayIgeG1sbnM9Imh0dHA6Ly93d3cudzMub3JnLzIwMDAvc3ZnIiB2ZXJzaW9uPSIxLjEiIHZpZXdCb3g9IjAgMCA0MCA0MCIgaGVpZ2h0PSI0MHB4IiB3aWR0aD0iNDBweCI+JiN4YTsgICAgPHRpdGxlPkljb24tQXJjaGl0ZWN0dXJlLUdyb3VwLzMyL0FXUy1DbG91ZC1sb2dvXzMyPC90aXRsZT4mI3hhOyAgICA8ZyBmaWxsLXJ1bGU9ImV2ZW5vZGQiIGZpbGw9Im5vbmUiIHN0cm9rZS13aWR0aD0iMSIgc3Ryb2tlPSJub25lIiBpZD0iSWNvbi1BcmNoaXRlY3R1cmUtR3JvdXAvMzIvQVdTLUNsb3VkLWxvZ29fMzIiPiYjeGE7ICAgICAgICA8cmVjdCBoZWlnaHQ9IjQwIiB3aWR0aD0iNDAiIHk9IjAiIHg9IjAiIGZpbGw9IiMyNDJGM0UiIGlkPSJSZWN0YW5nbGUiLz4mI3hhOyAgICAgICAgPHBhdGggZmlsbD0iI0ZGRkZGRiIgaWQ9IkZpbGwtMSIgZD0iTTMyLjY5ODIsMjMuOTAwOCBDMzMuMDU5MiwyNC4zNjk4IDMyLjI5ODIsMjYuMjk5OCAzMS45NTcyLDI3LjE2MzggQzMxLjg1MzIsMjcuNDI1OCAzMi4wNzUyLDI3LjUyODggMzIuMzA3MiwyNy4zMzE4IEMzMy44MjAyLDI2LjA0NzggMzQuMjEyMiwyMy4zNTY4IDMzLjkwMTIsMjIuOTY4OCBDMzMuNTk0MiwyMi41ODI4IDMwLjk1MDIsMjIuMjUxOCAyOS4zMzgyLDIzLjQwMDggQzI5LjA4OTIsMjMuNTc3OCAyOS4xMzIyLDIzLjgyMTggMjkuNDA3MiwyMy43ODk4IEMzMC4zMTUyLDIzLjY3NzggMzIuMzM4MiwyMy40MzI4IDMyLjY5ODIsMjMuOTAwOCBMMzIuNjk4MiwyMy45MDA4IFogTTMxLjg1NjIsMjUuOTA5OCBDMzIuMzc0MiwyNS41MzE4IDMxLjkzMDIsMjQuOTY4OCAzMS40MDIyLDI1LjE4OTggQzI3Ljg4OTIsMjYuNjUzOCAyNC4wNzUyLDI3LjM2MjggMjAuNjAyMiwyNy4zNjI4IEMxNS40NTkyLDI3LjM2MjggMTAuNDc1MiwyNS45NzM4IDYuNDQ2MiwyMy42Njc4IEM2LjA5NDIsMjMuNDY1OCA1LjgzMzIsMjMuODIyOCA2LjEyNzIsMjQuMDgxOCBDOS44NjAyLDI3LjM5NzggMTQuNzk2MiwyOS4zOTA4IDIwLjI3NDIsMjkuMzkwOCBDMjQuMTg0MiwyOS4zOTA4IDI4LjcyNTIsMjguMTgyOCAzMS44NTYyLDI1LjkwOTggTDMxLjg1NjIsMjUuOTA5OCBaIE0yOS43MTIyLDIwLjY5NDggQzI5LjIxNDIsMjAuNjk0OCAyOC43MjcyLDIwLjY0MTggMjguMjUzMiwyMC41MzM4IEMyNy43NzcyLDIwLjQyNDggMjcuNDEzMiwyMC4zMDE4IDI3LjE2MDIsMjAuMTYwOCBDMjcuMDA1MiwyMC4wNzY4IDI2LjkwODIsMTkuOTg4OCAyNi44NjkyLDE5LjkwMjggQzI2LjgzMTIsMTkuODE0OCAyNi44MTEyLDE5LjcyODggMjYuODExMiwxOS42NDI4IEwyNi44MTEyLDE5LjE3MzggQzI2LjgxMTIsMTguOTc5OCAyNi44ODQyLDE4Ljg4MDggMjcuMDI3MiwxOC44ODA4IEMyNy4wODIyLDE4Ljg4MDggMjcuMTQwMiwxOC44OTM4IDI3LjIwMDIsMTguOTEzOCBDMjcuMjYxMiwxOC45MzY4IDI3LjM0MTIsMTguOTY4OCAyNy40NDEyLDE5LjAxMTggQzI3Ljc2MTIsMTkuMTUyOCAyOC4xMDgyLDE5LjI1OTggMjguNDg1MiwxOS4zMzU4IEMyOC44NjEyLDE5LjQxMDggMjkuMjM2MiwxOS40NDg4IDI5LjYxMTIsMTkuNDQ4OCBDMzAuMjA4MiwxOS40NDg4IDMwLjY2OTIsMTkuMzQ2OCAzMC45OTUyLDE5LjE0MDggQzMxLjMyMjIsMTguOTM2OCAzMS40ODQyLDE4LjY0NTggMzEuNDg0MiwxOC4yNjc4IEMzMS40ODQyLDE4LjAwNzggMzEuMzk5MiwxNy43OTI4IDMxLjIyNzIsMTcuNjE4OCBDMzEuMDU2MiwxNy40NDQ4IDMwLjczODIsMTcuMjg1OCAzMC4yNzUyLDE3LjEzMzggTDI4LjkwMDIsMTYuNzEyOCBDMjguMjAzMiwxNi40OTY4IDI3LjY5ODIsMTYuMTgzOCAyNy4zODMyLDE1Ljc3NDggQzI3LjA2ODIsMTUuMzYyOCAyNi45MTEyLDE0LjkxNTggMjYuOTExMiwxNC40Mjc4IEMyNi45MTEyLDE0LjA0MDggMjYuOTk2MiwxMy42OTg4IDI3LjE2OTIsMTMuNDAwOCBDMjcuMzM5MiwxMy4xMDM4IDI3LjU2NDIsMTIuODUwOCAyNy44NDUyLDEyLjYzOTggQzI4LjEzMDIsMTIuNDI5OCAyOC40NTkyLDEyLjI3MTggMjguODM0MiwxMi4xNjE4IEMyOS4yMDgyLDEyLjA1NDggMjkuNjA2MiwxMS45OTk4IDMwLjAyNjIsMTEuOTk5OCBDMzAuMjM2MiwxMS45OTk4IDMwLjQ0OTIsMTIuMDEzOCAzMC42NjYyLDEyLjA0MDggQzMwLjg4MTIsMTIuMDY2OCAzMS4wODUyLDEyLjEwMjggMzEuMjc4MiwxMi4xNDU4IEMzMS40NzEyLDEyLjE5MDggMzEuNjUxMiwxMi4yMzg4IDMxLjgxNjIsMTIuMjkxOCBDMzEuOTgyMiwxMi4zNDY4IDMyLjExNDIsMTIuNDAwOCAzMi4yMTUyLDEyLjQ1MzggQzMyLjM0NjIsMTIuNTI4OCAzMi40MzkyLDEyLjYwNDggMzIuNDk2MiwxMi42ODA4IEMzMi41NTEyLDEyLjc1NTggMzIuNTc5MiwxMi44NTc4IDMyLjU3OTIsMTIuOTg4OCBMMzIuNTc5MiwxMy40MjQ4IEMzMi41NzkyLDEzLjYxOTggMzIuNTA3MiwxMy43MTU4IDMyLjM2MjIsMTMuNzE1OCBDMzIuMjg1MiwxMy43MTU4IDMyLjE2NTIsMTMuNjc5OCAzMS45OTgyLDEzLjYwMzggQzMxLjQ1ODIsMTMuMzY0OCAzMC44NDgyLDEzLjI0NzggMzAuMTc3MiwxMy4yNDc4IEMyOS42MzUyLDEzLjI0NzggMjkuMjE0MiwxMy4zMzM4IDI4LjkxNjIsMTMuNTA1OCBDMjguNjE3MiwxMy42Nzk4IDI4LjQ2ODIsMTMuOTU0OCAyOC40NjgyLDE0LjMzMjggQzI4LjQ2ODIsMTQuNTkwOCAyOC41NjIyLDE0LjgwOTggMjguNzUxMiwxNC45ODc4IEMyOC45MzkyLDE1LjE2NTggMjkuMjg2MiwxNS4zMzU4IDI5Ljc5NTIsMTUuNDk4OCBMMzEuMTM3MiwxNS45MjA4IEMzMS44MjIyLDE2LjEzNDggMzIuMzExMiwxNi40MzI4IDMyLjYwMzIsMTYuODA4OCBDMzIuODk3MiwxNy4xODc4IDMzLjA0NDIsMTcuNjE4OCAzMy4wNDQyLDE4LjEwMzggQzMzLjA0NDIsMTguNTA0OCAzMi45NjEyLDE4Ljg2MzggMzIuNzk0MiwxOS4xODE4IEMzMi42MjgyLDE5LjUwMDggMzIuMzk5MiwxOS43NzE4IDMyLjEwNTIsMTkuOTk4OCBDMzEuODEzMiwyMC4yMjU4IDMxLjQ2MzIsMjAuMzk3OCAzMS4wNTQyLDIwLjUxNjggQzMwLjY0NDIsMjAuNjM2OCAzMC4xOTcyLDIwLjY5NDggMjkuNzEyMiwyMC42OTQ4IEwyOS43MTIyLDIwLjY5NDggWiBNMTcuNTQ3MiwyMC40NTA4IEMxNy4zODEyLDIwLjQ1MDggMTcuMjYwMiwyMC40MjM4IDE3LjE4MjIsMjAuMzYzOCBDMTcuMTA0MiwyMC4zMDI4IDE3LjAzODIsMjAuMTgyOCAxNi45ODMyLDE5Ljk5ODggTDE0Ljc2MTIsMTIuODQxOCBDMTQuNzA4MiwxMi42NTc4IDE0LjY3OTIsMTIuNTM0OCAxNC42NzkyLDEyLjQ3MDggQzE0LjY3OTIsMTIuMzE5OCAxNC43NTcyLDEyLjI0MzggMTQuOTEyMiwxMi4yNDM4IEwxNS44MzkyLDEyLjI0MzggQzE2LjAxNjIsMTIuMjQzOCAxNi4xNDAyLDEyLjI3MzggMTYuMjEzMiwxMi4zMzM4IEMxNi4yODQyLDEyLjM5MTggMTYuMzQ3MiwxMi41MTE4IDE2LjQwMjIsMTIuNjk3OCBMMTcuOTkzMiwxOC44MTc4IEwxOS40NzAyLDEyLjY5NzggQzE5LjUxNDIsMTIuNTExOCAxOS41NzQyLDEyLjM5MTggMTkuNjUxMiwxMi4zMzM4IEMxOS43MjgyLDEyLjI3MzggMTkuODU1MiwxMi4yNDM4IDIwLjAzMTIsMTIuMjQzOCBMMjAuNzk2MiwxMi4yNDM4IEMyMC45NzEyLDEyLjI0MzggMjEuMDk4MiwxMi4yNzM4IDIxLjE3NjIsMTIuMzMzOCBDMjEuMjUzMiwxMi4zOTE4IDIxLjMxNDIsMTIuNTExOCAyMS4zNTgyLDEyLjY5NzggTDIyLjg1MTIsMTguODk4OCBMMjQuNDkxMiwxMi42OTc4IEMyNC41NDYyLDEyLjUxMTggMjQuNjA5MiwxMi4zOTE4IDI0LjY4MTIsMTIuMzMzOCBDMjQuNzU0MiwxMi4yNzM4IDI0Ljg3NzIsMTIuMjQzOCAyNS4wNTQyLDEyLjI0MzggTDI1LjkzMjIsMTIuMjQzOCBDMjYuMDg4MiwxMi4yNDM4IDI2LjE2NTIsMTIuMzE5OCAyNi4xNjUyLDEyLjQ3MDggQzI2LjE2NTIsMTIuNTExOCAyNi4xNTgyLDEyLjU2MTggMjYuMTQ5MiwxMi42MTQ4IEMyNi4xMzYyLDEyLjY3MDggMjYuMTE2MiwxMi43NDU4IDI2LjA4MTIsMTIuODQxOCBMMjMuNzk1MiwxOS45OTg4IEMyMy43NDAyLDIwLjE4MjggMjMuNjczMiwyMC4zMDI4IDIzLjU5NTIsMjAuMzYzOCBDMjMuNTE4MiwyMC40MjM4IDIzLjM5NjIsMjAuNDUwOCAyMy4yMzEyLDIwLjQ1MDggTDIyLjQxODIsMjAuNDUwOCBDMjIuMjQyMiwyMC40NTA4IDIyLjExNTIsMjAuNDIwOCAyMi4wMzgyLDIwLjM1NjggQzIxLjk2MTIsMjAuMjkxOCAyMS45MDAyLDIwLjE2NTggMjEuODU2MiwxOS45ODM4IEwyMC4zODAyLDE0LjAyMzggTDE4LjkyMzIsMTkuOTgzOCBDMTguODc5MiwyMC4xNjU4IDE4LjgxNzIsMjAuMjkxOCAxOC43NDAyLDIwLjM1NjggQzE4LjY2MjIsMjAuNDIwOCAxOC41MzYyLDIwLjQ1MDggMTguMzU5MiwyMC40NTA4IEwxNy41NDcyLDIwLjQ1MDggWiBNOS45MzkyLDE5LjQ0ODggQzEwLjI1MDIsMTkuNDQ4OCAxMC41NzUyLDE5LjM5MTggMTAuOTE4MiwxOS4yNzg4IEMxMS4yNjAyLDE5LjE2NDggMTEuNTU4MiwxOC45Njg4IDExLjgxMjIsMTguNjg2OCBDMTEuOTY4MiwxOC41MTQ4IDEyLjA3NDIsMTguMzE3OCAxMi4xMzYyLDE4LjA5NTggQzEyLjE5NjIsMTcuODc1OCAxMi4yMjUyLDE3LjYwODggMTIuMjI1MiwxNy4yOTQ4IEwxMi4yMjUyLDE2LjkwNjggQzExLjk1MTIsMTYuODQxOCAxMS42NjEyLDE2Ljc5MDggMTEuMzU2MiwxNi43NTI4IEMxMS4wNTIyLDE2LjcxNTggMTAuNzU3MiwxNi42OTU4IDEwLjQ2OTIsMTYuNjk1OCBDOS44NDAyLDE2LjY5NTggOS4zNjkyLDE2LjgxOTggOS4wNjEyLDE3LjA2ODggQzguNzUyMiwxNy4zMTY4IDguNTk2MiwxNy42NzE4IDguNTk2MiwxOC4xMzg4IEM4LjU5NjIsMTguNTY5OCA4LjcxMzIsMTguODk0OCA4Ljk0NTIsMTkuMTE2OCBDOS4xNzcyLDE5LjMzODggOS41MDkyLDE5LjQ0ODggOS45MzkyLDE5LjQ0ODggTDkuOTM5MiwxOS40NDg4IFogTTEzLjc4NTIsMTguMDQwOCBDMTMuNzg1MiwxOC4zODU4IDEzLjgyMDIsMTguNjU5OCAxMy44OTIyLDE4Ljg2NTggQzEzLjk2NTIsMTkuMDcxOCAxNC4wNjcyLDE5LjI5MzggMTQuMTk5MiwxOS41Mjk4IEMxNC4yNDMyLDE5LjYwNTggMTQuMjY1MiwxOS42NzU4IDE0LjI2NTIsMTkuNzM4OCBDMTQuMjY1MiwxOS44Mzc4IDE0LjIwNDIsMTkuOTI5OCAxNC4wODMyLDIwLjAxNDggTDEzLjQ4NjIsMjAuNDA0OCBDMTMuMzk4MiwyMC40NTc4IDEzLjMxNTIsMjAuNDg1OCAxMy4yMzgyLDIwLjQ4NTggQzEzLjEzNzIsMjAuNDg1OCAxMy4wNDQyLDIwLjQ0MjggMTIuOTU2MiwyMC4zNTY4IEMxMi44MjIyLDIwLjIyNTggMTIuNzEwMiwyMC4wODM4IDEyLjYxNzIsMTkuOTI2OCBDMTIuNTIxMiwxOS43NzA4IDEyLjQyNTIsMTkuNTg3OCAxMi4zMjYyLDE5LjM4MjggQzExLjU4NTIsMjAuMjM1OCAxMC42NTgyLDIwLjY2MjggOS41NDIyLDIwLjY2MjggQzguNzQ2MiwyMC42NjI4IDguMTE2MiwyMC40NDI4IDcuNjUxMiwxOS45OTg4IEM3LjE4ODIsMTkuNTU2OCA2Ljk1NjIsMTguOTYyOCA2Ljk1NjIsMTguMjE4OCBDNi45NTYyLDE3LjQzMTggNy4yNDMyLDE2Ljc5NTggNy44MTkyLDE2LjMxNTggQzguMzkyMiwxNS44MzU4IDkuMTY3MiwxNS41OTQ4IDEwLjEzODIsMTUuNTk0OCBDMTAuNDU5MiwxNS41OTQ4IDEwLjc5MzIsMTUuNjE5OCAxMS4xNDEyLDE1LjY2NzggQzExLjQ4ODIsMTUuNzE1OCAxMS44NTEyLDE1Ljc4NDggMTIuMjI1MiwxNS44NzA4IEwxMi4yMjUyLDE1LjE5MTggQzEyLjIyNTIsMTQuNDg5OCAxMi4wNzgyLDEzLjk5NTggMTEuNzc5MiwxMy43MDg4IEMxMS40ODEyLDEzLjQyMjggMTAuOTY4MiwxMy4yODA4IDEwLjIzOTIsMTMuMjgwOCBDOS45MDYyLDEzLjI4MDggOS41NjYyLDEzLjMxOTggOS4yMTgyLDEzLjQwMDggQzguODcxMiwxMy40ODE4IDguNTMwMiwxMy41ODY4IDguMTk5MiwxMy43MTU4IEM4LjA0NDIsMTMuNzgwOCA3LjkzMzIsMTMuODIxOCA3Ljg2ODIsMTMuODM3OCBDNy44MDIyLDEzLjg1MzggNy43NTIyLDEzLjg2MTggNy43MTkyLDEzLjg2MTggQzcuNTg3MiwxMy44NjE4IDcuNTE5MiwxMy43NjU4IDcuNTE5MiwxMy41Njk4IEw3LjUxOTIsMTMuMTE3OCBDNy41MTkyLDEyLjk2NTggNy41NDMyLDEyLjg1NzggNy41ODcyLDEyLjc5NDggQzcuNjMxMiwxMi43Mjg4IDcuNzE5MiwxMi42NjM4IDcuODUyMiwxMi41OTk4IEM4LjE4MzIsMTIuNDM2OCA4LjU4MTIsMTIuMjk2OCA5LjA0NDIsMTIuMTc4OCBDOS41MDkyLDEyLjA1OTggMTAuMDAwMiwxMS45OTk4IDEwLjUyMDIsMTEuOTk5OCBDMTEuNjQ2MiwxMS45OTk4IDEyLjQ3MjIsMTIuMjUyOCAxMi45OTcyLDEyLjc1MjggQzEzLjUyMTIsMTMuMjU0OCAxMy43ODUyLDE0LjAxMjggMTMuNzg1MiwxNS4wMjc4IEwxMy43ODUyLDE4LjA0MDggWiIvPiYjeGE7ICAgIDwvZz4mI3hhOzwvc3ZnPg==;moveable=0;resizable=0;connectable=0;allowArrows=0;container=0;movable=0;" parent="PfW1Trj3aX01LcuOc2Ej-1" vertex="1">
          <mxGeometry width="30" height="30" as="geometry" />
        </mxCell>
        <mxCell id="PfW1Trj3aX01LcuOc2Ej-4" value="" style="group;recursiveResize=0" parent="PfW1Trj3aX01LcuOc2Ej-1" vertex="1" connectable="0">
          <mxGeometry x="27" y="41" width="1300" height="639" as="geometry" />
        </mxCell>
        <mxCell id="PfW1Trj3aX01LcuOc2Ej-5" value="&lt;span class=&quot;awsui_root_18wu0_1qbfe_99 awsui_box_18wu0_1qbfe_219 awsui_strong-variant_18wu0_1qbfe_219 awsui_color-default_18wu0_1qbfe_219 awsui_font-size-default_18wu0_1qbfe_235 awsui_font-weight-default_18wu0_1qbfe_275&quot;&gt;org-sagebase-cnb-dev Account&lt;br&gt;&lt;/span&gt;" style="whiteSpace=wrap;html=1;strokeColor=#E7157B;fillColor=none;container=0;verticalAlign=top;align=left;spacingLeft=35;spacingTop=3;fontColor=#E7157B;" parent="PfW1Trj3aX01LcuOc2Ej-4" vertex="1">
          <mxGeometry width="1300" height="640" as="geometry" />
        </mxCell>
        <mxCell id="PfW1Trj3aX01LcuOc2Ej-6" value="" style="shape=image;verticalLabelPosition=bottom;labelBackgroundColor=default;verticalAlign=top;aspect=fixed;imageAspect=0;image=data:image/svg+xml,PHN2ZyB4bWxuczp4bGluaz0iaHR0cDovL3d3dy53My5vcmcvMTk5OS94bGluayIgeG1sbnM9Imh0dHA6Ly93d3cudzMub3JnLzIwMDAvc3ZnIiB2ZXJzaW9uPSIxLjEiIHZpZXdCb3g9IjAgMCA0MCA0MCIgaGVpZ2h0PSI0MHB4IiB3aWR0aD0iNDBweCI+JiN4YTsgICAgPHRpdGxlPkljb24tQXJjaGl0ZWN0dXJlLUdyb3VwLzMyL0FXUy1BY2NvdW50XzMyPC90aXRsZT4mI3hhOyAgICA8ZyBmaWxsLXJ1bGU9ImV2ZW5vZGQiIGZpbGw9Im5vbmUiIHN0cm9rZS13aWR0aD0iMSIgc3Ryb2tlPSJub25lIiBpZD0iSWNvbi1BcmNoaXRlY3R1cmUtR3JvdXAvMzIvQVdTLUFjY291bnRfMzIiPiYjeGE7ICAgICAgICA8cmVjdCBoZWlnaHQ9IjQwIiB3aWR0aD0iNDAiIHk9IjAiIHg9IjAiIGZpbGw9IiNFNzE1N0IiIGlkPSJSZWN0YW5nbGUiLz4mI3hhOyAgICAgICAgPHBhdGggZmlsbD0iI0ZGRkZGRiIgaWQ9IkZpbGwtMSIgZD0iTTI0LjUsMjIgQzI2LjQzLDIyIDI4LDIzLjU3IDI4LDI1LjUgQzI4LDI3LjQzIDI2LjQzLDI5IDI0LjUsMjkgQzIyLjU3LDI5IDIxLDI3LjQzIDIxLDI1LjUgQzIxLDIzLjU3IDIyLjU3LDIyIDI0LjUsMjIgTDI0LjUsMjIgWiBNMjQuNSwzMCBDMjYuOTgxLDMwIDI5LDI3Ljk4MSAyOSwyNS41IEMyOSwyMy4wMTkgMjYuOTgxLDIxIDI0LjUsMjEgQzIyLjAxOSwyMSAyMCwyMy4wMTkgMjAsMjUuNSBDMjAsMjcuOTgxIDIyLjAxOSwzMCAyNC41LDMwIEwyNC41LDMwIFogTTI2LjAyMywxMC44OCBMMjkuMDg0LDE3IEwyMi45NjMsMTcgTDI2LjAyMywxMC44OCBaIE0yMi4xNTQsMTggTDI5Ljg5MywxOCBDMzAuMDY1LDE4IDMwLjIyNywxNy45MSAzMC4zMTgsMTcuNzYzIEMzMC40MDksMTcuNjE1IDMwLjQxNywxNy40MzIgMzAuMzQsMTcuMjc2IEwyNi40NzEsOS41MzggQzI2LjMwMSw5LjIgMjUuNzQ2LDkuMiAyNS41NzYsOS41MzggTDIxLjcwNywxNy4yNzYgQzIxLjYzLDE3LjQzMiAyMS42MzgsMTcuNjE1IDIxLjcyOSwxNy43NjMgQzIxLjgyLDE3LjkxIDIxLjk4MSwxOCAyMi4xNTQsMTggTDIyLjE1NCwxOCBaIE0xMSwyMyBMMTgsMjMgTDE4LDE2IEwxMSwxNiBMMTEsMjMgWiBNMTAuNSwyNCBMMTguNSwyNCBDMTguNzc2LDI0IDE5LDIzLjc3NiAxOSwyMy41IEwxOSwxNS41IEMxOSwxNS4yMjQgMTguNzc2LDE1IDE4LjUsMTUgTDEwLjUsMTUgQzEwLjIyNCwxNSAxMCwxNS4yMjQgMTAsMTUuNSBMMTAsMjMuNSBDMTAsMjMuNzc2IDEwLjIyNCwyNCAxMC41LDI0IEwxMC41LDI0IFogTTgsMzIgTDMyLDMyIEwzMiw4IEw4LDggTDgsMzIgWiBNMzIuNSw3IEw3LjUsNyBDNy4yMjQsNyA3LDcuMjI0IDcsNy41IEw3LDMyLjUgQzcsMzIuNzc2IDcuMjI0LDMzIDcuNSwzMyBMMzIuNSwzMyBDMzIuNzc2LDMzIDMzLDMyLjc3NiAzMywzMi41IEwzMyw3LjUgQzMzLDcuMjI0IDMyLjc3Niw3IDMyLjUsNyBMMzIuNSw3IFoiLz4mI3hhOyAgICA8L2c+JiN4YTs8L3N2Zz4=;allowArrows=0;connectable=0;moveable=0;resizable=0;" parent="PfW1Trj3aX01LcuOc2Ej-4" vertex="1">
          <mxGeometry width="30" height="30" as="geometry" />
        </mxCell>
        <mxCell id="PfW1Trj3aX01LcuOc2Ej-16" value="" style="group;recursiveResize=0" parent="PfW1Trj3aX01LcuOc2Ej-4" vertex="1" connectable="0">
          <mxGeometry x="33" y="40.5" width="1094.5" height="570.98" as="geometry" />
        </mxCell>
        <mxCell id="PfW1Trj3aX01LcuOc2Ej-15" value="" style="group" parent="PfW1Trj3aX01LcuOc2Ej-16" vertex="1" connectable="0">
          <mxGeometry width="1094.5" height="570.98" as="geometry" />
        </mxCell>
        <mxCell id="-xrmGZC775zc49n530f5-29" value="Other Components (Not Integrated)" style="swimlane;whiteSpace=wrap;html=1;collapsible=0;fillColor=#fff2cc;strokeColor=#d6b656;" parent="PfW1Trj3aX01LcuOc2Ej-15" vertex="1">
          <mxGeometry x="810" y="335" width="266.5" height="216.5" as="geometry" />
        </mxCell>
        <mxCell id="-xrmGZC775zc49n530f5-34" value="keycloak&#xa;IAM Server" style="shape=image;verticalLabelPosition=bottom;labelBackgroundColor=default;verticalAlign=top;aspect=fixed;imageAspect=0;image=data:image/svg+xml,PHN2ZyB2aWV3Qm94PSIwIDAgNDQuMjE2IDM5Ljg2MSIgaGVpZ2h0PSIxNTAuNjU4IiB3aWR0aD0iMTY3LjExNyIgeG1sbnM9Imh0dHA6Ly93d3cudzMub3JnLzIwMDAvc3ZnIj48cGF0aCB0cmFuc2Zvcm09InRyYW5zbGF0ZSgtODIuODE1IC0xMjguNTg4KSIgc3R5bGU9ImRpc3BsYXk6aW5saW5lO2ZpbGw6IzRkNGQ0ZDtmaWxsLW9wYWNpdHk6MTtzdHJva2Utd2lkdGg6LjI2NDU4MyIgZD0ibTg4LjYxIDEzOC40NTYgNS43MTYtOS44NjUgMjMuMDE4LS4wMDQgNS42ODYgOS45NjUuMDA3IDE5LjkzMi01LjY5MSA5Ljk1Ny0yMy4wMTIuMDA4LTUuNzgyLTkuOTY1eiIvPjxwYXRoIHRyYW5zZm9ybT0idHJhbnNsYXRlKC04Mi44MTUgLTEyOC41ODgpIiBzdHlsZT0iZmlsbDojZWRlZGVkO2ZpbGwtb3BhY2l0eToxO2ZpbGwtcnVsZTpub256ZXJvO3N0cm9rZTpub25lO3N0cm9rZS13aWR0aDouMzMwNzI5IiBkPSJNODguNTUyIDE1OC40ODFoMTAuMzc1bC01LjY5OS0xMC4wNDEgNC42MzQtOS45ODItOS4yNTItLjAwMi01Ljc5NSAxMC4wNjUiLz48cGF0aCB0cmFuc2Zvcm09InRyYW5zbGF0ZSgtODIuODE1IC0xMjguNTg4KSIgc3R5bGU9ImZpbGw6I2UwZTBlMDtmaWxsLW9wYWNpdHk6MTtmaWxsLXJ1bGU6bm9uemVybztzdHJva2U6bm9uZTtzdHJva2Utd2lkdGg6LjMzMDcyOSIgZD0iTTEwMi4wNzMgMTU4LjQ4MWg3LjU4Mmw2LjcwNi05Ljc3My02LjU4OS0xMC4xNTZoLTguOTIxbC01LjM3MyA5LjgxNHoiLz48cGF0aCB0cmFuc2Zvcm09InRyYW5zbGF0ZSgtODIuODE1IC0xMjguNTg4KSIgc3R5bGU9ImZpbGw6I2FjYWNhYztmaWxsLW9wYWNpdHk6MTtmaWxsLXJ1bGU6bm9uemVybztzdHJva2U6bm9uZTtzdHJva2Utd2lkdGg6LjMzMDcyOSIgZD0ibTgyLjgxNSAxNDguNTIgNS43MzggOS45NjRoMTAuMzc0bC01LjYzNi05LjkzeiIvPjxwYXRoIHRyYW5zZm9ybT0idHJhbnNsYXRlKC04Mi44MTUgLTEyOC41ODgpIiBzdHlsZT0iZmlsbDojOWU5ZTllO2ZpbGwtb3BhY2l0eToxO2ZpbGwtcnVsZTpub256ZXJvO3N0cm9rZTpub25lO3N0cm9rZS13aWR0aDouMzMwNzI5IiBkPSJtOTUuNTg5IDE0OC41MjIgNi40ODQgOS45NjNoNy41ODJsNi42MDEtOS45NTl6Ii8+PHBhdGggdHJhbnNmb3JtPSJ0cmFuc2xhdGUoLTgyLjgxNSAtMTI4LjU4OCkiIHN0eWxlPSJmaWxsOiMwMGI4ZTM7ZmlsbC1vcGFjaXR5OjE7ZmlsbC1ydWxlOm5vbnplcm87c3Ryb2tlOm5vbmU7c3Ryb2tlLXdpZHRoOi4zMzA3MjkiIGQ9Im05OC4xNTcgMTQ4LjUyOS0xLjk1OC41NjktMS44NzctLjU3MiA3LjY2Ny0xMy4yODggMS45MTggMy4zMTYiLz48cGF0aCB0cmFuc2Zvcm09InRyYW5zbGF0ZSgtODIuODE1IC0xMjguNTg4KSIgc3R5bGU9ImZpbGw6IzMzYzZlOTtmaWxsLW9wYWNpdHk6MTtmaWxsLXJ1bGU6bm9uemVybztzdHJva2U6bm9uZTtzdHJva2Utd2lkdGg6LjMzMDcyOSIgZD0ibTEwMy45IDE1OC40ODItMS45MDkgMy4zMzItNS4wOTMtNS40ODctMi41OC03Ljc5N3YtLjAwNGgzLjgzOCIvPjxwYXRoIHRyYW5zZm9ybT0idHJhbnNsYXRlKC04Mi44MTUgLTEyOC41ODgpIiBzdHlsZT0iZmlsbDojMDA4YWFhO2ZpbGwtb3BhY2l0eToxO2ZpbGwtcnVsZTpub256ZXJvO3N0cm9rZTpub25lO3N0cm9rZS13aWR0aDouMzMwNzI5IiBkPSJNOTQuMzIyIDE0OC41MjZoLS4wMDN2LjAwM2wtMS45MTggMy4zMjItMS45MjUtMy4zMDcgMS45NTItMy4zODYgNS43MjgtOS45MmgzLjgzNCIvPjxwYXRoIHRyYW5zZm9ybT0idHJhbnNsYXRlKC04Mi44MTUgLTEyOC41ODgpIiBzdHlsZT0iZmlsbDojZDRkNGQ0O2ZpbGwtb3BhY2l0eToxO2ZpbGwtcnVsZTpub256ZXJvO3N0cm9rZTpub25lO3N0cm9rZS13aWR0aDouMzMwNzI5IiBkPSJNMTE1LjQyIDE1OC40ODFoMTEuNjExbC0uMDA3LTE5LjkzaC0xMS42MDV6Ii8+PHBhdGggdHJhbnNmb3JtPSJ0cmFuc2xhdGUoLTgyLjgxNSAtMTI4LjU4OCkiIHN0eWxlPSJmaWxsOiM5MTkxOTE7ZmlsbC1vcGFjaXR5OjE7ZmlsbC1ydWxlOm5vbnplcm87c3Ryb2tlOm5vbmU7c3Ryb2tlLXdpZHRoOi4zMzA3MjkiIGQ9Ik0xMTUuNDIgMTQ4LjU1NHY5LjkzaDExLjU5di05LjkzeiIvPjxwYXRoIHRyYW5zZm9ybT0idHJhbnNsYXRlKC04Mi44MTUgLTEyOC41ODgpIiBzdHlsZT0iZmlsbDojMDBiOGUzO2ZpbGwtb3BhY2l0eToxO2ZpbGwtcnVsZTpub256ZXJvO3N0cm9rZTpub25lO3N0cm9rZS13aWR0aDouMzMwNzI5IiBkPSJNMTAxLjk5MiAxNjEuODE3aC0zLjgzNmwtNS43NTUtOS45NjYgMS45MTgtMy4zMjF6Ii8+PHBhdGggdHJhbnNmb3JtPSJ0cmFuc2xhdGUoLTgyLjgxNSAtMTI4LjU4OCkiIHN0eWxlPSJmaWxsOiMwMDhhYWE7ZmlsbC1vcGFjaXR5OjE7ZmlsbC1ydWxlOm5vbnplcm87c3Ryb2tlOm5vbmU7c3Ryb2tlLXdpZHRoOi4zMzA3MjkiIGQ9Im0xMTcuMzMzIDE0OC41MjYtNy42NjkgMTMuMjg5Yy0uNzA1LTEuMDM2LTEuOTEzLTMuMzMxLTEuOTEzLTMuMzMxbDUuNzUzLTkuOTU5eiIvPjxwYXRoIHRyYW5zZm9ybT0idHJhbnNsYXRlKC04Mi44MTUgLTEyOC41ODgpIiBzdHlsZT0iZmlsbDojMDBiOGUzO2ZpbGwtb3BhY2l0eToxO2ZpbGwtcnVsZTpub256ZXJvO3N0cm9rZTpub25lO3N0cm9rZS13aWR0aDouMzMwNzI5IiBkPSJtMTEzLjQ5NSAxNjEuODE1LTMuODMxLS4wMDEgNy42Ny0xMy4yODggMS45MTctMy4zMTcgMS45MjEgMy4zNG0tMy44MzktLjAyM2gtMy44MjhsLTUuNzU1LTkuOTczIDEuOTA1LTMuMzE0IDQuNjU4IDUuOTIyeiIvPjxwYXRoIHRyYW5zZm9ybT0idHJhbnNsYXRlKC04Mi44MTUgLTEyOC41ODgpIiBzdHlsZT0iZmlsbDojMzNjNmU5O2ZpbGwtb3BhY2l0eToxO2ZpbGwtcnVsZTpub256ZXJvO3N0cm9rZTpub25lO3N0cm9rZS13aWR0aDouMzMwNzI5IiBkPSJNMTE5LjI1IDE0NS4yMDV2LjAwM2wtMS45MTcgMy4zMTgtNy42NzctMTMuMjg2IDMuODQxLjAwMnoiLz48L3N2Zz4=;" parent="-xrmGZC775zc49n530f5-29" vertex="1">
          <mxGeometry x="35.799999999999955" y="36.5" width="50" height="45.21" as="geometry" />
        </mxCell>
        <mxCell id="-xrmGZC775zc49n530f5-35" value="kibana" style="shape=image;verticalLabelPosition=bottom;labelBackgroundColor=default;verticalAlign=top;aspect=fixed;imageAspect=0;image=data:image/svg+xml,PHN2ZyBwcmVzZXJ2ZUFzcGVjdFJhdGlvPSJ4TWlkWU1pZCIgeG1sbnM6eGxpbms9Imh0dHA6Ly93d3cudzMub3JnLzE5OTkveGxpbmsiIHhtbG5zPSJodHRwOi8vd3d3LnczLm9yZy8yMDAwL3N2ZyIgdmVyc2lvbj0iMS4xIiB2aWV3Qm94PSItMS4yNzg5NzY5MjQzNjgxODAzZS0xMyAwIDI1NiAzNDEuMDA5NTUyMDAxOTUzMSIgaGVpZ2h0PSI3OTcuNjgzMTYyNTc3NjY4MSIgd2lkdGg9IjU5OC44MzA0MDkzNTY3MjUxIj4mI3hhOyAgICA8Zz4mI3hhOwkJCQk8cGF0aCBmaWxsPSIjMDA5QjkwIiBkPSJNMCwzMDYuOTI5NDMxIEwwLDM0MC45NDE1MyBMMTUuOTg1Njg2NCwzNDAuOTQxNTMgTDE1Ni4zMTk2MDYsMTcyLjcxNzY4OSBDMTQ2LjU4ODYzNSwxNjYuMzkyOTk3IDEzNi40NTQwMzEsMTYwLjcxMjE2NiAxMjUuOTgwODE0LDE1NS43MTE2NCBMMCwzMDYuOTI5NDMxIFoiPiYjeGE7JiN4YTs8L3BhdGg+JiN4YTsJCQkJPHBhdGggZmlsbD0iIzQwQkVCMCIgZD0iTTE1Ni4zMjQxNCwxNzIuNzE3Njg5IEwxNS45MjIxOTU3LDM0MS4wMDk1NTQgTDI1NS41NzE0NDQsMzQxLjAwOTU1NCBDMjU1LjU3MTQ0NCwyNzIuNDQxMTYzIDIxNi42NjE2MDMsMjExLjQ5MTQ4MiAxNTYuMzI0MTQsMTcyLjcxNzY4OSBaIj4mI3hhOyYjeGE7PC9wYXRoPiYjeGE7CQkJCTxwb2x5Z29uIHBvaW50cz0iLTUuMjQwMjUyNjhlLTE0IDAgLTEuMjc4OTc2OTJlLTEzIDMwNy40NDUzNjggMjU2IDAiIGZpbGw9IiNFRjUwOTgiPiYjeGE7JiN4YTs8L3BvbHlnb24+JiN4YTsJCQkJPHBhdGggZmlsbD0iIzM1MzUzNSIgZD0iTTAuMDY4MTg4NjUwNCwzMDcuMzM5MjA5IEwxMjYuMjQzMTY0LDE1NS44NDUxMzMgQzg2LjY5MzIzNDIsMTM3LjM3MTkzNCA0My42NTEwNzc3LDEyNy44MDQ0NDYgMCwxMjguMDAzMDU4IEwwLjA2ODE4ODY1MDQsMzA3LjMzOTIwOSBaIj4mI3hhOyYjeGE7PC9wYXRoPiYjeGE7CQk8L2c+JiN4YTs8L3N2Zz4=;" parent="-xrmGZC775zc49n530f5-29" vertex="1">
          <mxGeometry x="119.76000000000002" y="34.10000000000004" width="37.53" height="50" as="geometry" />
        </mxCell>
        <mxCell id="-xrmGZC775zc49n530f5-36" value="logstash" style="shape=image;verticalLabelPosition=bottom;labelBackgroundColor=default;verticalAlign=top;aspect=fixed;imageAspect=0;image=data:image/svg+xml,PHN2ZyBwcmVzZXJ2ZUFzcGVjdFJhdGlvPSJ4TWlkWU1pZCIgeG1sbnM6eGxpbms9Imh0dHA6Ly93d3cudzMub3JnLzE5OTkveGxpbmsiIHhtbG5zPSJodHRwOi8vd3d3LnczLm9yZy8yMDAwL3N2ZyIgdmVyc2lvbj0iMS4xIiB2aWV3Qm94PSIwIDAgMjU2IDMwNi4wODYzMDM3MTA5Mzc1IiBoZWlnaHQ9Ijc5Ny42MTkwMzI0NzE0OTg0IiB3aWR0aD0iNjY3LjEwMDk3NzE5ODY5NzEiPiYjeGE7ICAgIDxnPiYjeGE7ICAgICAgICA8cGF0aCBmaWxsPSIjRkVDNTE0IiBkPSJNMTIyLjQzNDUxNiwxODkuMjE2OTggTDAsMTg5LjIxNjk4IEwwLDAgTDExLjEzMDQxMDYsMCBDNzIuNjAzNjY4MywwIDEyMi40MzQ1MTYsNDkuODMwODQ4MiAxMjIuNDM0NTE2LDExMS4zMDQxMDYgTDEyMi40MzQ1MTYsMTg5LjIxNjk4IFoiPiYjeGE7JiN4YTs8L3BhdGg+JiN4YTsgICAgICAgIDxwYXRoIGZpbGw9IiMzNDM3NDEiIGQ9Ik0xMTYuODY5MzExLDMwNi4wODYyOTEgTDEyMi40MzQ1MTYsMzA2LjA4NjI5MSBMMTIyLjQzNDUxNiwxODkuMjE2OTggTDAsMTg5LjIxNjk4IEMwLDI1My43NjIyMzEgNTIuMzI0MDYwMiwzMDYuMDg2MjkxIDExNi44NjkzMTEsMzA2LjA4NjI5MSI+JiN4YTsmI3hhOzwvcGF0aD4mI3hhOyAgICAgICAgPHBvbHlnb24gcG9pbnRzPSIxNTAuMjYxMDk5IDMwNi4wODYyOTEgMjU2IDMwNi4wODYyOTEgMjU2IDE4OS4yMTY5OCAxNTAuMjYxMDk5IDE4OS4yMTY5OCIgZmlsbD0iIzAwQkZCMyI+JiN4YTsmI3hhOzwvcG9seWdvbj4mI3hhOyAgICA8L2c+JiN4YTs8L3N2Zz4=;" parent="-xrmGZC775zc49n530f5-29" vertex="1">
          <mxGeometry x="196.5" y="36.5" width="41.79" height="50" as="geometry" />
        </mxCell>
        <mxCell id="-xrmGZC775zc49n530f5-37" value="prometheus" style="shape=image;verticalLabelPosition=bottom;labelBackgroundColor=default;verticalAlign=top;aspect=fixed;imageAspect=0;image=data:image/svg+xml,PHN2ZyBwcmVzZXJ2ZUFzcGVjdFJhdGlvPSJ4TWlkWU1pZCIgeG1sbnM6eGxpbms9Imh0dHA6Ly93d3cudzMub3JnLzE5OTkveGxpbmsiIHhtbG5zPSJodHRwOi8vd3d3LnczLm9yZy8yMDAwL3N2ZyIgdmVyc2lvbj0iMS4xIiB2aWV3Qm94PSIwIDAuNjY2OTk5OTk1NzA4NDY1NiAyNTYgMjU1Ljk5NTQ2ODEzOTY0ODQ0IiBoZWlnaHQ9Ijc5Ni44NzMwNTI1NzQ3ODExIiB3aWR0aD0iNzk2Ljg4NzE1OTUzMzA3MzkiPiYjeGE7ICAgIDxnPiYjeGE7ICAgICAgICA8cGF0aCBmaWxsPSIjREE0RTMxIiBkPSJNMTI4LjAwMTEyOSwwLjY2NyBDNTcuMzExMDM5MiwwLjY2NyAwLDU3Ljk3MTI2MjcgMCwxMjguNjYzNjEyIEMwLDE5OS4zNTM3MDIgNTcuMzExMDM5MiwyNTYuNjYyNDgyIDEyOC4wMDExMjksMjU2LjY2MjQ4MiBDMTk4LjY5MTIyLDI1Ni42NjI0ODIgMjU2LDE5OS4zNTM3MDIgMjU2LDEyOC42NjM2MTIgQzI1Niw1Ny45NzEyNjI3IDE5OC42ODg5NjEsMC42NjcgMTI4LjAwMTEyOSwwLjY2NyBMMTI4LjAwMTEyOSwwLjY2NyBaIE0xMjguMDAxMTI5LDI0MC4yMjcyMzQgQzEwNy44ODg1MDYsMjQwLjIyNzIzNCA5MS41ODIwMTA1LDIyNi43OTE3MTIgOTEuNTgyMDEwNSwyMTAuMjIzMTkzIEwxNjQuNDIwMjQ4LDIxMC4yMjMxOTMgQzE2NC40MjAyNDgsMjI2Ljc4OTQ1MyAxNDguMTEzNzUzLDI0MC4yMjcyMzQgMTI4LjAwMTEyOSwyNDAuMjI3MjM0IEwxMjguMDAxMTI5LDI0MC4yMjcyMzQgWiBNMTg4LjE1Mzc3NywyMDAuMjg2NTk5IEw2Ny44NDE3MDU0LDIwMC4yODY1OTkgTDY3Ljg0MTcwNTQsMTc4LjQ3MDgxNyBMMTg4LjE1NjAzNiwxNzguNDcwODE3IEwxODguMTU2MDM2LDIwMC4yODY1OTkgTDE4OC4xNTM3NzcsMjAwLjI4NjU5OSBaIE0xODcuNzIyMzQsMTY3LjI0MjE3MiBMNjguMTg1MDQ3NiwxNjcuMjQyMTcyIEM2Ny43ODc0OTM1LDE2Ni43ODM2MyA2Ny4zODA5MDQxLDE2Ni4zMzE4NjQgNjYuOTk2OTAyOSwxNjUuODY2NTQ1IEM1NC42ODE3NjA4LDE1MC45MTMwODkgNTEuNzgxNDIyOSwxNDMuMTA2NTcyIDQ4Ljk2NDY2MTcsMTM1LjE1MDk3MiBDNDguOTE3MjI2MiwxMzQuODg4OTQ4IDYzLjg5Nzc4NzksMTM4LjIxMTY4NyA3NC41MjEwNjYyLDE0MC42MDE1MjkgQzc0LjUyMTA2NjIsMTQwLjYwMTUyOSA3OS45ODc0MzUzLDE0MS44NjY0NzQgODcuOTc5MTc2NCwxNDMuMzIzNDIgQzgwLjMwNTkzMDMsMTM0LjMyODc1OCA3NS43NDk4Njk5LDEyMi44OTQ1NTkgNzUuNzQ5ODY5OSwxMTEuMjA3MzcyIEM3NS43NDk4Njk5LDg1LjU0OTMyMDIgOTUuNDI4Nzk4Myw2My4xMjgxNzE5IDg4LjMyOTI5NTEsNDUuMDA1NTc3NSBDOTUuMjM5MDU2Niw0NS41NjgwMjYyIDEwMi42Mjk5NDksNTkuNTg4NTg1MSAxMDMuMTI5MTUsODEuNTEwNTMxOSBDMTEwLjQ3NDg2Niw3MS4zNTkzNDkxIDExMy41NDkxMzQsNTIuODIxMTI5OSAxMTMuNTQ5MTM0LDQxLjQ1NDY5NjQgQzExMy41NDkxMzQsMjkuNjg2MTkxMiAxMjEuMzAzNjk4LDE2LjAxNTc1MSAxMjkuMDYwNTIxLDE1LjU0ODE3MzIgQzEyMi4xNDYyNDIsMjYuOTQzOTcxNCAxMzAuODUxNzczLDM2LjcxMzQxMTkgMTM4LjU5MDUyNSw2MC45NDg0MDA4IEMxNDEuNDkzMTIyLDcwLjA1MTQ4NjQgMTQxLjEyMjY3NCw4NS4zNzA4NzI3IDE0My4zNjM0MzMsOTUuMDg2MTAxMiBDMTQ0LjEwNjU4OSw3NC45MDc5NzEzIDE0Ny41NzYxNTIsNDUuNDY2Mzc4OCAxNjAuMzc2OTQyLDM1LjMwMTY0MyBDMTU0LjcyOTg2Nyw0OC4xMDI0MzM2IDE2MS4yMTI3MDksNjQuMTE5Nzk4NCAxNjUuNjQ2NzkzLDcxLjgyMDE1MDUgQzE3Mi44MDA1MDgsODQuMjQzNzE2NCAxNzcuMTM3NDYyLDkzLjY1NjI2MTcgMTc3LjEzNzQ2MiwxMTEuNDU4MTAyIEMxNzcuMTM3NDYyLDEyMy4zOTM3NjEgMTcyLjczMDQ4NSwxMzQuNjMxNDQxIDE2NS4yOTY2NzQsMTQzLjQxNjAzMiBDMTczLjc0OTIxNywxNDEuODMwMzMzIDE3OS41ODYwMzQsMTQwLjQwMDQ5MyAxNzkuNTg2MDM0LDE0MC40MDA0OTMgTDIwNy4wMzUzMzgsMTM1LjA0NDgwNyBDMjA3LjAzNzU5NywxMzUuMDQyNTQ4IDIwMy4wNDg1MDMsMTUxLjQ0NjE3MyAxODcuNzIyMzQsMTY3LjI0MjE3MiBMMTg3LjcyMjM0LDE2Ny4yNDIxNzIgWiI+JiN4YTsmI3hhOzwvcGF0aD4mI3hhOyAgICA8L2c+JiN4YTs8L3N2Zz4=;" parent="-xrmGZC775zc49n530f5-29" vertex="1">
          <mxGeometry x="35.799999999999955" y="126.5" width="50" height="50" as="geometry" />
        </mxCell>
        <mxCell id="-xrmGZC775zc49n530f5-38" value="graphana" style="shape=image;verticalLabelPosition=bottom;labelBackgroundColor=default;verticalAlign=top;aspect=fixed;imageAspect=0;image=data:image/svg+xml,PHN2ZyB4bWw6c3BhY2U9InByZXNlcnZlIiBzdHlsZT0iZW5hYmxlLWJhY2tncm91bmQ6bmV3IDAgMCAzNTEgMzY1OyIgdmlld0JveD0iMCAwIDM1MSAzNjUiIGhlaWdodD0iMzY1cHgiIHdpZHRoPSIzNTFweCIgeT0iMHB4IiB4PSIwcHgiIHhtbG5zOnhsaW5rPSJodHRwOi8vd3d3LnczLm9yZy8xOTk5L3hsaW5rIiB4bWxucz0iaHR0cDovL3d3dy53My5vcmcvMjAwMC9zdmciIGlkPSJMYXllcl8xIiB2ZXJzaW9uPSIxLjEiPiYjeGE7PHN0eWxlIHR5cGU9InRleHQvY3NzIj4mI3hhOwkuc3Qwe2ZpbGw6dXJsKCNTVkdJRF8xXyk7fSYjeGE7PC9zdHlsZT4mI3hhOzxnIGlkPSJMYXllcl8xXzFfIj4mI3hhOzwvZz4mI3hhOzxsaW5lYXJHcmFkaWVudCB5Mj0iOTklIiB4Mj0iMTc1LjUiIHkxPSIzMCUiIHgxPSIxNzUuNSIgZ3JhZGllbnRVbml0cz0idXNlclNwYWNlT25Vc2UiIGlkPSJTVkdJRF8xXyI+JiN4YTsJPHN0b3Agc3R5bGU9InN0b3AtY29sb3I6I0YwNUEyOCIgb2Zmc2V0PSIwIi8+JiN4YTsJPHN0b3Agc3R5bGU9InN0b3AtY29sb3I6I0ZCQ0EwQSIgb2Zmc2V0PSIxIi8+JiN4YTs8L2xpbmVhckdyYWRpZW50PiYjeGE7PHBhdGggZD0iTTM0MiwxNjEuMmMtMC42LTYuMS0xLjYtMTMuMS0zLjYtMjAuOWMtMi03LjctNS0xNi4yLTkuNC0yNWMtNC40LTguOC0xMC4xLTE3LjktMTcuNS0yNi44ICBjLTIuOS0zLjUtNi4xLTYuOS05LjUtMTAuMmM1LjEtMjAuMy02LjItMzcuOS02LjItMzcuOWMtMTkuNS0xLjItMzEuOSw2LjEtMzYuNSw5LjRjLTAuOC0wLjMtMS41LTAuNy0yLjMtMSAgYy0zLjMtMS4zLTYuNy0yLjYtMTAuMy0zLjdjLTMuNS0xLjEtNy4xLTIuMS0xMC44LTNjLTMuNy0wLjktNy40LTEuNi0xMS4yLTIuMmMtMC43LTAuMS0xLjMtMC4yLTItMC4zICBjLTguNS0yNy4yLTMyLjktMzguNi0zMi45LTM4LjZjLTI3LjMsMTcuMy0zMi40LDQxLjUtMzIuNCw0MS41cy0wLjEsMC41LTAuMywxLjRjLTEuNSwwLjQtMywwLjktNC41LDEuM2MtMi4xLDAuNi00LjIsMS40LTYuMiwyLjIgIGMtMi4xLDAuOC00LjEsMS42LTYuMiwyLjVjLTQuMSwxLjgtOC4yLDMuOC0xMi4yLDZjLTMuOSwyLjItNy43LDQuNi0xMS40LDcuMWMtMC41LTAuMi0xLTAuNC0xLTAuNGMtMzcuOC0xNC40LTcxLjMsMi45LTcxLjMsMi45ICBjLTMuMSw0MC4yLDE1LjEsNjUuNSwxOC43LDcwLjFjLTAuOSwyLjUtMS43LDUtMi41LDcuNWMtMi44LDkuMS00LjksMTguNC02LjIsMjguMWMtMC4yLDEuNC0wLjQsMi44LTAuNSw0LjIgIEMxOC44LDE5Mi43LDguNSwyMjgsOC41LDIyOGMyOS4xLDMzLjUsNjMuMSwzNS42LDYzLjEsMzUuNmMwLDAsMC4xLTAuMSwwLjEtMC4xYzQuMyw3LjcsOS4zLDE1LDE0LjksMjEuOWMyLjQsMi45LDQuOCw1LjYsNy40LDguMyAgYy0xMC42LDMwLjQsMS41LDU1LjYsMS41LDU1LjZjMzIuNCwxLjIsNTMuNy0xNC4yLDU4LjItMTcuN2MzLjIsMS4xLDYuNSwyLjEsOS44LDIuOWMxMCwyLjYsMjAuMiw0LjEsMzAuNCw0LjUgIGMyLjUsMC4xLDUuMSwwLjIsNy42LDAuMWwxLjIsMGwwLjgsMGwxLjYsMGwxLjYtMC4xbDAsMC4xYzE1LjMsMjEuOCw0Mi4xLDI0LjksNDIuMSwyNC45YzE5LjEtMjAuMSwyMC4yLTQwLjEsMjAuMi00NC40bDAsMCAgYzAsMCwwLTAuMSwwLTAuM2MwLTAuNCwwLTAuNiwwLTAuNmwwLDBjMC0wLjMsMC0wLjYsMC0wLjljNC0yLjgsNy44LTUuOCwxMS40LTkuMWM3LjYtNi45LDE0LjMtMTQuOCwxOS45LTIzLjMgIGMwLjUtMC44LDEtMS42LDEuNS0yLjRjMjEuNiwxLjIsMzYuOS0xMy40LDM2LjktMTMuNGMtMy42LTIyLjUtMTYuNC0zMy41LTE5LjEtMzUuNmwwLDBjMCwwLTAuMS0wLjEtMC4zLTAuMiAgYy0wLjItMC4xLTAuMi0wLjItMC4yLTAuMmMwLDAsMCwwLDAsMGMtMC4xLTAuMS0wLjMtMC4yLTAuNS0wLjNjMC4xLTEuNCwwLjItMi43LDAuMy00LjFjMC4yLTIuNCwwLjItNC45LDAuMi03LjNsMC0xLjhsMC0wLjkgIGwwLTAuNWMwLTAuNiwwLTAuNCwwLTAuNmwtMC4xLTEuNWwtMC4xLTJjMC0wLjctMC4xLTEuMy0wLjItMS45Yy0wLjEtMC42LTAuMS0xLjMtMC4yLTEuOWwtMC4yLTEuOWwtMC4zLTEuOSAgYy0wLjQtMi41LTAuOC00LjktMS40LTcuNGMtMi4zLTkuNy02LjEtMTguOS0xMS0yNy4yYy01LTguMy0xMS4yLTE1LjYtMTguMy0yMS44Yy03LTYuMi0xNC45LTExLjItMjMuMS0xNC45ICBjLTguMy0zLjctMTYuOS02LjEtMjUuNS03LjJjLTQuMy0wLjYtOC42LTAuOC0xMi45LTAuN2wtMS42LDBsLTAuNCwwYy0wLjEsMC0wLjYsMC0wLjUsMGwtMC43LDBsLTEuNiwwLjFjLTAuNiwwLTEuMiwwLjEtMS43LDAuMSAgYy0yLjIsMC4yLTQuNCwwLjUtNi41LDAuOWMtOC42LDEuNi0xNi43LDQuNy0yMy44LDljLTcuMSw0LjMtMTMuMyw5LjYtMTguMywxNS42Yy01LDYtOC45LDEyLjctMTEuNiwxOS42Yy0yLjcsNi45LTQuMiwxNC4xLTQuNiwyMSAgYy0wLjEsMS43LTAuMSwzLjUtMC4xLDUuMmMwLDAuNCwwLDAuOSwwLDEuM2wwLjEsMS40YzAuMSwwLjgsMC4xLDEuNywwLjIsMi41YzAuMywzLjUsMSw2LjksMS45LDEwLjFjMS45LDYuNSw0LjksMTIuNCw4LjYsMTcuNCAgYzMuNyw1LDguMiw5LjEsMTIuOSwxMi40YzQuNywzLjIsOS44LDUuNSwxNC44LDdjNSwxLjUsMTAsMi4xLDE0LjcsMi4xYzAuNiwwLDEuMiwwLDEuNywwYzAuMywwLDAuNiwwLDAuOSwwYzAuMywwLDAuNiwwLDAuOS0wLjEgIGMwLjUsMCwxLTAuMSwxLjUtMC4xYzAuMSwwLDAuMywwLDAuNC0wLjFsMC41LTAuMWMwLjMsMCwwLjYtMC4xLDAuOS0wLjFjMC42LTAuMSwxLjEtMC4yLDEuNy0wLjNjMC42LTAuMSwxLjEtMC4yLDEuNi0wLjQgIGMxLjEtMC4yLDIuMS0wLjYsMy4xLTAuOWMyLTAuNyw0LTEuNSw1LjctMi40YzEuOC0wLjksMy40LTIsNS0zYzAuNC0wLjMsMC45LTAuNiwxLjMtMWMxLjYtMS4zLDEuOS0zLjcsMC42LTUuMyAgYy0xLjEtMS40LTMuMS0xLjgtNC43LTAuOWMtMC40LDAuMi0wLjgsMC40LTEuMiwwLjZjLTEuNCwwLjctMi44LDEuMy00LjMsMS44Yy0xLjUsMC41LTMuMSwwLjktNC43LDEuMmMtMC44LDAuMS0xLjYsMC4yLTIuNSwwLjMgIGMtMC40LDAtMC44LDAuMS0xLjMsMC4xYy0wLjQsMC0wLjksMC0xLjIsMGMtMC40LDAtMC44LDAtMS4yLDBjLTAuNSwwLTEsMC0xLjUtMC4xYzAsMC0wLjMsMC0wLjEsMGwtMC4yLDBsLTAuMywwICBjLTAuMiwwLTAuNSwwLTAuNy0wLjFjLTAuNS0wLjEtMC45LTAuMS0xLjQtMC4yYy0zLjctMC41LTcuNC0xLjYtMTAuOS0zLjJjLTMuNi0xLjYtNy0zLjgtMTAuMS02LjZjLTMuMS0yLjgtNS44LTYuMS03LjktOS45ICBjLTIuMS0zLjgtMy42LTgtNC4zLTEyLjRjLTAuMy0yLjItMC41LTQuNS0wLjQtNi43YzAtMC42LDAuMS0xLjIsMC4xLTEuOGMwLDAuMiwwLTAuMSwwLTAuMWwwLTAuMmwwLTAuNWMwLTAuMywwLjEtMC42LDAuMS0wLjkgIGMwLjEtMS4yLDAuMy0yLjQsMC41LTMuNmMxLjctOS42LDYuNS0xOSwxMy45LTI2LjFjMS45LTEuOCwzLjktMy40LDYtNC45YzIuMS0xLjUsNC40LTIuOCw2LjgtMy45YzIuNC0xLjEsNC44LTIsNy40LTIuNyAgYzIuNS0wLjcsNS4xLTEuMSw3LjgtMS40YzEuMy0wLjEsMi42LTAuMiw0LTAuMmMwLjQsMCwwLjYsMCwwLjksMGwxLjEsMGwwLjcsMGMwLjMsMCwwLDAsMC4xLDBsMC4zLDBsMS4xLDAuMSAgYzIuOSwwLjIsNS43LDAuNiw4LjUsMS4zYzUuNiwxLjIsMTEuMSwzLjMsMTYuMiw2LjFjMTAuMiw1LjcsMTguOSwxNC41LDI0LjIsMjUuMWMyLjcsNS4zLDQuNiwxMSw1LjUsMTYuOWMwLjIsMS41LDAuNCwzLDAuNSw0LjUgIGwwLjEsMS4xbDAuMSwxLjFjMCwwLjQsMCwwLjgsMCwxLjFjMCwwLjQsMCwwLjgsMCwxLjFsMCwxbDAsMS4xYzAsMC43LTAuMSwxLjktMC4xLDIuNmMtMC4xLDEuNi0wLjMsMy4zLTAuNSw0LjkgIGMtMC4yLDEuNi0wLjUsMy4yLTAuOCw0LjhjLTAuMywxLjYtMC43LDMuMi0xLjEsNC43Yy0wLjgsMy4xLTEuOCw2LjItMyw5LjNjLTIuNCw2LTUuNiwxMS44LTkuNCwxNy4xICBjLTcuNywxMC42LTE4LjIsMTkuMi0zMC4yLDI0LjdjLTYsMi43LTEyLjMsNC43LTE4LjgsNS43Yy0zLjIsMC42LTYuNSwwLjktOS44LDFsLTAuNiwwbC0wLjUsMGwtMS4xLDBsLTEuNiwwbC0wLjgsMCAgYzAuNCwwLTAuMSwwLTAuMSwwbC0wLjMsMGMtMS44LDAtMy41LTAuMS01LjMtMC4zYy03LTAuNS0xMy45LTEuOC0yMC43LTMuN2MtNi43LTEuOS0xMy4yLTQuNi0xOS40LTcuOCAgYy0xMi4zLTYuNi0yMy40LTE1LjYtMzItMjYuNWMtNC4zLTUuNC04LjEtMTEuMy0xMS4yLTE3LjRjLTMuMS02LjEtNS42LTEyLjYtNy40LTE5LjFjLTEuOC02LjYtMi45LTEzLjMtMy40LTIwLjFsLTAuMS0xLjNsMC0wLjMgIGwwLTAuM2wwLTAuNmwwLTEuMWwwLTAuM2wwLTAuNGwwLTAuOGwwLTEuNmwwLTAuM2MwLDAsMCwwLjEsMC0wLjFsMC0wLjZjMC0wLjgsMC0xLjcsMC0yLjVjMC4xLTMuMywwLjQtNi44LDAuOC0xMC4yICBjMC40LTMuNCwxLTYuOSwxLjctMTAuM2MwLjctMy40LDEuNS02LjgsMi41LTEwLjJjMS45LTYuNyw0LjMtMTMuMiw3LjEtMTkuM2M1LjctMTIuMiwxMy4xLTIzLjEsMjItMzEuOGMyLjItMi4yLDQuNS00LjIsNi45LTYuMiAgYzIuNC0xLjksNC45LTMuNyw3LjUtNS40YzIuNS0xLjcsNS4yLTMuMiw3LjktNC42YzEuMy0wLjcsMi43LTEuNCw0LjEtMmMwLjctMC4zLDEuNC0wLjYsMi4xLTAuOWMwLjctMC4zLDEuNC0wLjYsMi4xLTAuOSAgYzIuOC0xLjIsNS43LTIuMiw4LjctMy4xYzAuNy0wLjIsMS41LTAuNCwyLjItMC43YzAuNy0wLjIsMS41LTAuNCwyLjItMC42YzEuNS0wLjQsMy0wLjgsNC41LTEuMWMwLjctMC4yLDEuNS0wLjMsMi4zLTAuNSAgYzAuOC0wLjIsMS41LTAuMywyLjMtMC41YzAuOC0wLjEsMS41LTAuMywyLjMtMC40bDEuMS0wLjJsMS4yLTAuMmMwLjgtMC4xLDEuNS0wLjIsMi4zLTAuM2MwLjktMC4xLDEuNy0wLjIsMi42LTAuMyAgYzAuNy0wLjEsMS45LTAuMiwyLjYtMC4zYzAuNS0wLjEsMS4xLTAuMSwxLjYtMC4ybDEuMS0wLjFsMC41LTAuMWwwLjYsMGMwLjktMC4xLDEuNy0wLjEsMi42LTAuMmwxLjMtMC4xYzAsMCwwLjUsMCwwLjEsMGwwLjMsMCAgbDAuNiwwYzAuNywwLDEuNS0wLjEsMi4yLTAuMWMyLjktMC4xLDUuOS0wLjEsOC44LDBjNS44LDAuMiwxMS41LDAuOSwxNywxLjljMTEuMSwyLjEsMjEuNSw1LjYsMzEsMTAuMyAgYzkuNSw0LjYsMTcuOSwxMC4zLDI1LjMsMTYuNWMwLjUsMC40LDAuOSwwLjgsMS40LDEuMmMwLjQsMC40LDAuOSwwLjgsMS4zLDEuMmMwLjksMC44LDEuNywxLjYsMi42LDIuNGMwLjksMC44LDEuNywxLjYsMi41LDIuNCAgYzAuOCwwLjgsMS42LDEuNiwyLjQsMi41YzMuMSwzLjMsNiw2LjYsOC42LDEwYzUuMiw2LjcsOS40LDEzLjUsMTIuNywxOS45YzAuMiwwLjQsMC40LDAuOCwwLjYsMS4yYzAuMiwwLjQsMC40LDAuOCwwLjYsMS4yICBjMC40LDAuOCwwLjgsMS42LDEuMSwyLjRjMC40LDAuOCwwLjcsMS41LDEuMSwyLjNjMC4zLDAuOCwwLjcsMS41LDEsMi4zYzEuMiwzLDIuNCw1LjksMy4zLDguNmMxLjUsNC40LDIuNiw4LjMsMy41LDExLjcgIGMwLjMsMS40LDEuNiwyLjMsMywyLjFjMS41LTAuMSwyLjYtMS4zLDIuNi0yLjhDMzQyLjYsMTcwLjQsMzQyLjUsMTY2LjEsMzQyLDE2MS4yeiIgY2xhc3M9InN0MCIvPiYjeGE7PC9zdmc+;" parent="-xrmGZC775zc49n530f5-29" vertex="1">
          <mxGeometry x="114.48000000000002" y="126.5" width="48.08" height="50" as="geometry" />
        </mxCell>
        <mxCell id="jZVaUwOg5UY3L9NAnvdq-71" value="&lt;font color=&quot;#ed7100&quot;&gt;&amp;nbsp; openchallenges-preview-preview-instance&lt;br&gt;&lt;/font&gt;" style="points=[[0,0],[0.25,0],[0.5,0],[0.75,0],[1,0],[1,0.25],[1,0.5],[1,0.75],[1,1],[0.75,1],[0.5,1],[0.25,1],[0,1],[0,0.75],[0,0.5],[0,0.25]];outlineConnect=0;gradientColor=none;html=1;whiteSpace=wrap;fontSize=12;fontStyle=0;shape=mxgraph.aws4.group;grIcon=mxgraph.aws4.group_aws_cloud_alt;strokeColor=#ED7100;fillColor=none;verticalAlign=top;align=left;spacingLeft=30;fontColor=#232F3E;dashed=0;labelBackgroundColor=none;container=1;pointerEvents=0;collapsible=0;recursiveResize=0;" parent="PfW1Trj3aX01LcuOc2Ej-15" vertex="1">
          <mxGeometry width="1094.5" height="570.98" as="geometry" />
        </mxCell>
        <mxCell id="dtOV9YOIjFEI8-B-jVSO-30" style="edgeStyle=orthogonalEdgeStyle;rounded=0;orthogonalLoop=1;jettySize=auto;html=1;entryX=0;entryY=0.5;entryDx=0;entryDy=0;exitX=1;exitY=0.5;exitDx=0;exitDy=0;" parent="jZVaUwOg5UY3L9NAnvdq-71" source="-xrmGZC775zc49n530f5-1" target="N08xS9JCno1T1F9PN58o-133" edge="1">
          <mxGeometry relative="1" as="geometry">
            <mxPoint x="149.22000000000003" y="245.52857142857147" as="sourcePoint" />
            <Array as="points">
              <mxPoint x="400" y="246" />
              <mxPoint x="400" y="396" />
            </Array>
          </mxGeometry>
        </mxCell>
        <mxCell id="dtOV9YOIjFEI8-B-jVSO-18" value="" style="swimlane;startSize=0;collapsible=0;fillColor=#f8cecc;strokeColor=#b85450;" parent="jZVaUwOg5UY3L9NAnvdq-71" vertex="1">
          <mxGeometry x="430" y="140.5" width="289.5" height="330" as="geometry" />
        </mxCell>
        <mxCell id="N08xS9JCno1T1F9PN58o-140" value="challenge-service&#xa;REST API" style="shape=image;editableCssRules=.*;image=data:image/svg+xml,PHN2ZyB2aWV3Qm94PSIwIDAgMjQgMjQiIHhtbG5zPSJodHRwOi8vd3d3LnczLm9yZy8yMDAwL3N2ZyI+PHN0eWxlPip7ZmlsbDojNkRCMzNGfTwvc3R5bGU+PHBhdGggZD0iTTIxLjg1MzcgMS40MTU4YTEwLjQ1MDQgMTAuNDUwNCAwIDAgMS0xLjI4NCAyLjI0NzFBMTEuOTY2NiAxMS45NjY2IDAgMSAwIDMuODUxOCAyMC43NzU3bC40NDQ1LjM5NTFhMTEuOTU0MyAxMS45NTQzIDAgMCAwIDE5LjYzMTYtOC4yOTcxYy4zNDU3LTMuMDEyNi0uNTY4LTYuODY0OS0yLjA3NDMtMTEuNDU4ek01LjU4MDUgMjAuODc0NWExLjAxNzQgMS4wMTc0IDAgMSAxLS4xNDgyLTEuNDMyMyAxLjAzOTYgMS4wMzk2IDAgMCAxIC4xNDgyIDEuNDMyM3ptMTYuMTk5MS0zLjU4MDZjLTIuOTM4NSAzLjkyNjMtOS4yNjAxIDIuNTkyOC0xMy4yODUyIDIuNzkwNCAwIDAtLjcxNjEuMDQ5NC0xLjQzMjMuMTQ4MSAwIDAgLjI3MTctLjEyMzQuNjE3NC0uMjQ2OSAyLjgzOTgtLjk4NzcgNC4xNzMyLTEuMTg1MyA1LjkwMTgtMi4wNzQzIDMuMjM0OS0xLjY1NDUgNi40Njk4LTUuMjg0NCA3LjExMTgtOS4wMzc5LTEuMjM0NyAzLjYwNTMtNC45ODgxIDYuNzE2Ny04LjM5NTkgNy45NzYxLTIuMzQ1OS44NjQzLTYuNTY4NSAxLjcwMzktNi41Njg1IDEuNzAzOWwtLjE3MjktLjA5ODhjLTIuODY0NS0xLjQwNzYtMi45NjMyLTcuNjMwNCAyLjI3MTgtOS42MzA2IDIuMjk2Ni0uODg5IDQuNDY5Ni0uMzk1IDYuOTYzNy0uOTg3NyAyLjY0MjItLjYxNzQgNS43MDQzLTIuNTkyOSA2LjkzOS01LjE4NTcgMS4zODI4IDQuMTczMiAzLjA2MiAxMC42NDMuMDQ5MyAxNC42NDM0eiIvPjwvc3ZnPg==;aspect=fixed;verticalAlign=top;labelPosition=center;verticalLabelPosition=bottom;align=center;" parent="dtOV9YOIjFEI8-B-jVSO-18" vertex="1">
          <mxGeometry x="49.5" y="30.5" width="50" height="50" as="geometry" />
        </mxCell>
        <mxCell id="N08xS9JCno1T1F9PN58o-141" value="organization-service&#xa;REST API" style="shape=image;editableCssRules=.*;image=data:image/svg+xml,PHN2ZyB2aWV3Qm94PSIwIDAgMjQgMjQiIHhtbG5zPSJodHRwOi8vd3d3LnczLm9yZy8yMDAwL3N2ZyI+PHN0eWxlPip7ZmlsbDojNkRCMzNGfTwvc3R5bGU+PHBhdGggZD0iTTIxLjg1MzcgMS40MTU4YTEwLjQ1MDQgMTAuNDUwNCAwIDAgMS0xLjI4NCAyLjI0NzFBMTEuOTY2NiAxMS45NjY2IDAgMSAwIDMuODUxOCAyMC43NzU3bC40NDQ1LjM5NTFhMTEuOTU0MyAxMS45NTQzIDAgMCAwIDE5LjYzMTYtOC4yOTcxYy4zNDU3LTMuMDEyNi0uNTY4LTYuODY0OS0yLjA3NDMtMTEuNDU4ek01LjU4MDUgMjAuODc0NWExLjAxNzQgMS4wMTc0IDAgMSAxLS4xNDgyLTEuNDMyMyAxLjAzOTYgMS4wMzk2IDAgMCAxIC4xNDgyIDEuNDMyM3ptMTYuMTk5MS0zLjU4MDZjLTIuOTM4NSAzLjkyNjMtOS4yNjAxIDIuNTkyOC0xMy4yODUyIDIuNzkwNCAwIDAtLjcxNjEuMDQ5NC0xLjQzMjMuMTQ4MSAwIDAgLjI3MTctLjEyMzQuNjE3NC0uMjQ2OSAyLjgzOTgtLjk4NzcgNC4xNzMyLTEuMTg1MyA1LjkwMTgtMi4wNzQzIDMuMjM0OS0xLjY1NDUgNi40Njk4LTUuMjg0NCA3LjExMTgtOS4wMzc5LTEuMjM0NyAzLjYwNTMtNC45ODgxIDYuNzE2Ny04LjM5NTkgNy45NzYxLTIuMzQ1OS44NjQzLTYuNTY4NSAxLjcwMzktNi41Njg1IDEuNzAzOWwtLjE3MjktLjA5ODhjLTIuODY0NS0xLjQwNzYtMi45NjMyLTcuNjMwNCAyLjI3MTgtOS42MzA2IDIuMjk2Ni0uODg5IDQuNDY5Ni0uMzk1IDYuOTYzNy0uOTg3NyAyLjY0MjItLjYxNzQgNS43MDQzLTIuNTkyOSA2LjkzOS01LjE4NTcgMS4zODI4IDQuMTczMiAzLjA2MiAxMC42NDMuMDQ5MyAxNC42NDM0eiIvPjwvc3ZnPg==;aspect=fixed;verticalAlign=top;labelPosition=center;verticalLabelPosition=bottom;align=center;" parent="dtOV9YOIjFEI8-B-jVSO-18" vertex="1">
          <mxGeometry x="49.5" y="131" width="50" height="50" as="geometry" />
        </mxCell>
        <mxCell id="N08xS9JCno1T1F9PN58o-133" value="image-service&#xa;REST API" style="shape=image;editableCssRules=.*;image=data:image/svg+xml,PHN2ZyB2aWV3Qm94PSIwIDAgMjQgMjQiIHhtbG5zPSJodHRwOi8vd3d3LnczLm9yZy8yMDAwL3N2ZyI+PHN0eWxlPip7ZmlsbDojNkRCMzNGfTwvc3R5bGU+PHBhdGggZD0iTTIxLjg1MzcgMS40MTU4YTEwLjQ1MDQgMTAuNDUwNCAwIDAgMS0xLjI4NCAyLjI0NzFBMTEuOTY2NiAxMS45NjY2IDAgMSAwIDMuODUxOCAyMC43NzU3bC40NDQ1LjM5NTFhMTEuOTU0MyAxMS45NTQzIDAgMCAwIDE5LjYzMTYtOC4yOTcxYy4zNDU3LTMuMDEyNi0uNTY4LTYuODY0OS0yLjA3NDMtMTEuNDU4ek01LjU4MDUgMjAuODc0NWExLjAxNzQgMS4wMTc0IDAgMSAxLS4xNDgyLTEuNDMyMyAxLjAzOTYgMS4wMzk2IDAgMCAxIC4xNDgyIDEuNDMyM3ptMTYuMTk5MS0zLjU4MDZjLTIuOTM4NSAzLjkyNjMtOS4yNjAxIDIuNTkyOC0xMy4yODUyIDIuNzkwNCAwIDAtLjcxNjEuMDQ5NC0xLjQzMjMuMTQ4MSAwIDAgLjI3MTctLjEyMzQuNjE3NC0uMjQ2OSAyLjgzOTgtLjk4NzcgNC4xNzMyLTEuMTg1MyA1LjkwMTgtMi4wNzQzIDMuMjM0OS0xLjY1NDUgNi40Njk4LTUuMjg0NCA3LjExMTgtOS4wMzc5LTEuMjM0NyAzLjYwNTMtNC45ODgxIDYuNzE2Ny04LjM5NTkgNy45NzYxLTIuMzQ1OS44NjQzLTYuNTY4NSAxLjcwMzktNi41Njg1IDEuNzAzOWwtLjE3MjktLjA5ODhjLTIuODY0NS0xLjQwNzYtMi45NjMyLTcuNjMwNCAyLjI3MTgtOS42MzA2IDIuMjk2Ni0uODg5IDQuNDY5Ni0uMzk1IDYuOTYzNy0uOTg3NyAyLjY0MjItLjYxNzQgNS43MDQzLTIuNTkyOSA2LjkzOS01LjE4NTcgMS4zODI4IDQuMTczMiAzLjA2MiAxMC42NDMuMDQ5MyAxNC42NDM0eiIvPjwvc3ZnPg==;aspect=fixed;verticalAlign=top;labelPosition=center;verticalLabelPosition=bottom;align=center;" parent="dtOV9YOIjFEI8-B-jVSO-18" vertex="1">
          <mxGeometry x="49.5" y="230.5" width="50" height="50" as="geometry" />
        </mxCell>
        <mxCell id="N08xS9JCno1T1F9PN58o-158" value="api-gateway&#xa;Spring Cloud&#xa;Gateway&#xa;" style="shape=image;editableCssRules=.*;image=data:image/svg+xml,PHN2ZyB2aWV3Qm94PSIwIDAgMjQgMjQiIHhtbG5zPSJodHRwOi8vd3d3LnczLm9yZy8yMDAwL3N2ZyI+PHN0eWxlPip7ZmlsbDojNkRCMzNGfTwvc3R5bGU+PHBhdGggZD0iTTIxLjg1MzcgMS40MTU4YTEwLjQ1MDQgMTAuNDUwNCAwIDAgMS0xLjI4NCAyLjI0NzFBMTEuOTY2NiAxMS45NjY2IDAgMSAwIDMuODUxOCAyMC43NzU3bC40NDQ1LjM5NTFhMTEuOTU0MyAxMS45NTQzIDAgMCAwIDE5LjYzMTYtOC4yOTcxYy4zNDU3LTMuMDEyNi0uNTY4LTYuODY0OS0yLjA3NDMtMTEuNDU4ek01LjU4MDUgMjAuODc0NWExLjAxNzQgMS4wMTc0IDAgMSAxLS4xNDgyLTEuNDMyMyAxLjAzOTYgMS4wMzk2IDAgMCAxIC4xNDgyIDEuNDMyM3ptMTYuMTk5MS0zLjU4MDZjLTIuOTM4NSAzLjkyNjMtOS4yNjAxIDIuNTkyOC0xMy4yODUyIDIuNzkwNCAwIDAtLjcxNjEuMDQ5NC0xLjQzMjMuMTQ4MSAwIDAgLjI3MTctLjEyMzQuNjE3NC0uMjQ2OSAyLjgzOTgtLjk4NzcgNC4xNzMyLTEuMTg1MyA1LjkwMTgtMi4wNzQzIDMuMjM0OS0xLjY1NDUgNi40Njk4LTUuMjg0NCA3LjExMTgtOS4wMzc5LTEuMjM0NyAzLjYwNTMtNC45ODgxIDYuNzE2Ny04LjM5NTkgNy45NzYxLTIuMzQ1OS44NjQzLTYuNTY4NSAxLjcwMzktNi41Njg1IDEuNzAzOWwtLjE3MjktLjA5ODhjLTIuODY0NS0xLjQwNzYtMi45NjMyLTcuNjMwNCAyLjI3MTgtOS42MzA2IDIuMjk2Ni0uODg5IDQuNDY5Ni0uMzk1IDYuOTYzNy0uOTg3NyAyLjY0MjItLjYxNzQgNS43MDQzLTIuNTkyOSA2LjkzOS01LjE4NTcgMS4zODI4IDQuMTczMiAzLjA2MiAxMC42NDMuMDQ5MyAxNC42NDM0eiIvPjwvc3ZnPg==;aspect=fixed;verticalAlign=top;labelPosition=center;verticalLabelPosition=bottom;align=center;" parent="dtOV9YOIjFEI8-B-jVSO-18" vertex="1">
          <mxGeometry x="202.5" y="81" width="50" height="50" as="geometry" />
        </mxCell>
        <mxCell id="dtOV9YOIjFEI8-B-jVSO-15" style="edgeStyle=orthogonalEdgeStyle;rounded=0;orthogonalLoop=1;jettySize=auto;html=1;entryX=0;entryY=0.5;entryDx=0;entryDy=0;" parent="dtOV9YOIjFEI8-B-jVSO-18" source="N08xS9JCno1T1F9PN58o-140" target="N08xS9JCno1T1F9PN58o-158" edge="1">
          <mxGeometry relative="1" as="geometry" />
        </mxCell>
        <mxCell id="dtOV9YOIjFEI8-B-jVSO-16" style="edgeStyle=orthogonalEdgeStyle;rounded=0;orthogonalLoop=1;jettySize=auto;html=1;entryX=0;entryY=0.5;entryDx=0;entryDy=0;" parent="dtOV9YOIjFEI8-B-jVSO-18" source="N08xS9JCno1T1F9PN58o-141" target="N08xS9JCno1T1F9PN58o-158" edge="1">
          <mxGeometry relative="1" as="geometry" />
        </mxCell>
        <mxCell id="dtOV9YOIjFEI8-B-jVSO-17" style="edgeStyle=orthogonalEdgeStyle;rounded=0;orthogonalLoop=1;jettySize=auto;html=1;entryX=0;entryY=0.5;entryDx=0;entryDy=0;" parent="dtOV9YOIjFEI8-B-jVSO-18" source="N08xS9JCno1T1F9PN58o-133" target="N08xS9JCno1T1F9PN58o-158" edge="1">
          <mxGeometry relative="1" as="geometry" />
        </mxCell>
        <mxCell id="-xrmGZC775zc49n530f5-28" value="zipkin&#xa;Distributed Tracing" style="shape=image;verticalLabelPosition=bottom;labelBackgroundColor=default;verticalAlign=top;aspect=fixed;imageAspect=0;image=data:image/svg+xml,PHN2ZyB2aWV3Qm94PSIwIDAgNDE4IDQ0MiIgeG1sbnM6eGxpbms9Imh0dHA6Ly93d3cudzMub3JnLzE5OTkveGxpbmsiIHhtbG5zPSJodHRwOi8vd3d3LnczLm9yZy8yMDAwL3N2ZyI+PHRpdGxlPuyekOyCsCAxPC90aXRsZT48ZyBkYXRhLW5hbWU9IuugiOydtOyWtCAyIiBpZD0i66CI7J207Ja0XzIiPjxnIGRhdGEtbmFtZT0i66CI7J207Ja0IDEiIGlkPSLroIjsnbTslrRfMS0yIj48aW1hZ2UgeGxpbms6aHJlZj0iZGF0YTppbWFnZS9wbmc7YmFzZTY0LGlWQk9SdzBLR2dvQUFBQU5TVWhFVWdBQUFhSUFBQUc2Q0FZQUFBQktqa0taQUFBQUdYUkZXSFJUYjJaMGQyRnlaUUJCWkc5aVpTQkpiV0ZuWlZKbFlXUjVjY2xsUEFBQUEzQnBWRmgwV0UxTU9tTnZiUzVoWkc5aVpTNTRiWEFBQUFBQUFEdy9lSEJoWTJ0bGRDQmlaV2RwYmowaTc3dS9JaUJwWkQwaVZ6Vk5NRTF3UTJWb2FVaDZjbVZUZWs1VVkzcHJZemxrSWo4K0lEeDRPbmh0Y0cxbGRHRWdlRzFzYm5NNmVEMGlZV1J2WW1VNmJuTTZiV1YwWVM4aUlIZzZlRzF3ZEdzOUlrRmtiMkpsSUZoTlVDQkRiM0psSURVdU5pMWpNVFF3SURjNUxqRTJNRFExTVN3Z01qQXhOeTh3TlM4d05pMHdNVG93T0RveU1TQWdJQ0FnSUNBZ0lqNGdQSEprWmpwU1JFWWdlRzFzYm5NNmNtUm1QU0pvZEhSd09pOHZkM2QzTG5jekxtOXlaeTh4T1RrNUx6QXlMekl5TFhKa1ppMXplVzUwWVhndGJuTWpJajRnUEhKa1pqcEVaWE5qY21sd2RHbHZiaUJ5WkdZNllXSnZkWFE5SWlJZ2VHMXNibk02ZUcxd1RVMDlJbWgwZEhBNkx5OXVjeTVoWkc5aVpTNWpiMjB2ZUdGd0x6RXVNQzl0YlM4aUlIaHRiRzV6T25OMFVtVm1QU0pvZEhSd09pOHZibk11WVdSdlltVXVZMjl0TDNoaGNDOHhMakF2YzFSNWNHVXZVbVZ6YjNWeVkyVlNaV1lqSWlCNGJXeHVjenA0YlhBOUltaDBkSEE2THk5dWN5NWhaRzlpWlM1amIyMHZlR0Z3THpFdU1DOGlJSGh0Y0UxTk9rOXlhV2RwYm1Gc1JHOWpkVzFsYm5SSlJEMGllRzF3TG1ScFpEbzVaRGxrTXprd015MHhPR0psTFRReU1UWXRZVGt6T0MweVpEa3hOVEl4T0dVMk0yRWlJSGh0Y0UxTk9rUnZZM1Z0Wlc1MFNVUTlJbmh0Y0M1a2FXUTZNRUZDTTBJM09FTkROamhFTVRGRk9UazJSVGc0UXprek16QkZSVE13TmpraUlIaHRjRTFOT2tsdWMzUmhibU5sU1VROUluaHRjQzVwYVdRNk1FRkNNMEkzT0VKRE5qaEVNVEZGT1RrMlJUZzRRemt6TXpCRlJUTXdOamtpSUhodGNEcERjbVZoZEc5eVZHOXZiRDBpUVdSdlltVWdVR2h2ZEc5emFHOXdJRU5ESURJd01UZ2dLRTFoWTJsdWRHOXphQ2tpUGlBOGVHMXdUVTA2UkdWeWFYWmxaRVp5YjIwZ2MzUlNaV1k2YVc1emRHRnVZMlZKUkQwaWVHMXdMbWxwWkRvelFVWXpRVU15T1VGQ01rRXhNVVU1T1RJeE4wVXpNVFpEUWpFelFrTkZPU0lnYzNSU1pXWTZaRzlqZFcxbGJuUkpSRDBpZUcxd0xtUnBaRG96UVVZelFVTXlRVUZDTWtFeE1VVTVPVEl4TjBVek1UWkRRakV6UWtORk9TSXZQaUE4TDNKa1pqcEVaWE5qY21sd2RHbHZiajRnUEM5eVpHWTZVa1JHUGlBOEwzZzZlRzF3YldWMFlUNGdQRDk0Y0dGamEyVjBJR1Z1WkQwaWNpSS9QdXY2dU5JQUFEZldTVVJCVkhqYTdKMEh1QjFWdVlZWElUUWhvY09GU084UTZRb0JSS3AwQ08wU2laUW9TZ29oQkJKYUFnbUU5SElDcENHSWdQUXFDZ2dLZ2dvY2V1OVNGTG1DQ05La0N1RitmMmFpSjJUUG5yM1AyWHZXbXBuM2ZaNy9tZHhyeU43N1gydm1tMzltcmY5YjRNc3Z2M1FBQUFDKzZFUUtBQUFBSVFJQUFJUUlBQUFBQUhMRzdNRTl0bFVNSXhNQTdXY0JVZ0RRYmhIcXJNTWppblVVRzNWcWFYMlpyQURVRDQvbUFOclBjWXB2S0JaVm5FczZBS2lJQUxLc2hsYlI0Um5GRW0zKzN3ZXFLcnFlN0FCUUVRRmt3ZFN2aUpCeHRnUnFjVklEZ0JBQk5Mc2EybE9IQXlyOFQxOVhqQ1JEQVBYQm96bUEra1JvTVIyZVZxeVI4RmMrVjJ6V3FhWDFLYklGUUVVRTBBeUdWUkVodzFiU3paUmdjWk1IZ0JBQk5Md2FXaytIb1RYODFlMFVSNUF4QUlRSW9OSE1VQ3hjNDkrZElPRmFocFFCSUVRQWphcUdEdFZocHpyK2srVVZZOGtjUURvOHh3WklGNkVsZFhoZXNXS2QvNmw1clBUbzFOSjZQMWtFb0NJQzZBaWoyeUZDYzIvMFprbklGaVNGQUFnUlFIdXJvUzEwNk5lQmYySlR4UUF5Q1ZEOWpnMEFLb3VRM2FqWlk3VXRPL2hQZmFCWXIxTkw2K3RrRllDS0NLQWUralpBaEl3dWlpbWtFNENLQ0tDZWFzamVDZGtDaFNVYitNL3VxcXJvZHJJTFFFVUVVQXVUR3l4Q3huUUozQ0trRmdBaEFraXJobmJVb1hjVC91bDFYVzJkR1FCS0JZL21BT1lWSWV1YzhMaGkvU1o5eENjT04xY0FLaUtBS2d4cG9nZ1p1TGtDVUJFQkpGWkQxbFhiTEI0V3krRGpjSE1Gb0NJQ21JOXpNeEloQXpkWEFJUUlZSjVxcUtjT2UyWDRrYmk1QXNUd2FBNFFvYWd5ZVZheFNzWWZqWnNyQUJVUndCeEdlQkFodzl4Y1orRG1DZ2dSUUxtcm9lNDZEUGI0RmI2dE9KeVJnRExEblJpVVdZUnMvdi9CUmRiZVB2bUhpNXFpdnNPb0FCVVJRTGs0SWdBUk1uQnpCU29pZ0JKV1E4dTRxS25wY29GOEpkeGNnWW9Jb0dTTUMwaUU1dDRVenNUTkZSQWlnSEpVUXoxME9DckFyN2Fab2o4akJHV0RSM05RTmhHeUpkTVBLVFlKOUN1K3IxZ2ZOMWVnSWdJb0xzY0VMRUpHVnhkNUlRRlFFUUVVc0JycTVxSU9DbDF5OEhWM1VWVjBCNk1HVkVRQXhhSWxKeUprNE9ZS0NCRkF3YXFoM1hRNE9FZGZlVDBYZVNNQkZCNGV6VUVaUk1qTTZLeXg2Rm81KytybTVycGhwNWJXVnhoRm9DSUN5RGVuNUZDRURCUFFhUXdmVUJFQjVMc2FXa2VISnhWNWZ0OXlnS3FpR3hoTm9DSUN5Q2ZUY3k1Q0JtNnVnQkFCNUxRYU9rU0hYUXZ3VTh3cmFRUWpDa1dGUjNOUVZCR3lqYUhQS1ZZcXlFOHlOOWROTzdXMFBzM29BaFVSUUQ0WVZTQVJNcXcxMFV6Y1hBRWhBc2hITldUTlF3Y1U4S2ZoNWdxRmhMc3JLSm9JMmMzVnZZcXRDdm9UY1hNRktpS0F3UGxSZ1VYSXdNMFZxSWdBQXE2R1ZuRFJBb1dsQy81VGNYTUZLaUtBUUpsWUFoR2Fld09KbXlzZ1JBQ0JWVVBidTNLOXlNZk5GUXAxWndXUWR4RmFTSWZIRkJ1VzdLZmo1Z3BVUkFDQmNId0pSY2pBelJXb2lBQUNxSVpXMCtFWnhkZEtuQWJjWElHS0NNQWo1NVJjaEF6Y1hBRWhBdkJVRGUyanc3NWtBamRYeURjOG1vTzhpcEJWUWZaSWJqV3lNUWZjWElHS0NDQmpUa09FNWdFM1Y2QWlBc2l3R3JJVmNyWmNleUd5TVIrNHVRSkNCTkJrRWJJNWU2ZmlPMlNqSW45VmJDQXgrcEJVUUY3ZzBSemtqZThqUWxYQnpSV29pQUNhV0ExWkh6bHJhcm9DMmFnS2JxNUFSUVRRSk1ZZ1FqVmhicTR6Y0hNRmhBaWdzZFhRdDNRNG1relVqRFdCUFl3MFFCN2dqZ255SUVKbWQvQ2dpenBPUSszZzVncFVSQUFOb2o4aTFDN016WFVNYVFBcUlvQ09WVU1ydVdpQlFsZXkwUzdNelhWclZVVVBrQXFnSWdKb0gxTVFvUTdmYk9MbUNnZ1JRRHVyb1YxMDZFVW1Pc3ptaW42a0FVSytXd0lJVVlUTTF1Qkp4VHBrb3lHWW02c3RYSGlEVkFBVkVVQnRuSWdJTlJUY1hJR0tDS0NPYW1ndEhaNXlVVWRwYUN3N3F5cjZIV2tBS2lLQTZreERoSnFHZFZ4WW1EUUFRZ1NRWEEwZHBNUHVaS0pwbUp2clVOSUFJY0dqT1FoSmhMcm84S3lpRzlsb0toOHJOc0xORmFpSUFPWm5KQ0tVQ1lzcHppVU5RRVVFTUc4MXRJa09EeXZZZUprZCs2c3ErZ1ZwQUlRSUVLSElydUFlUlEreWtTbXZLamJFelJWOHc2TTVDSUVmSWtKZVdGVnhPbWtBS2lJb2V6VzBuQTdQSzVZaEcxNHdOOWROVkJVOVF5cUFpZ2pLeW5oRXlDdm01am9UTjFkQWlLQ3MxZEIyT3Z5QVRIZ0hOMWZ3Q25kQjRFdUU3RTc4VVVWM3NoRUV1TGtDRlJHVWp1TVFvYURBelJXb2lLQlUxZEFxTHVxZ3NEalpDQXJjWElHS0NFckRWRVFvMkJ0VDNGd0JJWUxDVjBONzZYQUFtUWdXM0Z6Qnl4MFFRRllpWkQzT25sYXNRVGFDQmpkWG9DS0N3aklNRWNvRnVMa0NGUkVVc2hwYVg0ZkhGWml5NVFmY1hJR0tDQXJGZEVRb2QrRG1DZ2dSRktZYTZxM0RUbVFpZCtEbUNwbkFvemxvdGdndDZhS21waXVTalZ5Q215dFFFVUh1R1kwSTVScmNYSUdLQ0hKZERXMnB3LzNjOEJRQzNGd0JJWUxjaVZDbldJUzJKQnVGQURkWGFCcmNxVUt6NkljSUZRcmNYSUdLQ0hKVkRkazdJVnVnc0NUWktCUzR1UUlWRWVTR3lZaFFJY0hORlJBaXlFVTFaUHVGZXBPSndvS2JLelFjN215Z2tTSmt1L0N0amMvNlpLUFF2R2xqakpzclVCRkJpQXhGaEVyQkNpN2FId1pBUlFSQlZVUFdWZHNzSGhZakc2WEEzRnkzVWxYMElLa0FLaUlJaFhNUm9kTGR4T0xtQ2dnUkJGTU43YS9EWG1TaWRHeWg2RXNhb0JGM05RQWRFYUhGZFhoV3NRclpLQ1htNXJwdXA1Yld2NU1Lb0NJQ1g0eEVoRXFOdWJsT0lRMUFSUVMrcXFIdU9qenFvbzJPVUc1d2N3V0VDRElYSVpzN2YxUnNTelpBUE9laTlqK2ZrUXFvRng3TlFYczVFaEdDTnRqK3NTR2tBYWlJSUt0cWFCa1hOVFZkam14QUc4ek4xYXdpL2t3cWdJb0ltczE0UkFncWdKc3JVQkZCSnRWUUR4M3VZZTVBRlhxcUtycVJOQUJDQk0wUUlWc2Q5N0JpWTdJQlZUQTMxdzBrUmgrUkNxZ0ZIczFCUFF4RWhLQUdjSE1GS2lKb1NqWFV6VVVkRkxxUURhZ0IzRnlCaWdnYXpsUkVDT3JBSHVQT3dNMFZFQ0pvVkRXMG13NEhrUW1vays4b3ZrOGFJQTN1VmlCTmhCWjFrYy9RbW1RRDJnRnVya0JGQkIzbUZFUUlPZ0J1cmtCRkJCMnFodGJSNFVuRkltU2pJdGNxZGxZc1RTcXFncHNyVUJGQnU1bUJDQ1h5dG90TTRVNGhGVFhkOE9MbUNnZ1IxRjBOSGFMRExtUWlrWk4waDI5aWRMN2lmdEtSQ202dWdCQkJYU0prWm1kVHlVUWkxdUxvd2prblVFdnI3UGdDK3dWcFNXV001dGFLcEFFUUlxaUZVWXIvSVEwVk1jSHBKd0g2OGo4blVVdnJZNDVtbjdXQW15c2dSRkJUTmJTWkRnUElSQ0pUSlR4UFZ2ai9qMUQ4amZTa2Nxam0yRTZrQVJBaVNCSWhtdyt6Rkx4VXJzeHJpak1xbmtndHJlL3JjQndwcW9ucG1tc0xrd1pBaUtBU1AxSjhpelFrTWxpQzgwSGl5ZFRTZW8wT3Q1S21WSEJ6aFhsZ0h4SE1yWVpzNDZHNXJpNUZOaXB5cTRSbWp4cnl1SmFMT2xHdzdMMDZ1TGtDRlJITXgwUkVLSkZQRmNmVWRFSzF0TDdrNkNSUUM3aTVBa0lFODl6RmI2L0Q0V1Fpa1RHeHdOVEtCTVVMcEMyVnZUWDM5aU1OZ0JBaFFndTVhSUVDVk9aRnhmaTZUcXFXVnF1ZytwTzZtamhIYy9CcnBBRWhnbkp6dkdJRDBwQkkvMWhZNmp1eFdscnYwT0Z5MHBjS2JxN0FZb1dTVjBPcnVjaDFkVEd5VVpHckpDaTlPcEJmMnhSc0MwQzZrc3FxNE9aS1JRUWw1aHhFS0JGYnBqMjRReWRYUytzYk9weEtLbFBCelJVaGdwSldRL3Zvc0MrWlNPUTBDY25yRGZoM1ppb2VJcDJwNE9hS0VFSEpSTWhlRGs4akU0bFk3N2pwRFRuQm9xYW8vU3p0cERXVlNacWJiQ0ZBaUtBc2Qvc3Vla2tNODJQTlRLMnA2ZWNOTzhsYVdoK0tLeU9vRG02dUNCR1VwQnJhME5GZXBSb1hTRGp1YThLL08wenhCdWxOcFovbTZKYWtBU0dDNG9xUXZRdzIxOVhPWktNaWJ5bE9ic3FKMXRMNm5vdVd5a04xYkk3T2lodndBa0lFQmVRd0Y3MFVoc3FjS01INFo5Tk90cGJXSzNTNGd6U25ZbTZ1L1VnRFFnVEZxNGFXMW1FU21Vamtic1ZGR1h5T2RWejRqSFNuTWhvM1Y0UUlpc2NZeGZLa29TSzJNR0VlMTlVbVZrWFdnMjRjS1U5bFNjVmswb0FRUVhHcW9hMTBPSnBNSkdLdXEwOWwrSGxqRlMrVDlsUjZhKzd1U0JvUUlzaS9DSm5icWkwZFp0ZDZaY3gxZFdTbUoxMUw2eWVPcHFpMWdwc3JRZ1FGWUlCaU05S1F5Q0FKdzRlWm4zZ3RyYmZwY0EzcFQ4VWE4cDVBR29vTmQ4bkZyb1pXY2xIVHpTNWtveUszU0JEMjhqZytLK3Z3SE9PVGlybTVicUN4K2d1cG9DS0MvREdGaTF3aTluaHNvTmVUcjZYMWJ5N3FjZ0hWd2MwVklZS2NWa083NnRDTFRDUXlXa0lRd29JQjYybjNHTU9SeWo2YTB6VHBSWWdnUnlLMGlHdFEwODZDWWt1b0p3WnhBa1k5N2ZxNnFNY2RWT2RjM0Z3UklzZ1BKeW5XSVEySnRNdDF0WWxpZEw4TzV6RXNxVmlqWGg1bEZoQVdLeFN2R2xwTGg2Y1ZpNUNOaWx5aEMvK2hBWTZiZGI2d2hTVnNPcTdPdnhXYjR1WktSUVJoTXcwUlN1UjlGK2hTWUYxWTMzRXNVNjZGaFZ5MHQ0aWJhSVFJQXEyR0R0WmhkektSeVBBR3VhNDJpMHNWZHpGTXFleWc2RTBhRUNJSVQ0UnNtWFlMbVVqa1VSZFpZSVI3TWthOTdxemp3cjhacmxRbTQrYUtFRUY0bktIb1Job3FNdGQxOVl2Z1Q4aVcxbWNkWGRKckFUZFhoQWdDcTRZMjBlRllNcEhJVCtLVmFYbmhMTVdmR2JaVWNITkZpQ0FRRWJLWHR0YlVkRUd5VVpGL0tFN0oxVW5aMHZxUkRzY3dkS25nNW9vUVFTQWNwZWhCR2hJWkdxOUl5OWVKMmRKNnN3NDNNSHlwNE9hS0VJSG5hbWc1aDhsYU5mNmd1Q1RIMzMrUTRrT0dNUlhjWEJFaThNZ0V4VEtrb1NLWnVhNDJzU3I2cTh2WUt5bW40T2FLRUlHbmFtZzdIZnFRaVVTbUZHVDMvVlRGa3d4bktyaTVJa1NRc1FoMWR0RUNCYWpNcTRvekMzR0NSazFSZVFkU0c3aTVJa1NRSVlNVjNVbERJbDVjVjVzb1J2Zm84Rk9HTlJYY1hITUsvWnJ5VncydG9vTnRlbHljYkZUa1psMjQ5eTdndUMvcm9xYW95ekxFVmNITmxZb0lNdUJzUktqcVJXaGdJVS9VbHRhM2RSaktFS2VDbXl0Q0JFMitLOTVMaC8zSlJDTG11dnBLZ1gvZlJZcDdHT1pVY0hORmlLQkpJc1NkWG5Yc3NkWEVRcCtzMFZKMGMzUDluT0ZPQlRkWGhBaWF3SERGR3FRaEVYTmQvYXp3SjJ4TDYxT09MdXUxZ0p0cmptQ3hRajZxb2ZWMWVGekIwdFRLWEs0TGRPOFN6UWQ3Ui9oTWZMR0ZaSEJ6cFNLQ0JqSURFVXJFWEZlUEw5VkpHeTFOSDhUUXA0S2JLMElFRGJyN3RUdDlkb3duYzZvdXpIOHYzWW5iMHZvTEhXNWkrRlBad2VIbWloQkJoMFNJSGxyVmVWZ3hxOFMvMzZ3aVBtWWFwREk1UHBjQUlZSjJNRVpCVitISzVNWjF0WWxWa1czYVBKT3BrTW9LOGJrRUNCSFVXUTJaODJSZk1wSElMRjJJSHlRTmN5cm1aMGxES24xeGMwV0lvRDRSc25HWnhmZ2s4cVppR0dtWVV4WDlteHVXbXE5MU0zRnpSWWlnZHF6YjhoYWtJWkVoZVhSZGJhSVltUUhneFdRaUZaNHlJRVJRWXpWazc0UjRucDNNWFlwTFNjTjhuS2hBbk5QQnpSVWhnaHFZb3VoS0dpcGlqNkVHNU5sMXRZbFZrVDJ1UEpsTXBMS1VZaEpwUUlnZ3VScmFTWWREeVVRaWs5a2xYNVVMRlBlUmhsUytyM050QjlLQUVNSDhJbVNkRTJhUWlVVE1kWFVVYWFoYUZjMTIwVHVRTDhoR0tqTjB6aTFFR2hBaW1CZnptbG1QTkNReVVCZmFqMGhEcWhoWlQwSzZ0S2VEbTJ0QTBJTXBqR3JJdW1yYkk2ZEZ5VVpGZnFVTExQNHl0YytuTGk3YVc5U05iRlFGTjFjcUltakRORVNvNnNWaUlHbW9xeXI2UUlmanlFUXE1dkYxRG1sQWlMaDdIZHpESEZmM0pCT0pqT0tPdFYxaWRLME92eVlUcWV5cmMzQWYwb0FRbFZtRUZ1ZU9yQ3IyZUltbXIrM0hLc2xQU0VNcXVMa2lSS1ZtcE9McnBDR1JVcml1TnJFcWVrbUgwV1FpbGRWYzVJQU1DRkhwcXFIdU9nd21FNGxjcWd2cFhhU2h3MHhVUEU4YVVobWljM0lEMG9BUWxVbUViTFdpTlRWZGtHeFU1RjI3TUdROEpzdFpaUFJaM1JSTFpGUVZmV3FWSlZNcUZkeGNFYUxTY2FSaVc5S1F5REFQcnFzakZVdGs5Rm5MdTJqZldEWW5lVXZyNzNTNG5HbVZpamtoMDlrRUlTcEZOYlNNaXg2WFFHVWVjaG03cm1wTWJDTngxbDJaN1ZIUXlobCszdkdLOTVoZXFVekJ6UlVoS2dQakZjdVNoc3FhNENMWDFka1pmKzRFbC8xalVsdWxsVm5Mb3JqQ1BKVXBsZ3B1cmdoUjRhdWhIam9jUlNZU01kZlZoekllaysvbzRLdHJReDk5L3NaWjVqZXVPS0U2dUxraVJJVVZvYzR1NDBkT09lUE5yTy9ZNHhmVFB2Y3BaZnI1YlpxaXptYTZwVjRYY1hORmlBcUpiUzdjbURRa2Nyd3VsRm0vdytqdC9Edmg3cUlMWG1hZE5aVGpoeDFkM21zQk4xZUVxSERWa0RXZlBKTk1KSEtuTHBDWFpUd20xbWRzYkNDL2YwSmNNV2ZGTU1VYlRMdFVjSE5GaUFyRlZKZmQwdUM4WWE2clB2YTUyR2JpcjNhMStOQlREalpTL0NERHF1aDlGNjJpZytyZzVvb1FGYVlhMmwySGc4aEVJaE4xWVh3dTR6R3hsVkVuSjRpaUw4N01hcE5yTEVaWDZIQTcweThWM0Z3Um90eUxrRms3VENjVGlmelorZW1GTmxMUkpiQmNySmdnanMzRUt0RlBtWWFwNE9hS0VPV2FVeFJya29aRU1uZGRqZnVKL1RqUWZKeWc3NWRaRTF6bC9rOHUydGNHMWNITkZTSEtiVFcwam9jNzNEeHhveTZFTjNuNFhPdHFFV3FQdjBVOVZJaTJZT01scG1NcXArdWNYbzAwSUVTNUsrY1ZDNU9HaWxnVk5NakR6Y0hPT3V3VmVHNE8wL2ZjTE1PcXlQeUthSXFhRG02dUNGSHVxcUZlT3V4Q0poSTVNMnZYMVhoelloNVdRQzJROWZmVVdQeEdoNnVabHFuZzVvb1E1VWFFdXVyUVFpWVNNZGZWS1Q0cURjV21PY25SVHBwSGUyZjhtY2NwUG1CNnBvS2JLMEtVQzZ5UjVmK1Foa1Q2Nmc0ODAyWFM4ZWJWdkRtVlRzcHlrNnZHNUhVZFRtTjZwb0tiSzBJVWZEVmt6L2FQSVJPSlhLSUwzaDg4Zks2WjdIWExXYTdNbWlMcjFYM1RGSTh5VGRQbkUyNnVDRkdvSW1TNW5FVk9FekhYMWFFZXhzV3EwNU55bXJPUjhhUGVyS3FpTDF6VVgrMUxwbXRWY0hORmlJTEY3bDYvUlJvU09VVVh1amM5Zks3MStGdTh4cjhiMmdYWW5Gd3ozUUtnTVhwQWgvT1lycW5nNW9vUUJWY05XY3VZc1dRaUVidTQvY1REdUhSM2RmUnc4OUQ5dXhZRzYzZXNrdkZubWgzSG0wemJWSEJ6UllpQ3dwYmJMa1VhS3V1QjgrTzZhdmh3WG0wMGkyWjlrNk94ZXNmUlNhQVc3QVowTkdsQWlFS29oc3poOHpBeWtjZ01YZGdlOFRBdTM5VmhqNExrc0xjSHgxQ3o1YmlUNlp0S1A0M05GcVFCSWZJcFF2YlNjaWFaU01ROGI0WjdHSmU4YkY2dGgweWRaSFh6WU8vTEJqaS9IY256Y2czRnpSVWg4b285dm1BWlo1WDhlSHJ2MGtmeGpZTGxjbnRkN1BiTFdJeHM4L0ZFcG5FcTMxUWNUUm9RSWgvVmtHMXNPNTFNSkhLSExtU1hleGdYV3lFM3FxQTV6ZHJKMVRoTDhRclRPWlV4OGFJbFFJZ3k1VndYTlVLRStmbk1SWTkxZkdDYlYxY3FhRjdYVmZUTHVDcjZXSWVCVE9sVWNITkZpREsvNjk1WEI1b2ZKbU91cTg5N0dKZVZuWWROc3hrelFyOHoweFdhR3N1YmRiaWVhWjNLWWZIaUpVQ0ltbjZ4KzFwY0RVRmw3REdPcnlXdDlraHU4WUxuZDFrWDdmUEpHbXVLK2krbWR5b3pjWE5GaUxMQTNndXRTaG9TR1JnL3pzbjZCbUZqRnkxU0tBUEg2dmV1bm5GVjlGY1hXYXhEZFd6eDB2R2tBU0ZxNXNWdVE4ZEd2MnJjRUQvRzhZRTlueTlMNzY5RkZHTThmTzdaaWllWTV1azNxN2k1SWtUTkVpRzd5Tm1lb2M1a295SmVYRmZqc2RsZGgxMDcrTTk4bHJOOGYwKy9POVBlaHJySitOeGx2RmdpcDN3dEZtMUFpQnFPZFUvWW5qUWtNakorZkpPMUNObU5RU1AydW55Y3c1eG5iakNvTWI1WGh3dVk3cW5zNThIY0VDRXFlRFcwdEdOcFpqV2VWa3oxOU5uVzFMUjdTZk8rcmVibWdSNCsxMncxM21MYXA0S2JLMExVVUt6cDVQS2tJWkhNWFZmakc0UWxYR1R6VUdiR0tROExaMXdWL1ZPSEU1bjJxYXl1R0VZYUVLSkdYT3kyY3RrN1plYUppM1JodXR2VFo5dWQrWW9sei8vYXpzOTdtNHNVZHpQOVV4bXFhOGo2cEFFaDZvZ0ltWVdBdWE3aXhGaVpkM3pkR1d0c3pQcWJGWXdScDN2WTVHcE5VYzNOOVhQU1h4WGJVelNETkNCRUhjSGExR3hLR2hJNVdSZWtmM2o2Yk91QlJvdWxpR1VVcDJWKzhXaHB0WGVEVTBoL0tqdnFScUUzYVVDSTJuUEh2Vko4c1lQSzNPODhyWjdTMkd5bXd4RU13VHdNVkY3VzlQQzU5bzd1VmRLZnltVGNYQkdpOXRDaTZFSWFLdktGOCtlNmFwUnA4MnF0MkNPZ2NSNnFvZzkxT0piMHAyTHZNbkZ6UllqcXV1TzJ6WkdIa0lsRXB1c0M5S2luc2JHOUdUc3hCQlU1V1BucDRVR01idFRobDZRL0ZkeGNFYUthTDNUV1BvV1hpOG1ZNitwcG5zYkdOcTlPWUFpcVY0dHhGNUNzc2Fyb1k5S2ZlcjNGelJVaHFnbGJFcncyYVVqa09OMEJ2Ky9wczQ5eU9PS21zWTFWUmg2cW9yL29jQWJwVHdVM1Y0UW85WTU3TGVlbnhYNWV1RjBYbktzOGpVMVgxOXpOcTBXeU9NaDhrMnVNcmFCN2h0TWtGZHhjRWFLcVRIZFJaMk9ZSDJzSzJ0L2o1NS9zbXR2ZG9rajdZZFp3SGx4VjQrNGFmVGxWVXNITkZTRkt2T08yeHhtN2tZbEV4dXRDOHlkUFk3T0tEb01aZ3JvWXJyd3Q0MEdNL3FqRHhhUS9GZHhjRWFMNUxuUzJUSHNxbVVqa1plZkgvMll1OXRtTE1neDEzM1dmNXVtenphNzlIWVlnRmR4Y0VhSjVzSmVzSzVPR1JJN1JuZTRubm00U2JMa3J1OUxieHdEbEwvT0ZOM0czalpOSWZ5cTR1U0pFLzduUWJlTFlrRmVONjNSaCtiWEh6NS9zMkx6YVh1eHVlN3luejdhdUc2ME1RU3E0dVpaZGlPTDlGdGJVZEVIT2g0cllTckxCSHNkblB4MTRqdDR4RGxBZXQvTlFGVmxUVk9zSy9nVkRVQlhjWEttSTV1eEwyWnB6SVpFemZMaXV4aUxFNXRVR1ZwVStOcmxxN2p6T1JiWW1TdS9tV2xvaDBzQXY1L3c5dHNnRFR6bS9DemhzR2ZDNkRFTkQrSmJ6MTdKcXBPSTFoaUNWVXJ1NWxya2ltcWhZbXZtZkxBUzZvL1d5dHlidVVqeUNJV2dvWTVYWHpGY2VhZzU5b01OeHBEK1YxVjJKM1Z4TEtVVHhNL01qbWZ1SlhLZ0x5RDBlUDkrNld5ekhNRFQ4UXVkbFVZN20wblU2L0pvaFNLVzBicTZsRTZMNDNjTXM1bndpLzNRZWw5NXFmT3lDT2NqSFI1ZGdiRStOSDBuNzRCakZKNXhlVlNtdG0yc1pLeUpiQmJZUmN6NFJjMTE5eStQbjIrWlZIMjJXM2kvQjJIcDc1S2s1Wlp1aU1acE1wNVJ1cnFVU29yaFZ6RWptZWlMM09VK3VxL0g0V0dmaTd6RU1UYVd2OHV4ckVZaTlsMzJlSVVpbGRHNnVaYXVJem5IUnVuMllIOXZ2MFRmZS8rR0xLUXhEMDdGSDAxNVdpMnB1K1c2Y214ZFdMRnYxV0JvaDBoM0dYanIwWkk0bmNtNjg3OFBYK095dnczWU1ReWIwOU5Wd1UzUHNkenBjeGhDazBsOWp0RGxDVkN3UldreUhhY3p0UlA3bVBDNlhqcjF6Mkx5YUxaTTlPYmthSnlqZVpRaFNyODJsY1hNdFMwVTAzRVhMVjZFeWd6MjZyaHJXQ2daWDNHengxa3hXYyszdnJzUjdadXJBTmlML0dDRXFSalZrNi9LSE1xY1QrWTB1REZkN0hCK3pLemlkWWZEQzZQaHBnUTlzQzhXRERFRXFZOHZnNWxwb0lZb2ZQZGk2ZkR3L0t2T3BZa0FBMWVveURJVVhWblYrOW14WlZXVDd0cXlOMDJ5R29TcDJvellSSWNvM2h5cDJaQzRuTWs0WGhCYzkzaWg0c2JTR2VUakYxeDIzNXQ0ak9reG5DRkk1WEdPMFBVS1V6MnJJMXVHekhEaVpsMHlJUEg4SFcwYThNRVBobGE3Tzc5NDZxNGpmWUJoU0tiU2JhNUVySXR1aHZ3THpONUVCdmx4WDR4dUZIam9jekRBRXdZOTk5VGlMRjhuUUZEV2REWjFIYnpDRXFIMFh1UzFkdEJJTEtuT3RMZ0MzZVJ3ZmUzYzNLYkNjbExrUG1obERlbnNQb2JsNGxRNi81YlJNWllUT25WVVJvbnlJa0oxVXRpSUhlK25LL0N1QU85QURGZHNnUkVHeHQ4NGRuKzlUcmVQQ3A1eWVWU21zbTJzUkt5SmJpYk1GY3piNXJrcDNvUC9uOFViQjNnbGhTQmdtazMxdG9Jd1h6WXhqQ0ZMcEdYZUpRWWdDcm9hc1I5TVk1bW9pVDdpbzM1NVB6QTVnVFlZaVNEWlRIT2J4ODAySVhtUVlVcG5tY2Y4WFFsUUR0a3F1Sy9NMHVWcjA1Ym9hM3lqWWZxSFRHSWFnOGJiSk5WNDhRMVBVZEZaMzBXcERoQ2pBYW1nbkYrMGJnc3Bjb0JPOTFmTjNNQkZhaXFFSW1tNHU2Z1huNTRMVTBtcUxGcTVpR0ZJWlVpUTMxMElJa1FiRWpOUm1NRGNUZVZ0eHN1Y3hXc3Y1NytJQXRYRlMvSmpiRjdaTStRT0dvU3IycnJVd200R0xVaEVOVWF6SDNFeStzT2hPODIzUDM4RVdLTkJxS1I4c29UakRZMVgwdXFNcGFpM3NwQnVHUWp3RnlyMFF4VzFpaGpNbkU3bFhjYUhuTVRLZm9RTVppbHh4bE1hdHU4ZlB0eWNjanpBTXFSVEN6YlVJRlpINURDM0tmS3lJdWE3MjgrbTZHbTllbmN4UTVBN2JqK2ZOSTBwemRzN2NWWHpKVUZUbGYxd0IzRnh6TFVTNnlCMmd3NTdNeFVUTzFnbjloT2Z2Y0lpTGZGVWdmK3loYzJ3WGoyTDBnSXMycDBOMWN1L21tbHNoVXVMdE9mYlp6TUZFYk5QcVNNOWpaSXRJeGpJVXVXYXlaNWZRVXhWdk1neXAxL0ZjdTdubXVTSXlhK3V2TXdjVE9VNTNsTDVYSHBuRncrbzV5UmVydENxenNlSUlqMVdSV1lvZnp6Q2trbXMzMTF3S1Vmd1NkVEJ6TDVGYmRRSmY2M21NbG5YNVdrVHlCZE1ta2JNMG5vdDcvUHpMRlhjeURLbmsxczAxZDBJVXYveTI1OFlMTXU4cVlvMGpqd25nZTR4VUxNbHdGSUtWWGJSRndsZFZaQXNXck9QQ1p3eEZWWExyNXBySGlxaVBZbHZtWENKamRPSys1UGxtWVYwWE5aK0Y0akJVNDdxU1J6RjZ6cFhBTXJzQjVOTE5OVmRDRkQvdW1jQmNTOFFhUm9iUTJkcStRMmVHbzFEWW83bFJuci9EYU1VckRFVXF1WE56elZ0RlpOMTVsMldlSmRKZmQ0NWVQVjEwQW54Ymg1NE1SU0hwby9IOWhzZXE2R01YeG1QbjBNbWRtMnR1aEVnbmdCbXBIY1VjUytUcXVHR2t6ekd5OTNkVEdJckNZdGNMcjg2Nm11TzM2SEFkUTVGS3J0eGNjeUZFU3FnOTVwbkozRXJrZzBEdWdIb3J0bVE0Q3MxM2RUN3U3dms3bU1Qd3Z4aUtxdVRLelRVdkZkR3hMdHJQQUpVNVhYZUtmL044czJBZU5xTVppbEl3VWVQdGJkV3E1dnByTHRwSENOWEpqWnRyOEVLa1JOcW0xVE9ZVTRrODdxSitlNzRacEZpVjRTZ0Z0byt2aitmdllFN0RUekFVcWVUQ3pUVVBGVkdMaTlyU3cvelkvZ3F2cnF2eHpjTHlPcHpDY0pTS1VYR2JMVjlWa2MzNXZvNm1xR21zN25Ld3NUeG9JZEpFMzBPSGc1aExpWmpyNm4wQmZBOTdUSkozaTNZNks5U0hkWDBlNnZYaUZUa09YOEJRcEJLOG0ydXdRcVRFbWJYRE5PWlFJbTg1ejY2cjhUaXQ3NHF4ZVpWZWMvVmptMXk3ZWY0T0o4Zm5BaVFUdkp0cnlCV1JkZDFka3ptVXlJbTZJL3huQU4vRGRydlRicW1jMkxzSHIxNDQ4VGt3bEtGSUpXZzMxeUNGS0c0UmN4SnpKNUY3RkJjRk1FNDc2ckEzdzFGcWp0QTgyTVR6ZDdoWThVZUdJcFZnM1Z4RHJZaW14K1VrekkrOXkranIwM1UxRmlIdm14c2hDTHc3OE1ibmdqMGUvcHpocUlxOTF4c1Y0aGNMVG9oMGdmdWVEcnN3WnhKcDBZbjNWQURmd3phdmJzNXdnTmhaNTYxWHAyU2RFODg0dW5yVXdnQ04xV1lJVVhVUjZzcGtxb3B0NURzamdIR3lkd000cjBKYkpzWWRVSHhpNThhckRFWHFOWDlXYUc2dW9WVkVaOFhsSTFUR1hGZERhRzF5Z3FJYnd3RnRzRWFiWG50QjZ0ejR5TkVVdFJiTXpmVkhDRkhsdTJ4N3pET0FPWkxJTFRyUnJndGduRlowTENTQmhJcEU4Nk9MWnpINmxRNi9aQ2hTQ2NyTk5RZ2hpc3ZFbVM2bjF1VVo4SWxpWUNnWEcwZW5DNmpNQ29IY3BGaHZ5bzhZanFvczdRTHlkZ3Zsd245MFhDNUNaVWJyVHUvbEFHNFl2RDkrZ2VBNUllNFA2Yk1xK291alAyVXRIQkg3aHlGRWNYazRoam1SeUFzdUhJdGtOcTlDR29zR2NqNWJqOHFuR1k1VWduQnpEYUVpc3Iwb1N6RWZFaG5nMjNVMXZtR3dKZlY3RmpqUG56RFZHc2IzTlYrMjhGd1YvZHNWby9WVXM5bklSZjVPNVJVaVRkWWRkRGlNdVpESWxUcWhiZzlBaEd5ZVRDNTRyaEdpeHJHQUMyQ3pzODZkdTEwQUhVaHl3RWlkNDZ1VVVvamljbkFHY3lBUmE4SjVmQ0RmNVFpSE1TSFV4dzQ2eC9jSjRIdFlIN3AvTWh4VjhlN202ck1pR3FMWWdEbVF5SERkMGIwZVFEVmtrL1FzaGdQYWdmZE5yanFIckRNMzJ3M1MyZCtubTZzWElkSVBYazJIMHhqN1JCNTE0YlJ0dHh1R2xSa1NhQWZyS1g0Y3dQZjRxYUtWNFVqbFhGOXVycjRxb25OZDFFSWU1c2NhT1BiVG5aeDNvelpOeXBWME9KRWhnUTV3aHUrT3oyMmFvbUorV0owMUZNTktJVVNhbFB2cHNBOWpuc2hQZE9MY0g4aDNzVTY5aXpNazBBR1djd0hZeU91Y2VrS0hxUXhIS21aMnVGNmhoU2grMzNBT1k1M0lQMEk0YWVPeCtvWU9mUmdTYUFDRDRzZnh2aG5wb3NiQmtJd1hOOWVzSzZJUmlsVVo2K1M3RWQyNXZSUElkNW5vYUxrRWpjRTJ1WTRPb0NxeWhzSEhNUnlwN0J6YjhSUlBpT0wyTU1jenhvbVl3K1FsZ1ZSRDM5VmhONFlFR2todnphc3RBeEFqYXh4OEM4T1J5cFRZbHFjNFFxUWZaQnZjcktscFo4YTNJdVlzMmMrMzYybzhWdGJDWnpKREFzMjR1QVh5UGN3cTRtT0dveXBteDVQWnRvMnNLcUxERmRzenRvbVk2Mm9vZmJIc3ZWQjNoZ1Nhd0xkMW83Ti9BRlhSS3k2QVI0VTVJRE0zMTZZTGtYNkl0UnVmeUpnbThsY1hTS2RnalpYWk80d3E2VGk4ejFUTWhQRWhOTm1NcjBuUE1SeXArcENKbTJzV0ZkRTR4ZktNYVNMSDZnN3R3MEMreTFCWFhvZmMyVXpGVEZqSEJkQ01WT2ZjWnpyMFp6aFN5Y1ROdGFsQ0pDWGR5Z1ZtU1JzWU4rdUUrRVVnMVpCMVR4akNrRUFHak5CODg5NXhYK2ZlblRwY3luQ2swblEzMTZZSlVmelNlNWFMT3ZIQy9Oakwwb0VCZlo5VFhkVDhFS0RaTEtzWUhNaDNzWnV2ZHhtU3FqVGR6YldaRlpHdFRObVVNVXhrZFB6U05CUk9kbEgvdi9jWUdtZ2liOFVpTkM2RUw2Tno4Ty94VFJoVXA2bHVyazBSb3JoSDJTakdMcEhuWFdBTE9HeXpuOEtXYTY3dW9oVkZIekpNMEVEZWl5LzRhMmllVFZXRXRIejZQTVVEREZFcVRYTnpiVlpGWkQyZHVqQnVpZlNQWDVZR2g3N1h1NHJoc1NDWjNUS0djZEFSN0libVRKdFBtbGRqNCs0R29jMTVXNmhDVTlSMG11Ym0ybkFoa21MdXFzUC9NbWFKWEs2Si83dlF2NlQ1dUNpc0U4YWFMdHFNL0crR0R1ckFibUFteFFJMHdtNXdBcC92SVZtdmhFeFQzRndiS2tUNmd0WlRDdGZWWkd5dnlnbDUrc0ptenFld1phNXJLeTdtcmhGU3NCdVdhWFlEbzNrek5EYW15d3YyanZSMWhyQXFUWEZ6YlhSRmRGSjh3WUxLRE5PSitVWWV2N2krOTZ1S0kvWEg5UlZYdWNnM0NXQXVkb055b1ozL21pY0RRM0FYYnNjY3R4dEZtcUttMDNBMzE0WUprYjdZV2k0UUM0TkFlY1JGajdoeWpVN1dGeFc5OU1lTkZUY3lyS1hIYmtndXR4c1V6WXNmMmcxTHp1ZjMxVHI4aG1GTnBhRnVybzJzaU95UjNDS01UK0xKMmpjRTE5VUduckJQS1hycWo5WlIrYllDL0tUUG1hWjFZNXV4dTJzZTlMWWJsQUw5cmdHS1R4bmVxalRVemJVaFFpUmxQRmlIN3pJMmljelNpZnBnRVgrWWZ0ZkRpdDMxeCswVXY4L3hUL2tYMDdSbWJsVnNybkhmWC9GTUFlZTBpZXBZaGptVmhybTVkbGlJWXM4S0xIaVRlZE41OG9IUCtPUzlSN0dEL21pckp1OW4yQXVKM1doc28zSGVJMTVsVm1Sc3crMmZHUEtxTk16TnRSRVZrWFdPWHBreFNXUklRSzZyV1FqUzdZcXQ5Y2Q5Rlk4eC9JWEFiaXgyc2hzTlJXdEo1ckU5bWh2QTBLZlNFRGZYRGdtUnZzQW1McXgrYWFIeGtDdHBVMFdkeUwvU1lYUEZJWXBubVFxNXhHNGs5clliaTdoQmFObm04RzkxdUpKcGtFcUgzVnpiTFVTeFI0VTFOVjJRY1VqRVh1VC9Scm5hcGFSaTlHVzhDc21NOW81VXZNU1V5QVYyNDNDUWk5NEQzVnp5WE5pbWJyeXFxdE5oTjllT1ZFUS9WR3pOR0tSaUl2UmJpZEdEaW9PeU1Ka0tVSkJtSzJ3enJPMUI2dWNpTTBBSUQ3dFJNRGRsV3dsM1hRalc5VDdSdWJxa0RyMGRLK2hxb1g5SDNGd1hhT2NBbWRHZE5lNWNtdnpYelFzdWFuaDZTYWo5NWpJNHdSZUpCZWtrRjQ0UjMyQnJ4cG5SNzdldTlDRzk3TGNiQTJ0Uy9EUGxvUFRMMkRVK3RqUjVVSHl6dlFTWHJKcXhkNG5ieEwzN01xbUlKaUJDN1daZHhmbUtQMnZDRDRudHVjdFdJWDBhWC9TdEM0ZHRnbjZiYWVHRk4rSUxyblZET0wvc0lxUnpzWWZpV3YzeHhUZ3ZpRkI5bUJIcVVabFVSQm9vMnkveVIzTGVNS3c5dnZYbU9sc1hnbitVOUFKZ2owRE1vOGJhcXl4SlJkUjAzbzZyOG5NQ3MyUHdNZmM2NjdDL2k5NEY4YXFoNDlnSzRmWHF2Wll0VU9lZ0xSU2ZRQnVSNzRaajNZcXRWOWRFRGVLZlMzcFJNT2ZPb1M0eVZWd2NJV3JLVFkvOXhra2gyakZrUE5lNnhuZnZ4eXBXNC9MVFVDN1MvT3BUejM5UTc2TzU0eENocG1HZHk2M0w5WXM2U1M1VGJGeTJCR2p5dnEwd3A5aDFYTlRoRnkra3htQ2VRT05kWkVvM3Nzd2lwUE5xZGNVVS9mRTF4V1JFcUNrY0dUODVhM3hGcEg5NFZSY3Q2L3dhZWM2TVd4VGpkT0VvNWFQUWVNNlpxNmU5Tk83YzVJK3pYb0RuRmF3aU1pRzMzelJHdiszTmtsZEFQVnowK00wZXc3SGxwUGs4cmRpMDF2ZU85WnpjWnlOQ21iT25oVTZpZTEzVWN1U21NaTJwalRzNTk5WHZONE0xYzQwOXpEWFBWYmhJUzNUTkU4Z2U4NTZsSEw1V1l2SGgvWTgvN01tWnZmZWQyTENLS1BhZXVJbmNldWVaV0pDdUtPTUtKODNEbzEyMGlib1o5RkZPTHlwSVJiU2Zmc3N2U3l4QVhlSXEybGErcmM1bHd4djJTSGdEemNYVWZZT2RhaGhVcTRLbWtkTWcyRkJ4aWVKbGpjdkFlR3pLeEdkTWdab29aU2NBblErcnhkV3pWWUV0aUpCM2JNRlJUUXVBYW5uTU1Zd0JEUTd6akQ5SDhhcE92Tk1WeTVUa2R5L0owRU1GQWRwS1lhN0IxaG5pQkVWWHNoSU1CMmhzOXV5UUVPa2YyTUJGeTJraFRHeTU4eG14SUZuandhK1g0QTRMd0s1TkM4WXRzKzdSLzNtZjRuOGRpeEJDSmRYTnRWT1ZnYmIzUitZMXNSQjV6TVVGMmw0TTJpTzdDK01iaUNMQ1loa0VxSXZDdHBGWTk0TnJGTnVRbGVCWjAwV3JYOXRWRVIycTJKRWM1Z3E3YWJDTlpFL3JaTDNlSGxsUUVVRkJCR2dWM3Yva21oTTFmdXNtL1krZEV3WjlLUjJta0x2Y1l0V3NMVnZkWDJOcFBqTGpPN1cwM2xhQTM4VTdvdklKMERkZHRQejZZTWVqdHp3ejE4MTExNXFGU0l4V3JFRHVDb0ZWdFR2cWhEYVRNMXY2ZmExRTZZdWMvaFllelpWRGZPeEpUYzlZZ0xZbEk0VmhGNDF0TDExLzVqTWI3SlJ3QjlLUG5CVU8yN3RpRStCNWpiRnRFbDBVSVlMQUJHZ0poZlYrcy9jLzF5RkNoYVNsa3B0cnA2OU1CQ3Q5WjdwMitoUkJMbGdySHVOWE5ONG54NTJ2ODBJWGhxK1FBbVR2ZjJ3SHZyMy9zUTR1YTVDVndtTCtZNlBTS3FLK2lpM0lWV2tteEZqRlgzUVJHS2RZcWVSQzlCNVRJbk1CK3FiaUNyc3BVZ3h4dkFNc0N3Tys2dWJhcWMya3NBdlRHSEpVT3V6a042ZFVXL285UzdGMndOKzFtWS9tdm1RcVpDSStuUlE5RmRiSTl3RkZMOGNpaExJeDU4bGIvQzV3dm9ySVdxS3pJN204MkRzajYrWDJuQ2JJbFIzeG44K3BFRUZ6QmNqZS81alAxQXVLR3hUYmtaVlNNNCtiYTZkNGt1enNvbjFEQUhhM2NvamlFYzJMV3hVaDdTWGowVTMrQk9qckN2TkNzc2FYNTdyb0hTV0FZYThFbHJjL2ROWWZGbkhSK202QXI3S2JoZWJJL1M0eVZydXhVMHZyYkkvZmh3MnQrUkdnTFYzVTdjTmE3M1FtSTFDQnBSVVRGSDFzZ2xndnVmWElDYVNVMGRlNzZMR2RUWnpMSkVpWmRzS09iZXE1b0lVdFB2YUVaVjhYN2YvNU5obUJHakEzMTUvYWlUMk1YRUNOck84aXc3VXpZN3ZsOHpPMG5hWWFDbGVBYkd5c3RaVDFnT1BSRzlTRGRVeGZ5b1JvVVhJQmRXSmR2azJJaHVzaVpJOTF6NUVndmRYa3orVDlVSGdDMUUwSFc0QmdpMXlXSmlOUUI4KzZxSVBQVldieWFVSmtMNk5QVVh5WDNFQ2RtQS9TYVlvVHJMeldjVkpzNzkwTVdERVhqZ0J0N3FMSGIvYitoKzc4VUEvV2FzeTJDVjNYOW4xelovMGZkK2w0Vjl5cDJRUnBQM0lGN1JDSmdZcitta2VYdTZqSjZ0TUlVYUhFeDk3LzdCMEwwSGZJQ05USi9YRUZkSk91RGZQdDJmdlB5MS85ai9ZWGJhUFpOMXowM3NqdWRtajFBL1ZnUzc4UHM5QTgrcFdPNHpTdjdtM1F2MDE3SHo4Q1pPOS9qbFFNVXF4RFJxQk9mcThZbTliOWY3NVZTUG9QbnRTaGx5Ymc4RmlRZWxOK1F6dll4MEx6Nkc0WHRSTDZkYVU3b1lDRTZOOE0yVHdDeFBzZjZBaTN4UUwwKzFyK2N1SnlXUDBEMWdHM2p5YmtDQmUxZ1BtQlkyRUQxSS90b0w5WjhhVDF0TlB4YW5zNTJZNS9wOW1QNWo1a3FPWUlrSFZwUDhGRm01cTVBWVY2K1dVc1FQZlY4eCtsN3N1SVh6NWJrN3F6WExSQnJiOWpLUzNVanozeXZVd3hPbmJhdkZCejYrT0FoS2pNNG1QdmYvWjAwZnNmWEptaFh1eEpoOW0yMjZQNFI5dnpEOVM4UVZBZjhMcUw3RjRueENXNzdSbGdTUzNVeStxS2FZb1Jta3ZXOG4rNjV0YTdOZngzekxYR0M1Q0oreEh4dWJ3dUdZRTZNWVBOeTJNQmVxWWovMURkTzlYai9TSWpOWW10U2VxQStDNXFlY1lFNnNUbWpGWFo1b2swUzhjV3phMi9WZm43Vk9HTkU2Q1Y0M1BYYkYrV0lTTlFKL1krOVdJWHJZNTlzUkgvWUx0YnB1Z0xmT0NpcG5WMlYzdDBMRWlyTUVaUUowdTR5SXRta09hU1RlNkptbHN2VlBoN1BKcnJ1QUJ0R3ArblpyM0EreCtvbDA4VXRsOXdRcVAzQzNhNGQxZjhuSCtxSnZrTUZ5M3pQTkhSNWdQcXh5Nk0xaGIraDVwTDE4VjNXdzlSRVhWWWZHd0x4bDZPOXovUWZtd2h6M2t1MnJEK2VqTStvR0ZOSk9NbW1EL1J4TGRlWkxiaXhwWitiOEFZUXAzWWhmTWdDODJsTzF6MC9QbDJ4enVpZWdWb01SME9kOUVDSTVvYVEzc3cxMklyTUtZMHU0WFhBazA4RVd3bGpuVnBzQll3bXpHbTBBRWVqbSthTm1uaVord1lkeG5KUWlUc0VkbWpUZndJTTU3YlhyRXNVd2Zhd2RzdThvNDZ1OGFGUk9GVVJCVXFwTm54Q1hHRFRyemRkYlFOc3RzeXh0QU90aUFGZGJFL0tZQjI4SWFKajJKYWhsMzFteXRFWHhHbFczVXd0ODhkSEExV0FRQkN3dHh6clp2K2VYWHU3Y3VYRUxVUnBMc2NEVllCQUVMZ0ZSYzVwRjZZdGRHbFZ5RnFJMGcwV0lYUStJZ1VRRWw0WG1IdHRpNXRaN3V0eG11QzF3OXZhWDFTWVhzYWJGZTM3U0doOFNUNDRqTlNBQVhuS2NYM0ZCdnF1bnRSS0NMa1hZamFDTktMaWlQMXg3VVZNMTIwY1FvQUFEcU9yVHExQlN3YjZ6cDdaVnREdWxEb0hOS1hpWGZybXJuYUtCZHR3T3ZuMk1nSUFOQWV6QXRzVkx4WUxHZzZCZm1sV2xwZlZ3eDFVWVBNTTEyMHNRb0FBTks1MDBYNzRyYk5nd2dGSzBSdEJPa3RoZmtocmVxaVZYWnZNY2NBQUNwaW90TkQxOHlkc3RxY1hRb2hhaU5JN3l2R3hZSmtMVXRlWTg0QkFNenhBcnBSc2JtdWtYdlVhMGlIRUxWUGtENVdUSFZSVTFWcllmOFM4eEFBU29ndE9MaEswVjNYeEo3dE5hUUxoYzU1L05MeDVxdnpaZy91WVMzSmJmbjNxWTRHcXdCUWZNeU03bExGV1kzeUFrS0lPaTVJdGc3K1VnbVN1UVQyZEZHRDFVMlpxd0JRTUd5UHBUa2JqR20wRnhCQzFEaEJzakwxZW91NHdhb0owamJNWFFESU9iYW4wcnlBeGpmTEN3Z2hhbzRvdFcyd2FvL3NkbVV1QTBET01ETzZhUzR5b3l2OGF1SE9SZjFoYlJxc2JxM2p5WTRHcTFDZGQwa0JCSUR0bWJRRldlWUY5RTVaZm5Ubm92L0FlRG1qTlZqZE9LNlFhTEFLQUtGaFpuU1RGTk4xemZxZ2JEKytjMWwrcUFiM0NSMTZTWkRzL1pGMS9ENVVzUkR6SHdBOFltWjA0eFhuNnhyMVlWbVQwTGxzUDFpRC9TY2RqcFFnbmU2aVIzWjlGSXR5UGdCQWhwZ1ozUmlGZGNFdWZaUG56bVg5NFRSWUJRQVAyQ2I4MFlyTGZKdlJJVVJoQ1pJdGlSd3FRYkx5ZUtCaWtHSkpwZ1lBTkpCbkZYYlRlMDFJUGtEQlhJZEp3WDhFaVFhckFOQm9IbE1jNktKV1BGY2dRZ2hScllMMDFRYXIvMGRXQUtCTzdsZnM3YUptcE5lSGFFWVhFcDFKUWFJZ2ZhekQxTm1EZTh6UThRZUtJUzVxdGdvQWtNVHZYZFFIN25aU2dSQTFVcERzaGVJc0NkSUZMdko3dDhkMk5GZ0ZnTGJjcGhpdDY4VWZTUVZDMUV4QnNtZTdQNWNnWGVZaS8vZmhqZ2FyQUdYSHZJQ3NFZWtEcEFJaHlsS1E3Rm52ZFJJa2E3SzZtOEwySS9VZ003bUhwYlJRSzJaR2Q3VmluSzRIajVFT2hNaW5JTmxrYk50ZzFibzE3RUptY3N0SHBBQlNtT3NGTkVIbi96T2tBeUVLVFpUdWN2OXRzR3J2a1BZbEt3Q0ZZYTRYMEtRaW1kRWhSTVVWSkd1d3VwOEVhWk5Za0dpd0NwQmZyUFhPK2JFQXZVbzZFS0s4Q2RMakxtcXdhdStQck9OM2IzSU5rQnVzK2FodDIyZ3BzaGtkUWxRZVFYckIvYmZCcWxWSVJ6b2FyQUtFaW5rQm1SbmQxREtZMFNGRTVSTWtLK3Y3U1pETzFQRUVSVjlIZzFXQVVEQXZJRE9qbTZaekZZTkVoS2p3Z21SbC9oQUprclVRT2pZT0dxd0MrTUc4Z0ZvVU0zUnUvb3QwSUVSbEV5UXIrMCtYSUUxMmtmMkV0UTlhbHN3QVpJSjVBWmtiNnZseEt5OUFpRW90U1BaTWVwd0U2V3dkajQ0RnFSdVpBV2dLNWdVMFVmRXp2SUFRSXBoZmtHaXdDdEE4ekF0b2d1SlNiQmdRSWtnWEpCcXNBalFPMjBaaDcyT3Z4b1lCSVlMNkJZa0dxOW56SVNrb0RBOHF4aWh1akZ0eFFlQ3c2ejhIU0pCc25HaXcybHp4WHlERDhiU2Jpa2ZKZXNPNTIwVldETGVTQ2lvaWFQeEY4cXNOVnExQzJwbk1BTXpoRGhlWjBkMUZLaEFpeUVhVTdHU2IyMkRWMmdmdFExYWdwTnlpR0JYM2VBU0VDRHdJa3AxOCs4YVBlVTUyTkZpRmNtQlBCMjZJS3lBZWJ4Ymxla1lLY2k5SWp5bDZ1V2gxM2NVdThrd0JLQm8ycjY5VWROZDhQeEFSUW9nZ1RFRjZYbkdrL3JpbTRqd1h0YkFIeUR2bUJYU1JZbjNONys5aFNJY1FRVDRFNlZWRjMxaVFwamlXSlVNKytUUytvVnBiODdrUGhuVEZobmRFeFJVa2E3QjZ3dXpCUGNicU9FZ3gwTkZnRmNMSExOdk5qRzQ4WGtBSUVSUkhrS3pCNm1seGcxV3JsR2l3Q2lGaTNhK251OGdORlM4Z2hBZ0tLa2ptczJJTlZzL1I4Y2VLb1lxVnlReDR4dWFsTmYyZGloY1FRZ1RsRVNSNzlORzJ3YW9KMHBwa0JqTEdxaDZyMHFmaEJRUUlVWGtGcVcyRDFVTmR0QmVwckExVzMyTkdaSWFaMFkxWG5JY1hFQ0JFTUZlUXJNSHFKUktrUzNVOFFESE0wV0FWR28rWjBWa2owZ3Z4QWdLRUNKSUV5ZHJrWHl0QnVrN0gzVjNVWUhWck1nTWR4TXpvem5KNEFRRkNCSFVJa3JWUStiVUZEVmFoQTVnWjNabUthelNuNlBZQkNCRzBXNVR1Y2pSWWhmcDRUSEdHNHBlWTBRRkNCSTBVSkJxc1FocjNLMFlxYnNPTURoQWlhS1lnMmQxdUx3blNDQmZabUg5ZnNTQ1pLVFcvVjV5cHVmRTdVZ0h0dnJhUUFtaUhJTkZnRlc1VGJLdDVzQU1pQkFnUitCUWtHcXlXanhzVjM5UzQ3NjY0bDNRQVFnU2hDTkxyaWhQMHg5VVZveDBiUkl1R3ZmTzVTckd4eHJtbjRpRlNBbzJFZDBUUVNFR3l0aTNEWncvdU1VbkhmZ29USnhxczVoZGJkbTBibmNkcGJKOGpIWUFRUVo0RXlacFhqbzBiclA1SWNhSmlwWUMvOHFlTTJqeVlHZDJGaWdrYXk1ZEpCeUJFa0dkQnNuZEdiUnVzbWlDdEVlQlhwZWRaaEMwNnNjVW5relYyZnlVZGdCQkJrUVNwYllQVjNvcVRYSGticklhSTNUQk1VNXlOR1IwZ1JGQjBRYkplWXhkTGtINnU0NEV1NnRaQWcxVi8yS0lTOHdJNkZ6TTZRSWlnYklKa3JWK3VrU0JkcStNZUxtcXd1aFdaeVl5M1hiVGNmZ1ptZElBUVFka0Z5WllGMzJJUk4xZzlUYkVUbVdrYTVnVmtLeHJQdzR3T0VDS0ErVVhwTHZmZkJxdm1pYlEzV1drWXR2QmdndUtubU5FQlFnU1FMa2pXWUhVZkNkSm1MbHJVUUlQVjltTmVRT2FHZWpGbWRCRDBlVThLSUZCQmVsVFJTMy9jMEM2a0x0cGNDYlZoWGtDSEs5WlhEczlIaEFBaEF1aVlJRDBYTjFoZHkwVjdYTmg4bXN5Yzd1aUs3c3JaejNGRUJZUUlvTEdDOUplNHdhcHRpRzF4TkZodGkza0I5VlJzcmh4ZGhTRWQ1QTNlRVVIZUJNazJYQjQvZTNDUE1Ub2VwemhHc1dSSjAvRUh4VmpsNUZabUJpQkVBTmtMVWlNYnJPWnRLZk52WWdHNmk1a0FoVGlmU1FIa1hKRGVWWXpWSDFkVERGYTBwMFZOWHQ2bDNLVG9vZCs3R3lJRUNCRkFlSUwwb1dLcWl6eVJyRUo2cFNBL3pUYjlXZ2NLZS8relQ3eThIYUJROEdnT2lpWklSV213YXN2VnIxU00wVzk2aHBFRmhBZ2dmNExVdHNIcVFZcFRYRDRhckpvWGtIMW5ld2YwSWlNSkNCRkEvZ1hKbGpKZkxVRzZSc2M5WGRUUExzUUdxK1lGOURNWHVhRyt5c2dCUWdSUVBFR3lkeTAzVzBpVWRvd0ZhY2NBdnBydGh6cmZSVzZvZUFFQlFnUlFFbEc2VTRjNzR3YXJ3eFhkUEh3Tjh3S2FwWmlFRnhBQVFNbVJJSzJhOGVkMVZTeEY1Z0VBQUFBQzRQOEZHQUJER01tZUNKT0VrZ0FBQUFCSlJVNUVya0pnZ2c9PSIgaGVpZ2h0PSI0NDIiIHdpZHRoPSI0MTgiLz48L2c+PC9nPjwvc3ZnPg==;" parent="dtOV9YOIjFEI8-B-jVSO-18" vertex="1">
          <mxGeometry x="202.5" y="220" width="47.29" height="50" as="geometry" />
        </mxCell>
        <mxCell id="N08xS9JCno1T1F9PN58o-161" value="vault&#xa;HashiCorp Vault" style="shape=image;editableCssRules=.*;image=data:image/svg+xml,PHN2ZyB2aWV3Qm94PSIwIDAgMjQgMjQiIHhtbG5zPSJodHRwOi8vd3d3LnczLm9yZy8yMDAwL3N2ZyI+PHN0eWxlPip7ZmlsbDojRkZFQzZFfTwvc3R5bGU+PHBhdGggZD0iTTAgMGwxMS45NTUgMjRMMjQgMHptMTMuMzY2IDQuODI3aDEuMzkzdjEuMzhoLTEuMzkzem0tMi43NyA1LjU2OUg5LjIyVjguOTkzaDEuMzg5em0wLTIuMDg3SDkuMjJWNi45MDZoMS4zODl6bTAtMi4wODZIOS4yMlY0LjgxOWgxLjM4OXptMi4wODcgNi4yNjNoLTEuMzc3VjExLjA4aDEuMzg4em0wLTIuMDloLTEuMzc3VjguOTkzaDEuMzg4em0wLTIuMDg3aC0xLjM3N1Y2LjkwNmgxLjM4OHptMC0yLjA4NmgtMS4zNzdWNC44MTloMS4zODh6bS42ODMuNjgzaDEuMzkzdjEuMzg5aC0xLjM5M3ptMCAzLjQ3NVY4Ljk5M2gxLjM4OXYxLjM4OFoiLz48L3N2Zz4=;aspect=fixed;labelPosition=center;verticalLabelPosition=bottom;align=center;verticalAlign=top;" parent="jZVaUwOg5UY3L9NAnvdq-71" vertex="1">
          <mxGeometry x="100.11000000000001" y="50.5" width="50" height="50" as="geometry" />
        </mxCell>
        <mxCell id="-xrmGZC775zc49n530f5-11" style="edgeStyle=orthogonalEdgeStyle;rounded=0;orthogonalLoop=1;jettySize=auto;html=1;entryX=0.25;entryY=0;entryDx=0;entryDy=0;" parent="jZVaUwOg5UY3L9NAnvdq-71" source="N08xS9JCno1T1F9PN58o-159" target="dtOV9YOIjFEI8-B-jVSO-18" edge="1">
          <mxGeometry relative="1" as="geometry" />
        </mxCell>
        <mxCell id="N08xS9JCno1T1F9PN58o-159" value="config-service&#xa;Spring Cloud Config" style="shape=image;editableCssRules=.*;image=data:image/svg+xml,PHN2ZyB2aWV3Qm94PSIwIDAgMjQgMjQiIHhtbG5zPSJodHRwOi8vd3d3LnczLm9yZy8yMDAwL3N2ZyI+PHN0eWxlPip7ZmlsbDojNkRCMzNGfTwvc3R5bGU+PHBhdGggZD0iTTIxLjg1MzcgMS40MTU4YTEwLjQ1MDQgMTAuNDUwNCAwIDAgMS0xLjI4NCAyLjI0NzFBMTEuOTY2NiAxMS45NjY2IDAgMSAwIDMuODUxOCAyMC43NzU3bC40NDQ1LjM5NTFhMTEuOTU0MyAxMS45NTQzIDAgMCAwIDE5LjYzMTYtOC4yOTcxYy4zNDU3LTMuMDEyNi0uNTY4LTYuODY0OS0yLjA3NDMtMTEuNDU4ek01LjU4MDUgMjAuODc0NWExLjAxNzQgMS4wMTc0IDAgMSAxLS4xNDgyLTEuNDMyMyAxLjAzOTYgMS4wMzk2IDAgMCAxIC4xNDgyIDEuNDMyM3ptMTYuMTk5MS0zLjU4MDZjLTIuOTM4NSAzLjkyNjMtOS4yNjAxIDIuNTkyOC0xMy4yODUyIDIuNzkwNCAwIDAtLjcxNjEuMDQ5NC0xLjQzMjMuMTQ4MSAwIDAgLjI3MTctLjEyMzQuNjE3NC0uMjQ2OSAyLjgzOTgtLjk4NzcgNC4xNzMyLTEuMTg1MyA1LjkwMTgtMi4wNzQzIDMuMjM0OS0xLjY1NDUgNi40Njk4LTUuMjg0NCA3LjExMTgtOS4wMzc5LTEuMjM0NyAzLjYwNTMtNC45ODgxIDYuNzE2Ny04LjM5NTkgNy45NzYxLTIuMzQ1OS44NjQzLTYuNTY4NSAxLjcwMzktNi41Njg1IDEuNzAzOWwtLjE3MjktLjA5ODhjLTIuODY0NS0xLjQwNzYtMi45NjMyLTcuNjMwNCAyLjI3MTgtOS42MzA2IDIuMjk2Ni0uODg5IDQuNDY5Ni0uMzk1IDYuOTYzNy0uOTg3NyAyLjY0MjItLjYxNzQgNS43MDQzLTIuNTkyOSA2LjkzOS01LjE4NTcgMS4zODI4IDQuMTczMiAzLjA2MiAxMC42NDMuMDQ5MyAxNC42NDM0eiIvPjwvc3ZnPg==;aspect=fixed;verticalAlign=top;labelPosition=center;verticalLabelPosition=bottom;align=center;" parent="jZVaUwOg5UY3L9NAnvdq-71" vertex="1">
          <mxGeometry x="275.5" y="50.5" width="50" height="50" as="geometry" />
        </mxCell>
        <mxCell id="dtOV9YOIjFEI8-B-jVSO-32" value="&lt;div&gt;Sensitive&lt;/div&gt;&lt;div&gt;KVs&lt;br&gt;&lt;/div&gt;" style="edgeStyle=orthogonalEdgeStyle;rounded=0;orthogonalLoop=1;jettySize=auto;html=1;entryX=0;entryY=0.5;entryDx=0;entryDy=0;" parent="jZVaUwOg5UY3L9NAnvdq-71" source="N08xS9JCno1T1F9PN58o-161" target="N08xS9JCno1T1F9PN58o-159" edge="1">
          <mxGeometry relative="1" as="geometry" />
        </mxCell>
        <mxCell id="-xrmGZC775zc49n530f5-5" style="edgeStyle=orthogonalEdgeStyle;rounded=0;orthogonalLoop=1;jettySize=auto;html=1;exitX=1;exitY=0.5;exitDx=0;exitDy=0;entryX=0;entryY=0.5;entryDx=0;entryDy=0;" parent="jZVaUwOg5UY3L9NAnvdq-71" source="-xrmGZC775zc49n530f5-1" target="N08xS9JCno1T1F9PN58o-141" edge="1">
          <mxGeometry relative="1" as="geometry">
            <Array as="points">
              <mxPoint x="400" y="246" />
              <mxPoint x="400" y="296" />
            </Array>
          </mxGeometry>
        </mxCell>
        <mxCell id="-xrmGZC775zc49n530f5-1" value="mariadb" style="shape=image;verticalLabelPosition=bottom;labelBackgroundColor=default;verticalAlign=top;aspect=fixed;imageAspect=0;image=data:image/svg+xml,PHN2ZyBoZWlnaHQ9IjI1NiIgd2lkdGg9IjI1NiIgdmVyc2lvbj0iMS4xIiBpZD0ic3ZnMiIgeG1sbnM9Imh0dHA6Ly93d3cudzMub3JnLzIwMDAvc3ZnIiB2aWV3Qm94PSIwIDAgMjU2IDI1NiI+JiN4YTsgIDxtZXRhZGF0YSBpZD0ibWV0YWRhdGE4Ij4mI3hhOyAgICAmI3hhOyAgICAgICYjeGE7ICAgICAgICBpbWFnZS9zdmcreG1sJiN4YTsgICAgICAgICYjeGE7ICAgICAgICAmI3hhOyAgICAgICYjeGE7ICAgICYjeGE7ICA8L21ldGFkYXRhPiYjeGE7ICA8ZGVmcyBpZD0iZGVmczYiLz4mI3hhOyAgJiN4YTsgIDxwYXRoIHN0eWxlPSJmaWxsOiMwMDdhYzM7ZmlsbC1vcGFjaXR5OjEiIGQ9Im0gOTguMzMwNTAzLDI0Ny42Nzc1OCBjIC0xMi43OTgwMSwtMS44MDAyOCAtMjcuMDk2NDksLTUuMDczMDcgLTM2LC04LjI0MDA2IC0xOC42MjY0MywtNi42MjU0NCAtMzMuODk4MzksLTE3LjQwNjI3IC0zOC45MTMyNCwtMjcuNDY5NzYgLTIuNDkxMTEsLTQuOTk5MDEgLTIuNTg2NzYsLTUuODQ5MyAtMi41ODY3NiwtMjIuOTk0NjEgMCwtOS45NTYyIDAuMzk4OSwtMTcuODAzNjYgMC45MDQ5OCwtMTcuODAzNjYgMC40OTc3NCwwIDIuMDY2MDEsMS45ODExNiAzLjQ4NTA2LDQuNDAyNTggMTMuMTA2MjQsMjIuMzY0MTEgNTkuNzM2MTgsMzcuMjI1MzcgMTEwLjYwOTk1NywzNS4yNTIwOSA0Ny4wNzY2MywtMS44MjU5OSA4NC40MDM0NiwtMTUuOTkyOTQgOTQuNjAxMDMsLTM1LjkwNDY3IDEuMzM3OTYsLTIuNjEyNSAyLjg1NDY5LC00Ljc1IDMuMzcwNSwtNC43NSAxLjY5OTgsMCAyLjI3ODk1LDYuOTA4NSAxLjgyODE4LDIxLjgwNzY4IC0wLjQwMzIyLDEzLjMyNzYzIC0wLjY4MzExLDE1LjE1NjkzIC0zLjAxMzMxLDE5LjY5NDM2IC04LjEzMjYzLDE1LjgzNjEzIC0zMS41NDcxNSwyOC4wODA3NCAtNjYuMjIwNTMsMzQuNjMwMDIgLTE0LjUwODQ2LDIuNzQwNDIgLTUyLjg1NTQ5LDMuNTE1NjUgLTY4LjA2NTg2NywxLjM3NjAzIHogbSA1LjQ5OTk5NywtNDguNjI3NzcgYyAtMzAuODg3Njk3LC0zLjEwMzAzIC01OS41MDQ5MDcsLTEzLjY0MTQ5IC03Mi45OTM1ODcsLTI2Ljg4MDMyIC04Ljg5OTc0LC04LjczNDkgLTkuNDUzNDMsLTEwLjQ5NyAtOS44MTk1MywtMzEuMjUgLTAuMjEwNTUsLTExLjkzNTA3IDAuMDMxLC0xNy43NSAwLjczNzQ1LC0xNy43NSAwLjU3NzgyLDAgMi4xNzA0NiwxLjc3NCAzLjUzOTIsMy45NDIyMiA4LjY4NzU4LDEzLjc2MjAzIDMxLjMzNTY0LDI1LjI4MDk4IDYwLjkzNjc3LDMwLjk5Mjg2IDU5LjAxODY3NywxMS4zODgzMyAxMjguMDc4MTc3LC0zLjc3ODQ2IDE0My43NjQ3MDcsLTMxLjU3MzQ3IDEuNjY0MjUsLTIuOTQ4ODkgMy40MDUzOCwtNS4zNjE2MSAzLjg2OTE4LC01LjM2MTYxIDEuNTIyNjcsMCAyLjIyODE2LDguOTU3MTcgMS43Njk4NSwyMi40NzA2MiAtMC40MDQyMiwxMS45MTg2OCAtMC43MzA3OCwxMy44NTkzNSAtMy4xNzE1NywxOC44NDgxNCAtMTIuNTg2NjgsMjUuNzI2MjUgLTcxLjA1NzY3LDQyLjM0NTYyIC0xMjguNjMyNDcsMzYuNTYxNTYgeiBtIDMsLTQ4Ljk5NDYyIGMgLTM5LjYyNjI1NywtMy41MDA3IC03My4zNDc3MzcsLTE4LjI3MjQ2IC04Mi43ODEzMDcsLTM2LjI2MjUxIC0yLjUyMjkyLC00LjgxMTI4IC0yLjcwNzk2LC02LjA3ODA1IC0zLjAzOTI2LC0yMC44MDcwOTggLTAuNDMxMTgsLTE5LjE2OTUzIDAuMjExMzIsLTIwLjk5ODk5IDQuODQwOTcsLTEzLjc4NDMgOC40MjAyMywxMy4xMjE4IDI4LjIyMzA1LDIzLjIwNjY0OCA1Ni44OTg5MiwyOC45NzY1NTggNjIuOTE5OTE3LDEyLjY2MDE5IDEzMy4zMDQ5NjcsLTIuODY4MjkgMTQ4LjQ4MTgyNywtMzIuNzU4MzQ4IDAuOTA3NjIsLTEuNzg3NSAyLjAxODY2LC0zLjI1IDIuNDY4OTgsLTMuMjUgMS4yNzIzMiwwIDIuMTkwODUsMjYuOTgxMTEgMS4xMzg2MiwzMy40NDYyMTggLTQuNzgxODYsMjkuMzgwODkgLTY0LjM1NjI3LDUwLjA2MjczIC0xMjguMDA4NzUsNDQuNDM5NDggeiBtIDQuODkzNDksLTQ4Ljk4NzgyIEMgNzAuNDk3MTMzLDk4LjQ0NjE1MiAzMi44OTY4MDMsODIuMzkxODMyIDI0LjE4OTAwMyw2My42OTIyOTIgMTIuMjU3NTIzLDM4LjA3MDA2MiA0OC4yODU3OTMsMTMuMDUyNzYyIDEwNS43MTE1NSw3LjA4NDcwMTcgYyAxNi4xNjMzMSwtMS42Nzk4IDQ3LjQ5NDI1LC0wLjY3NjYxIDYxLjY4NDgyLDEuOTc1MSAxNi42NjU3NCwzLjExNDIyMDMgMjcuNzM5MzcsNi42MDIyNTAzIDQwLjE2MjUsMTIuNjUwNTcwMyAxOC4yMDMxMSw4Ljg2MjM3IDI3LjI3MTYzLDE5LjQzOTM4IDI3LjI3MTYzLDMxLjgwODA5IDAsMjkuNDkzNTYgLTU3LjUzOTM5LDUxLjcxNzY4OCAtMTIzLjEwNjUxLDQ3LjU0ODkwOCB6IiBpZD0icGF0aDMwMjYiLz4mI3hhOzwvc3ZnPg==;" parent="jZVaUwOg5UY3L9NAnvdq-71" vertex="1">
          <mxGeometry x="174" y="221.5" width="50" height="50" as="geometry" />
        </mxCell>
        <mxCell id="dtOV9YOIjFEI8-B-jVSO-26" value="Elasticsearch Cluster" style="swimlane;whiteSpace=wrap;html=1;collapsible=0;fillColor=#dae8fc;strokeColor=#6c8ebf;" parent="jZVaUwOg5UY3L9NAnvdq-71" vertex="1">
          <mxGeometry x="43.999999999999886" y="360.5" width="310" height="173.5" as="geometry" />
        </mxCell>
        <mxCell id="-xrmGZC775zc49n530f5-3" value="" style="group" parent="dtOV9YOIjFEI8-B-jVSO-26" vertex="1" connectable="0">
          <mxGeometry x="38.5" y="55" width="233" height="50" as="geometry" />
        </mxCell>
        <mxCell id="N08xS9JCno1T1F9PN58o-148" value="elasticsearch" style="shape=image;verticalLabelPosition=bottom;labelBackgroundColor=default;verticalAlign=top;aspect=fixed;imageAspect=0;image=data:image/svg+xml,PHN2ZyBoZWlnaHQ9IjQ4cHgiIHdpZHRoPSI0OHB4IiB2aWV3Qm94PSIwIDAgNDggNDgiIHhtbG5zPSJodHRwOi8vd3d3LnczLm9yZy8yMDAwL3N2ZyI+PHBhdGggZD0iTTM3LDI0YzAtMy4zMTQtMi42ODYtNi02LTZINS45MThDNS4zMjMsMTkuODk0LDUsMjEuOTA5LDUsMjRzMC4zMjMsNC4xMDYsMC45MTgsNkgzMSBDMzQuMzE0LDMwLDM3LDI3LjMxNCwzNywyNHoiIGZpbGw9IiMyOWI2ZjYiLz48cGF0aCBkPSJNMjUsNDRjNi41MjQsMCwxMi4zMDUtMy4xMzMsMTUuOTU0LTcuOTY4QzM4LjgzNSwzNC4xNTEsMzYuMDU1LDMzLDMzLDMzSDcuMTU3IEMxMC40NTMsMzkuNTIsMTcuMTk2LDQ0LDI1LDQ0eiIgZmlsbD0iIzRkYjZhYyIvPjxwYXRoIGQ9Ik0yNSw0QzE3LjE5NSw0LDEwLjQ1Myw4LjQ4LDcuMTU3LDE1SDMzYzMuMDUxLDAsNS44MjgtMS4xNDgsNy45NDYtMy4wMjQgQzM3LjI5OSw3LjEzOCwzMS41MjUsNCwyNSw0eiIgZmlsbD0iI2ZmY2EyOCIvPjxwYXRoIGQ9Ik0yMi4wNzMsMTVjLTEuNTEzLTMuMzY3LTMuODQ1LTYuMjg4LTYuNzQ3LTguNTAxQzExLjgxNyw4LjQ0Myw4Ljk1NywxMS40MTIsNy4xNDMsMTVIMjIuMDczeiIgZmlsbD0iI2Y5YTgyNSIvPjxwYXRoIGQ9Ik0xNS4zMjYsNDEuNTAxYzIuOTAyLTIuMjEzLDUuMjMzLTUuMTM0LDYuNzQ3LTguNTAxSDcuMTQzIEM4Ljk1NywzNi41ODgsMTEuODE3LDM5LjU1NywxNS4zMjYsNDEuNTAxeiIgZmlsbD0iIzAwOTY4OCIvPjxwYXRoIGQ9Ik01LjkyOCwxOEM1LjMzMiwxOS44OTUsNSwyMS45MDcsNSwyNHMwLjMzMiw0LjEwNSwwLjkyOCw2aDE3LjIzNEMyMy43MDMsMjguMDkyLDI0LDI2LjA4MSwyNCwyNCBzLTAuMjk3LTQuMDkyLTAuODM3LTZINS45Mjh6IiBmaWxsPSIjMjEyMTIxIi8+PC9zdmc+;" parent="-xrmGZC775zc49n530f5-3" vertex="1">
          <mxGeometry x="183" width="50" height="50" as="geometry" />
        </mxCell>
        <mxCell id="dtOV9YOIjFEI8-B-jVSO-24" value="elasticsearch-&#xa;node-3" style="shape=image;verticalLabelPosition=bottom;labelBackgroundColor=default;verticalAlign=top;aspect=fixed;imageAspect=0;image=data:image/svg+xml,PHN2ZyBoZWlnaHQ9IjQ4cHgiIHdpZHRoPSI0OHB4IiB2aWV3Qm94PSIwIDAgNDggNDgiIHhtbG5zPSJodHRwOi8vd3d3LnczLm9yZy8yMDAwL3N2ZyI+PHBhdGggZD0iTTM3LDI0YzAtMy4zMTQtMi42ODYtNi02LTZINS45MThDNS4zMjMsMTkuODk0LDUsMjEuOTA5LDUsMjRzMC4zMjMsNC4xMDYsMC45MTgsNkgzMSBDMzQuMzE0LDMwLDM3LDI3LjMxNCwzNywyNHoiIGZpbGw9IiMyOWI2ZjYiLz48cGF0aCBkPSJNMjUsNDRjNi41MjQsMCwxMi4zMDUtMy4xMzMsMTUuOTU0LTcuOTY4QzM4LjgzNSwzNC4xNTEsMzYuMDU1LDMzLDMzLDMzSDcuMTU3IEMxMC40NTMsMzkuNTIsMTcuMTk2LDQ0LDI1LDQ0eiIgZmlsbD0iIzRkYjZhYyIvPjxwYXRoIGQ9Ik0yNSw0QzE3LjE5NSw0LDEwLjQ1Myw4LjQ4LDcuMTU3LDE1SDMzYzMuMDUxLDAsNS44MjgtMS4xNDgsNy45NDYtMy4wMjQgQzM3LjI5OSw3LjEzOCwzMS41MjUsNCwyNSw0eiIgZmlsbD0iI2ZmY2EyOCIvPjxwYXRoIGQ9Ik0yMi4wNzMsMTVjLTEuNTEzLTMuMzY3LTMuODQ1LTYuMjg4LTYuNzQ3LTguNTAxQzExLjgxNyw4LjQ0Myw4Ljk1NywxMS40MTIsNy4xNDMsMTVIMjIuMDczeiIgZmlsbD0iI2Y5YTgyNSIvPjxwYXRoIGQ9Ik0xNS4zMjYsNDEuNTAxYzIuOTAyLTIuMjEzLDUuMjMzLTUuMTM0LDYuNzQ3LTguNTAxSDcuMTQzIEM4Ljk1NywzNi41ODgsMTEuODE3LDM5LjU1NywxNS4zMjYsNDEuNTAxeiIgZmlsbD0iIzAwOTY4OCIvPjxwYXRoIGQ9Ik01LjkyOCwxOEM1LjMzMiwxOS44OTUsNSwyMS45MDcsNSwyNHMwLjMzMiw0LjEwNSwwLjkyOCw2aDE3LjIzNEMyMy43MDMsMjguMDkyLDI0LDI2LjA4MSwyNCwyNCBzLTAuMjk3LTQuMDkyLTAuODM3LTZINS45Mjh6IiBmaWxsPSIjMjEyMTIxIi8+PC9zdmc+;" parent="-xrmGZC775zc49n530f5-3" vertex="1">
          <mxGeometry x="92.00000000000011" width="50" height="50" as="geometry" />
        </mxCell>
        <mxCell id="-xrmGZC775zc49n530f5-2" value="elasticsearch-&#xa;node-2" style="shape=image;verticalLabelPosition=bottom;labelBackgroundColor=default;verticalAlign=top;aspect=fixed;imageAspect=0;image=data:image/svg+xml,PHN2ZyBoZWlnaHQ9IjQ4cHgiIHdpZHRoPSI0OHB4IiB2aWV3Qm94PSIwIDAgNDggNDgiIHhtbG5zPSJodHRwOi8vd3d3LnczLm9yZy8yMDAwL3N2ZyI+PHBhdGggZD0iTTM3LDI0YzAtMy4zMTQtMi42ODYtNi02LTZINS45MThDNS4zMjMsMTkuODk0LDUsMjEuOTA5LDUsMjRzMC4zMjMsNC4xMDYsMC45MTgsNkgzMSBDMzQuMzE0LDMwLDM3LDI3LjMxNCwzNywyNHoiIGZpbGw9IiMyOWI2ZjYiLz48cGF0aCBkPSJNMjUsNDRjNi41MjQsMCwxMi4zMDUtMy4xMzMsMTUuOTU0LTcuOTY4QzM4LjgzNSwzNC4xNTEsMzYuMDU1LDMzLDMzLDMzSDcuMTU3IEMxMC40NTMsMzkuNTIsMTcuMTk2LDQ0LDI1LDQ0eiIgZmlsbD0iIzRkYjZhYyIvPjxwYXRoIGQ9Ik0yNSw0QzE3LjE5NSw0LDEwLjQ1Myw4LjQ4LDcuMTU3LDE1SDMzYzMuMDUxLDAsNS44MjgtMS4xNDgsNy45NDYtMy4wMjQgQzM3LjI5OSw3LjEzOCwzMS41MjUsNCwyNSw0eiIgZmlsbD0iI2ZmY2EyOCIvPjxwYXRoIGQ9Ik0yMi4wNzMsMTVjLTEuNTEzLTMuMzY3LTMuODQ1LTYuMjg4LTYuNzQ3LTguNTAxQzExLjgxNyw4LjQ0Myw4Ljk1NywxMS40MTIsNy4xNDMsMTVIMjIuMDczeiIgZmlsbD0iI2Y5YTgyNSIvPjxwYXRoIGQ9Ik0xNS4zMjYsNDEuNTAxYzIuOTAyLTIuMjEzLDUuMjMzLTUuMTM0LDYuNzQ3LTguNTAxSDcuMTQzIEM4Ljk1NywzNi41ODgsMTEuODE3LDM5LjU1NywxNS4zMjYsNDEuNTAxeiIgZmlsbD0iIzAwOTY4OCIvPjxwYXRoIGQ9Ik01LjkyOCwxOEM1LjMzMiwxOS44OTUsNSwyMS45MDcsNSwyNHMwLjMzMiw0LjEwNSwwLjkyOCw2aDE3LjIzNEMyMy43MDMsMjguMDkyLDI0LDI2LjA4MSwyNCwyNCBzLTAuMjk3LTQuMDkyLTAuODM3LTZINS45Mjh6IiBmaWxsPSIjMjEyMTIxIi8+PC9zdmc+;" parent="-xrmGZC775zc49n530f5-3" vertex="1">
          <mxGeometry width="50" height="50" as="geometry" />
        </mxCell>
        <mxCell id="-xrmGZC775zc49n530f5-4" style="edgeStyle=orthogonalEdgeStyle;rounded=0;orthogonalLoop=1;jettySize=auto;html=1;exitX=1;exitY=0.5;exitDx=0;exitDy=0;entryX=0;entryY=0.5;entryDx=0;entryDy=0;" parent="jZVaUwOg5UY3L9NAnvdq-71" source="-xrmGZC775zc49n530f5-1" target="N08xS9JCno1T1F9PN58o-140" edge="1">
          <mxGeometry relative="1" as="geometry">
            <Array as="points">
              <mxPoint x="400" y="246" />
              <mxPoint x="400" y="196" />
            </Array>
          </mxGeometry>
        </mxCell>
        <mxCell id="-xrmGZC775zc49n530f5-6" style="edgeStyle=orthogonalEdgeStyle;rounded=0;orthogonalLoop=1;jettySize=auto;html=1;entryX=0;entryY=0.75;entryDx=0;entryDy=0;dashed=1;fillColor=#dae8fc;strokeColor=#6c8ebf;" parent="jZVaUwOg5UY3L9NAnvdq-71" source="N08xS9JCno1T1F9PN58o-148" target="N08xS9JCno1T1F9PN58o-141" edge="1">
          <mxGeometry relative="1" as="geometry">
            <Array as="points">
              <mxPoint x="380" y="440" />
              <mxPoint x="380" y="309" />
            </Array>
          </mxGeometry>
        </mxCell>
        <mxCell id="-xrmGZC775zc49n530f5-7" style="edgeStyle=orthogonalEdgeStyle;rounded=0;orthogonalLoop=1;jettySize=auto;html=1;entryX=0;entryY=0.75;entryDx=0;entryDy=0;dashed=1;fillColor=#dae8fc;strokeColor=#6c8ebf;" parent="jZVaUwOg5UY3L9NAnvdq-71" source="N08xS9JCno1T1F9PN58o-148" target="N08xS9JCno1T1F9PN58o-140" edge="1">
          <mxGeometry relative="1" as="geometry">
            <Array as="points">
              <mxPoint x="380" y="440" />
              <mxPoint x="380" y="208" />
            </Array>
          </mxGeometry>
        </mxCell>
        <mxCell id="-xrmGZC775zc49n530f5-8" value="Search" style="edgeLabel;html=1;align=center;verticalAlign=middle;resizable=0;points=[];" parent="-xrmGZC775zc49n530f5-7" vertex="1" connectable="0">
          <mxGeometry x="-0.3518" y="-2" relative="1" as="geometry">
            <mxPoint x="-2" y="39" as="offset" />
          </mxGeometry>
        </mxCell>
        <mxCell id="N08xS9JCno1T1F9PN58o-157" value="service-registry&#xa;Netflix Eureka" style="shape=image;editableCssRules=.*;image=data:image/svg+xml,PHN2ZyB2aWV3Qm94PSIwIDAgMjQgMjQiIHhtbG5zPSJodHRwOi8vd3d3LnczLm9yZy8yMDAwL3N2ZyI+PHN0eWxlPip7ZmlsbDojNkRCMzNGfTwvc3R5bGU+PHBhdGggZD0iTTIxLjg1MzcgMS40MTU4YTEwLjQ1MDQgMTAuNDUwNCAwIDAgMS0xLjI4NCAyLjI0NzFBMTEuOTY2NiAxMS45NjY2IDAgMSAwIDMuODUxOCAyMC43NzU3bC40NDQ1LjM5NTFhMTEuOTU0MyAxMS45NTQzIDAgMCAwIDE5LjYzMTYtOC4yOTcxYy4zNDU3LTMuMDEyNi0uNTY4LTYuODY0OS0yLjA3NDMtMTEuNDU4ek01LjU4MDUgMjAuODc0NWExLjAxNzQgMS4wMTc0IDAgMSAxLS4xNDgyLTEuNDMyMyAxLjAzOTYgMS4wMzk2IDAgMCAxIC4xNDgyIDEuNDMyM3ptMTYuMTk5MS0zLjU4MDZjLTIuOTM4NSAzLjkyNjMtOS4yNjAxIDIuNTkyOC0xMy4yODUyIDIuNzkwNCAwIDAtLjcxNjEuMDQ5NC0xLjQzMjMuMTQ4MSAwIDAgLjI3MTctLjEyMzQuNjE3NC0uMjQ2OSAyLjgzOTgtLjk4NzcgNC4xNzMyLTEuMTg1MyA1LjkwMTgtMi4wNzQzIDMuMjM0OS0xLjY1NDUgNi40Njk4LTUuMjg0NCA3LjExMTgtOS4wMzc5LTEuMjM0NyAzLjYwNTMtNC45ODgxIDYuNzE2Ny04LjM5NTkgNy45NzYxLTIuMzQ1OS44NjQzLTYuNTY4NSAxLjcwMzktNi41Njg1IDEuNzAzOWwtLjE3MjktLjA5ODhjLTIuODY0NS0xLjQwNzYtMi45NjMyLTcuNjMwNCAyLjI3MTgtOS42MzA2IDIuMjk2Ni0uODg5IDQuNDY5Ni0uMzk1IDYuOTYzNy0uOTg3NyAyLjY0MjItLjYxNzQgNS43MDQzLTIuNTkyOSA2LjkzOS01LjE4NTcgMS4zODI4IDQuMTczMiAzLjA2MiAxMC42NDMuMDQ5MyAxNC42NDM0eiIvPjwvc3ZnPg==;aspect=fixed;verticalAlign=top;labelPosition=center;verticalLabelPosition=bottom;align=center;" parent="jZVaUwOg5UY3L9NAnvdq-71" vertex="1">
          <mxGeometry x="630" y="40.5" width="50" height="50" as="geometry" />
        </mxCell>
        <mxCell id="-xrmGZC775zc49n530f5-17" style="edgeStyle=orthogonalEdgeStyle;rounded=0;orthogonalLoop=1;jettySize=auto;html=1;exitX=0.979;exitY=0.283;exitDx=0;exitDy=0;entryX=0.004;entryY=0.472;entryDx=0;entryDy=0;exitPerimeter=0;entryPerimeter=0;" parent="jZVaUwOg5UY3L9NAnvdq-71" source="N08xS9JCno1T1F9PN58o-159" target="N08xS9JCno1T1F9PN58o-157" edge="1">
          <mxGeometry relative="1" as="geometry" />
        </mxCell>
        <mxCell id="-xrmGZC775zc49n530f5-19" style="edgeStyle=orthogonalEdgeStyle;rounded=0;orthogonalLoop=1;jettySize=auto;html=1;entryX=0.019;entryY=0.607;entryDx=0;entryDy=0;entryPerimeter=0;" parent="jZVaUwOg5UY3L9NAnvdq-71" source="dtOV9YOIjFEI8-B-jVSO-18" target="N08xS9JCno1T1F9PN58o-157" edge="1">
          <mxGeometry relative="1" as="geometry" />
        </mxCell>
        <mxCell id="-xrmGZC775zc49n530f5-40" value="5" style="rounded=1;whiteSpace=wrap;html=1;fillColor=#007CBD;strokeColor=none;fontColor=#FFFFFF;fontStyle=1;fontSize=22;labelBackgroundColor=none;aspect=fixed;" parent="jZVaUwOg5UY3L9NAnvdq-71" vertex="1">
          <mxGeometry x="179" y="111.5" width="40" height="38" as="geometry" />
        </mxCell>
        <mxCell id="PfW1Trj3aX01LcuOc2Ej-67" value="" style="shape=image;verticalLabelPosition=bottom;labelBackgroundColor=default;verticalAlign=top;aspect=fixed;imageAspect=0;image=data:image/svg+xml,PHN2ZyB4bWxuczp4bGluaz0iaHR0cDovL3d3dy53My5vcmcvMTk5OS94bGluayIgeG1sbnM9Imh0dHA6Ly93d3cudzMub3JnLzIwMDAvc3ZnIiB2ZXJzaW9uPSIxLjEiIHZpZXdCb3g9IjAgMCA0MCA0MCIgaGVpZ2h0PSI0MHB4IiB3aWR0aD0iNDBweCI+JiN4YTsgICAgPHRpdGxlPkljb24tQXJjaGl0ZWN0dXJlLUdyb3VwLzMyL0VDMi1pbnN0YW5jZS1jb250ZW50c18zMjwvdGl0bGU+JiN4YTsgICAgPGcgZmlsbC1ydWxlPSJldmVub2RkIiBmaWxsPSJub25lIiBzdHJva2Utd2lkdGg9IjEiIHN0cm9rZT0ibm9uZSIgaWQ9Ikljb24tQXJjaGl0ZWN0dXJlLUdyb3VwLzMyL0VDMi1pbnN0YW5jZS1jb250ZW50c18zMiI+JiN4YTsgICAgICAgIDxyZWN0IGhlaWdodD0iNDAiIHdpZHRoPSI0MCIgeT0iMCIgeD0iMCIgZmlsbD0iI0VENzEwMCIgaWQ9IlJlY3RhbmdsZSIvPiYjeGE7ICAgICAgICA8cGF0aCBmaWxsPSIjRkZGRkZGIiBpZD0iRmlsbC0xIiBkPSJNMTAsMjkgTDI5LDI5IEwyOSwxMCBMMTAsMTAgTDEwLDI5IFogTTMzLDEyIEwzMywxMSBMMzAsMTEgTDMwLDkuNSBDMzAsOS4yMjQgMjkuNzc2LDkgMjkuNSw5IEwyOCw5IEwyOCw2IEwyNyw2IEwyNyw5IEwyNCw5IEwyNCw2IEwyMyw2IEwyMyw5IEwyMCw5IEwyMCw2IEwxOSw2IEwxOSw5IEwxNiw5IEwxNiw2IEwxNSw2IEwxNSw5IEwxMiw5IEwxMiw2IEwxMSw2IEwxMSw5IEw5LjUsOSBDOS4yMjQsOSA5LDkuMjI0IDksOS41IEw5LDExIEw2LDExIEw2LDEyIEw5LDEyIEw5LDE1IEw2LDE1IEw2LDE2IEw5LDE2IEw5LDE5IEw2LDE5IEw2LDIwIEw5LDIwIEw5LDIzIEw2LDIzIEw2LDI0IEw5LDI0IEw5LDI3IEw2LDI3IEw2LDI4IEw5LDI4IEw5LDI5LjUgQzksMjkuNzc2IDkuMjI0LDMwIDkuNSwzMCBMMTEsMzAgTDExLDMzIEwxMiwzMyBMMTIsMzAgTDE1LDMwIEwxNSwzMyBMMTYsMzMgTDE2LDMwIEwxOSwzMCBMMTksMzMgTDIwLDMzIEwyMCwzMCBMMjMsMzAgTDIzLDMzIEwyNCwzMyBMMjQsMzAgTDI3LDMwIEwyNywzMyBMMjgsMzMgTDI4LDMwIEwyOS41LDMwIEMyOS43NzYsMzAgMzAsMjkuNzc2IDMwLDI5LjUgTDMwLDI4IEwzMywyOCBMMzMsMjcgTDMwLDI3IEwzMCwyNCBMMzMsMjQgTDMzLDIzIEwzMCwyMyBMMzAsMjAgTDMzLDIwIEwzMywxOSBMMzAsMTkgTDMwLDE2IEwzMywxNiBMMzMsMTUgTDMwLDE1IEwzMCwxMiBMMzMsMTIgWiIvPiYjeGE7ICAgIDwvZz4mI3hhOzwvc3ZnPg==;allowArrows=0;connectable=0;moveable=0;resizable=0;" parent="jZVaUwOg5UY3L9NAnvdq-71" vertex="1">
          <mxGeometry width="30" height="30" as="geometry" />
        </mxCell>
        <mxCell id="PfW1Trj3aX01LcuOc2Ej-41" value="apex&#xa;Reverse Proxy" style="shape=image;editableCssRules=.*;image=data:image/svg+xml,PHN2ZyB2aWV3Qm94PSIwIDAgMjQgMjQiIHhtbG5zPSJodHRwOi8vd3d3LnczLm9yZy8yMDAwL3N2ZyI+PHN0eWxlPip7ZmlsbDojMDA5NjM5fTwvc3R5bGU+PHBhdGggZD0iTTEyIDBMMS42MDUgNnYxMkwxMiAyNGwxMC4zOTUtNlY2TDEyIDB6bTYgMTYuNTljMCAuNzA1LS42NDYgMS4yOS0xLjUyOSAxLjI5LS42MzEgMC0xLjM1MS0uMjU1LTEuODAxLS44MWwtNi03LjE0MXY2LjY2YzAgLjcyMS0uNTcgMS4yOS0xLjI3NCAxLjI5SDcuMzJjLS43MjEgMC0xLjI5LS42LTEuMjktMS4yOVY3LjQxYzAtLjcwNS42My0xLjI5IDEuNS0xLjI5LjY0NiAwIDEuMzguMjU1IDEuODMuODFsNS45NyA3LjE0MVY3LjQxYzAtLjcyMS42LTEuMjkgMS4yOS0xLjI5aC4wNzVjLjcyIDAgMS4yOS42IDEuMjkgMS4yOXY5LjE4SDE4eiIvPjwvc3ZnPg==;aspect=fixed;labelPosition=center;verticalLabelPosition=bottom;align=center;verticalAlign=top;" parent="PfW1Trj3aX01LcuOc2Ej-15" vertex="1">
          <mxGeometry x="990" y="155" width="50" height="50" as="geometry" />
        </mxCell>
        <mxCell id="PfW1Trj3aX01LcuOc2Ej-63" style="edgeStyle=orthogonalEdgeStyle;rounded=0;orthogonalLoop=1;jettySize=auto;html=1;entryX=0;entryY=0.5;entryDx=0;entryDy=0;" parent="PfW1Trj3aX01LcuOc2Ej-15" source="N08xS9JCno1T1F9PN58o-158" target="PfW1Trj3aX01LcuOc2Ej-41" edge="1">
          <mxGeometry relative="1" as="geometry">
            <Array as="points">
              <mxPoint x="750" y="247" />
              <mxPoint x="750" y="180" />
            </Array>
          </mxGeometry>
        </mxCell>
        <mxCell id="-xrmGZC775zc49n530f5-42" value="8" style="rounded=1;whiteSpace=wrap;html=1;fillColor=#007CBD;strokeColor=none;fontColor=#FFFFFF;fontStyle=1;fontSize=22;labelBackgroundColor=none;" parent="PfW1Trj3aX01LcuOc2Ej-15" vertex="1">
          <mxGeometry x="663" y="161" width="40" height="38" as="geometry" />
        </mxCell>
        <mxCell id="PfW1Trj3aX01LcuOc2Ej-78" value="6" style="rounded=1;whiteSpace=wrap;html=1;fillColor=#007CBD;strokeColor=none;fontColor=#FFFFFF;fontStyle=1;fontSize=22;labelBackgroundColor=none;" parent="PfW1Trj3aX01LcuOc2Ej-15" vertex="1">
          <mxGeometry x="123" y="210.5" width="40" height="38" as="geometry" />
        </mxCell>
        <mxCell id="N08xS9JCno1T1F9PN58o-135" value="thumbor" style="shape=image;verticalLabelPosition=bottom;labelBackgroundColor=default;verticalAlign=top;aspect=fixed;imageAspect=0;image=data:image/png,iVBORw0KGgoAAAANSUhEUgAAArMAAADUCAIAAAAA6zyHAAAAGXRFWHRTb2Z0d2FyZQBBZG9iZSBJbWFnZVJlYWR5ccllPAAAA2hpVFh0WE1MOmNvbS5hZG9iZS54bXAAAAAAADw/eHBhY2tldCBiZWdpbj0i77u/IiBpZD0iVzVNME1wQ2VoaUh6cmVTek5UY3prYzlkIj8+IDx4OnhtcG1ldGEgeG1sbnM6eD0iYWRvYmU6bnM6bWV0YS8iIHg6eG1wdGs9IkFkb2JlIFhNUCBDb3JlIDUuMy1jMDExIDY2LjE0NTY2MSwgMjAxMi8wMi8wNi0xNDo1NjoyNyAgICAgICAgIj4gPHJkZjpSREYgeG1sbnM6cmRmPSJodHRwOi8vd3d3LnczLm9yZy8xOTk5LzAyLzIyLXJkZi1zeW50YXgtbnMjIj4gPHJkZjpEZXNjcmlwdGlvbiByZGY6YWJvdXQ9IiIgeG1sbnM6eG1wTU09Imh0dHA6Ly9ucy5hZG9iZS5jb20veGFwLzEuMC9tbS8iIHhtbG5zOnN0UmVmPSJodHRwOi8vbnMuYWRvYmUuY29tL3hhcC8xLjAvc1R5cGUvUmVzb3VyY2VSZWYjIiB4bWxuczp4bXA9Imh0dHA6Ly9ucy5hZG9iZS5jb20veGFwLzEuMC8iIHhtcE1NOk9yaWdpbmFsRG9jdW1lbnRJRD0ieG1wLmRpZDoyOTgxQzY3QzNFMjA2ODExODA4M0JERDdGMjU0QkEwMSIgeG1wTU06RG9jdW1lbnRJRD0ieG1wLmRpZDpCNjNCNTkwNEEyNDYxMUUzQUYxNUNFNjM5NzVBNzkwNCIgeG1wTU06SW5zdGFuY2VJRD0ieG1wLmlpZDpCNjNCNTkwM0EyNDYxMUUzQUYxNUNFNjM5NzVBNzkwNCIgeG1wOkNyZWF0b3JUb29sPSJBZG9iZSBQaG90b3Nob3AgQ1M2IChNYWNpbnRvc2gpIj4gPHhtcE1NOkRlcml2ZWRGcm9tIHN0UmVmOmluc3RhbmNlSUQ9InhtcC5paWQ6MkI4MUM2N0MzRTIwNjgxMTgwODNCREQ3RjI1NEJBMDEiIHN0UmVmOmRvY3VtZW50SUQ9InhtcC5kaWQ6Mjk4MUM2N0MzRTIwNjgxMTgwODNCREQ3RjI1NEJBMDEiLz4gPC9yZGY6RGVzY3JpcHRpb24+IDwvcmRmOlJERj4gPC94OnhtcG1ldGE+IDw/eHBhY2tldCBlbmQ9InIiPz4CnNK9AAAY2UlEQVR42uzdf0iV5//H8e3D/tHC/eF0iGg6Qp0SoQlCyWwEugoDxf2joFgrKJk5aMyZDNrKGTXSwAKdRoEtKBQa/ZICazYQTGmheSTyFxGZ/tEw/dPPG+8v53O+Hs/xnHNd97nvc3w+/ohQz3Wu+76v+7pe1/3zw6WlpQ8AAACW/YdVAAAASAYAAIBkAAAASAYAAIBkAAAASAYAAIBkAAAASAYAAIBkAAAASAYAAIBkAAAASAYAAIBkAAAASAYAAIBkAAAASAYAAIBkAAAASAYAAIBkAAAASAYAAIBkAAAASAYAAIBkAAAASAYAAIBkAAAASAYAAAAkAwAAQDIAAAAkAwAAQDIAAAAkAwAAQDIAAAAkAwAAQDIAAAAkAwAAQDIAAAAkAwAAQDIAAAAkAwAAQDIAAAC28hGrYIW+vr6ZmRlTvyIvLy86OppVDbB7AiSDEHD79u2enh5TvyIjI4OuB2D3BOyJswkAAIBkAAAASAYAAIBkAAAASAYAAIBkAAAASAYAAIBkAAAASAYAAIBkAAAASAYAAIBkYK34+HhWAsDuCaxbHy4tLbEW3E1PT09OTr58+XJ0dFT7G1w6OztTU1NZyQC7J0AyCOGeaHZ2dnx8fGBgYHBwUP5P1wOwewIkg2Ds4RcvXlQp4fDhwwkJCaZW0uFwlJWV0fUANtTV1dXQ0MDuCaj4yFa1WVhYUDw2WFFRwUYFACBgXIEIAABIBgAAgGQAAABIBgAAgGQAAABIBgAAgGQAAABIBgAAgGQAAABIBgAAgGQAAABIBgAAgGQAAABIBgAAgGQAAABIBgAAwO4+YhXYnMPhmJiYePPmzejoqPtv09LSNm7cmJGRkZiYGBERwepaD6anpycnJ2dmZsbGxv7991/3P8jOzo6Njd20aVNCQoKpLXN4eHh+fn7VlhkfHx8XFxfGLdP7jmksfnJysix+dHR0SCzR3Nzc7OysbFP5v6emJaKiolJSUuQ/snE/+eSTUFk6xTXz/Pnzly9fum9r2dc2bNiQlJSUmppKMgh8X/L+B7KnKX6F7yXYvMPqW3bjxg3vf9bT0+P8f86yvXv3Ku6rMvAsLCyYsVCRkZH+jlXmVcb3NrBmu1XhY9+6uLj45MkTaRK9vb3SffvYKqTwwsLC7du3Z2Zm6uoiBwYGHj586Nrw1iTNct++fdKHhsEo4uOO6UrG0R07dmjcCnpT5sjIyNDQkC/tylMD3rlzpyxaenq6GUnU2r1P1sz169e9tHbnr+rq6oqLi8MmGXy4tLQUtC+TrsE+S97Z2RlYypOWWlZWZtJXywBw586d1tbWwPZSQ35+/p49e3JzcwP7uDRxv/p9vyrW0NBgk8r43gZMbbfV1dXl5eXeB+Nr1679+eefKk1CBqeSkpLdu3cHnIal2d+/f//SpUuKDaCiosLU2VVXV5e/bczHViElSyCQybTKOFRaWqqe3bUkPIl3iovjqZnl5eVpXECr9j7JTBcvXvS982lqagq4y13vxwzg3b17986dO6cyADhjrAhCLwx1qx6LdsbEjo4OxcHYIAOAjJcyEnz//ff+zlxlFGlra/Nrluy9ZcrgcfDgwRA6fiCp6MSJE+qDqOza55dVVlbu37/fkmOWsizd3d1atqanZiZkExcVFdm/8/G090lXfPz4cb+KiomJCad+iSsQbUHyaVVVlbRF9Vjg2guXlZVduXJFBhjWcCjGROlbtcQC145bhuSWlhbfm4RUQ1qR3oFESpMyh4aG7L8VZEXJHiS11Tu3ls0qG1fWbZA7mbq6Ou1b08smlq+TLw25XU92EH9jwQfLB4RIBtCpr69P+uv+/n4zCpcJyrFjx2Tax3q2p3fv3rmPRo2NjXpj4ophSZrEmuHA1GpImdLmZdC1eSyQFSV7kBmFyxqQdStrOAjB3cg3kkXMOzHnaXIiX2rnyYn73iexILA4HmZXYpIMLNbV1VVTU2PSGGCQzCH5PRTD+3qwIhFKhpPRyOxZnXyp93BgDIpmV0MGXemI7bldZH+RNWBSXnedW5sd3B0Ox4EDB0zKNz5uZamAqRcS6tr7Ao4FYXbAgGRgMWmIildL+TVFIxzYnGwgyXBmj0ZrhgOphkz1glMN6YhtGA5ktfzwww9B2xDmBXfjZJDeUyEBkApINWQWZOe9r6+vL+CTd1lZWSQDaDtaoPcs8prhQDo7rjmwIWOjyMRR0pupR4/cx6SOjo5VB8VgVkP2AluNGQsLC5KZgjmaGsFd+74Z2Ply88gsyM6HiGpqagL+eFRUFMkAevJpcI4WrEjuv/zyCyvfbqampmRU+Omnn4I5HjtHZdcrAY2TCMGfYsq+YJ+jzb///ntwjhasCAe+XPzhVywI5sTD9/Zmt3BgNLzGxkaVQoxHP5EMoGRiYuLkyZOWfHVPT4/Nj+mtT83NzcEfjQxnzpxxDkgdHR1WVePEiRM2OaBl1RqQ75VmEMaxwLbhQOZpVm10kgH+R8tDC1TmZ9yqYCvm3V/ui7GxsTt37nyw/Lg3C4cTZzXWM2kG6rcy2jkW2DAcLCwsqM/TMjIySAZQZWEsMLS1tbEVbDUeWFuB1tZWCYs//vijtdUgsxrTBpWVIMHC5rHAGQ5scvBSmr3lHTLJAHYZirhPAa5R9dtvv7VD/3jr1i22xW+//RbYZx0Oh60uOVwzCNrhaVdamn34PWqWZLBO3bx509Ov4uPj7VNPO1Qm/C4vcmf5jW2Gq1evcvtMT09PANdjyno7evRoaC2pzNfX3NzrYe+zId6bsE5dunTJ05Pbq6qq5Fejo6PPnj3rX2ZhPY3KTE1NDQ8PDwwMBPkhbq7DldRhYmLixYsXIyMjXK9k3gTuyZMn4fRmmsCcOHFCWp1fH2lubg65o+JSYal2bW1tSO99OTk5JAOEj0ePHhUUFKz6K0kMmcvKy8tlt7Q2JUhlUpcVFxcbt7dJH6Hy3liVOjjXmFGNN2/eyMqxJK+Eqz/++INkMDY21tfX5/t6kN3B8qtVAiPVln3K+1u+PO19EhRevXpl+d738ccfkwyUyJzP+x+Y+oJjm3O+5jwpKcn1reHT09MLCwsyY37w4IHegfnmzZuekoGnlGCH92g7+4iioiLF1qJeDeP/slrMeDpFzrItW7ZERkY6v2tubk7ykBntwXvjLCws3Lp1a0xMTGJionGoyaSaSFESRi15D2HAm8OIqnrHZr8S0pkzZ/Qu6a5duzIyMlb0pcbcXba43tc3S+Xb29v92uIrgoK14cBWp185ZhA+8vPz9+zZ46kXSEhIMPYEmTFLcrp8+bKu3cC2XTAqKyv37dtnbPoVopc528P58+dNzQcpKSlHjhxZtXGuqInGlmm3Ewq+bA4ZpQ4ePHjt2jVdtwbIZpW16ss8p6urS9c47f3V7a5H7zS2PeOGVSkzRPfWuLi48OuCuALR4uMETU1NMt30sR+UfVL+WD6iqwLSBbMV7DYx7e7urqqqWnUccm8PLS0tMm6ZVJm6urqrV6/60jiNlqmrJk+fPg3FzSERQf5S/l7XRXP3799f828k3Le2tmr5ulOnTslG9PGYq9H2pIVo+WpZhNC98jQ2NpZjBtDZ6Zw9ezaAKbv01BIOVJ7y7doFc07XVnNTGVr8/ZTxEb13sUtmbWtr82U4NKMmjx8/DmA9mLE5PF2l64WstPb2di3vafRymbCTzLa1XG0jXUoAXYFM9GVcVO+LZBFseNhA9oKsrKyoqCjXqOd+TnzTpk0kA1g5BriGAwn46vcuj4yMsC3CoEnI+CGjqa5DyoHFAmc4UL96XBbE8vNcKptDal5bW6vl/VhrnljRcnFDYLFA70SltbXVJslA2n9paemXX3656i4Qumc9/MLZBGuOFqhPiQoKCtQPWnL3XXgkRRmKjhw5oqsyzc3NgcUCwzfffKNeh6mpqZDeQ2UF1tfXq9ekr6/P+2/V42B1dbXigUP5uBSiftjA+8IGR11dXXd3d3l5ucouQDJAgLuilnK0DAb2ecfdeiaTfsUSpHeWuY6WnlHx7p7MzEz1zDoxMWHhlPHnn39WL0e2SH5+vmIh3g8JqA+lsrBff/21+sJKIerNz9pkIPWXTFBcXMxF2SSD0KZlMFhYWGBNWk5LZ1RYWKhYgozou3fvVq/JV199pVjC+/fvrdoWhw4dct4zrKiiokK9EE+PEF5cXFQ/lVBfX6+l7Ukh6sdIZHGsenGGyhk0kgFsR30wGB8fZzWGh+3bt9sko2zZskWxhDWffWIeje/NS01NVT988uzZs1V/rn5jkQyHGi9AlqLUF/b58+eWbHTFM2gkA9jL1q1bFUuYn59nNYaHxMRExRJ0XcOYlpbG5tB12GB0dHTVn6sfez906JDehS0pKVEswZITCtXV1eH3SiSSwbqmfsOMp34HIUfXMXA7HHh49+5deGwU9ceGenp+VG9vr2LJeXl5ehdWvUBLnvGs5UoLkgFshCNgcKV+yZtNahI2d81IXFN/4477O9PlJ4q3REqttEdJKVC9BQb/mmguOSQZhCEtV6QDMIl6MpicnFzxE/UnkezatcuMhVU/bGDhbSkgGYSPrKwslY8PDg6yDgHzqF+POTMzs+InL168UCxT44WWrtLT0xVLUF80kAygKuTe6Q4v7PAyTLvVxHLqV4a636nx6tUrxTJNuuYuISFB8SgmD2YlGQBAmDPjylDF11qqn+DwQvEoJg9mJRkAQPhTvC5vRQ5Qfy2hqVcuq9+zGrrvXSQZAAB8EhUVpbE09ZdK6HpP9Ko2btxo+QKCZAAAtqY+EuudRsfGxpq3sCZd2wiSAQBg9Wn027dvFUuLiYmx88Jy4yLJAADCXHJyssbS3G9itJXIyEjFEix8nxZIBgAQGoNlCOHBrCQDAABAMgAAhCweqQ6SAQDgf+zzWk6QDAAA1nN/eSNAMgCA9WthYYGVAJIBAAAgGQAAgsvhcLASSAYAgOAx9dnGLCBIBgAQYtSfbWzzxw/b/OHNJAMAgKrh4WFb1cfUxw/bbWFBMgCAMOT6bKLU1FTF0sbGxsyr6vz8vGIJiYmJbHGSAQCEs9evXyuWoPfZRKY+z2B0dFSxhIiICNoMyQAAwtmrV6/0Fpifn6/y8f7+fvMWdnBw0MJFA8kAAEJAT0+P3sEyPj5esUom3Vs4PT09OzurUoL6ooFkAAC2pn7oPioqasVPNm/erFimSdcJjoyMKJagvmggGSCoFA/0Kc6cgFA0OTmpWEJKSsqKn6SnpyuW+eDBAzMWdmhoSLEE9UUDyQAhZnFxkZWAdaWvr0+xhOTk5BU/SUhIUHyTcn9//9zcnPa9+8aNGyolyELJotFmSAZYX6amplgJWFd6e3sVS1j1Lr6dO3cqFvvw4UO9S/ro0SPFEtQXCiQDBFt2drZiCTwFBevtgIHiFXkyjV71lsXc3FzFuinO791dvnxZsQT1hQLJYBW8XdTmTDq7CdizD7l9+7ZJ0+ht27Ypljw2NqZ+psM1A6k/QEl9oaDFR2G2POPj45mZmWxXk2RkZCiWYJzd1PLYFps/+x0h6syZM+3t7VoetuNwONSvuvXUoUkNS0pKFOf9J0+e7O7uVl/YxcXFCxcuKBYiixNOzzj6sHrS7K9YOr+JYwa+pmC6NvMoXvRkuHbtmnoh09PTx48fZ4vAjD6ko6NDS1Hnz59XL8TLKbyCggLFwmdnZ69fv65eSSlEve9VXxyEZzJQfx64+sU+8ELm+urh4NKlS4p3eA8NDR08eJDNAZNIE+3q6lIs5MqVK+qPGszJyfFygC0zM9P9hsYA4oviOQX5uHoGkgXhcC/JwCwSge/du8d2NY+Wi4cbGxsDvn1RumyJBYpXdQHeNTQ0tLS0WDtYin379nn/gyNHjqh/S01NTcDhQD4oH1evQ0VFBa2OZOAtOSqWcO7cOVPfF7LOacn1Mpc6duyYv7dTOxyOqqoq6bLZCgjOkQNpb/52JhJ5JVJoGSw/8OFuoG3btmk5xycVDuAwiXxEy5LKInzxxRc0OZKBR0lJSeqHDWROueaRA5MeGx72dD2hTMJBWVmZ9CxrHjyQP5B5ifTR8vemvgkGcG+lRUVFjY2NvjzaTxqqtGf5e4kUWr69pKRkzWt1IyIi6uvrtXydZO7S0lIfDx7ICtEY07/77jver2grtrs3IS0tTf1qXgkHx48fv3z58o4dO+Li4lx/NTAw8O7dO2OAkf8HUPg6vzEyISEhJSVFy5WespmkZ2ltbd25c6eUueLGh+Hh4devX4+MjJiXBnRtSvUX0usSTjWRgdYmo8WNZTKvNRpqcnJyZGSk87dv376dmZmRzkT7w78lZPjyZ7m5ubp2SSmkpqZGlrSwsHDr1q0xMTGu134Zb0t69uzZ3bt3NV7rLZXn2kO7+XBpaclWFdJ11soXf/31ly9dj/RQU1NTMlDJzvDPP/9o2SVyln322Weff/55ALfwORwOoz69vb1azrg767Np06Y1n0565coVLedQ7UB6JYmPmzdvTk9P9/2xrNIkRkdHx8fHZTwYHBzUsgny8/MlFm/ZskX+9WtEnJube/78+dOnTx8/fqylcUpNsrOzJaj5e0WwjByS5GQ2qbFZynbxa+vIrD08zjfJVvB9QaRDKCsrC9El7ezs9KulSYOXDtnY+3SlMaOlSRjypQP0dXAN5bsWbZcMZKsHLT96aZFGH/fixQtT56yug5P3RulMJ2ZMTVaQGUNWVpaMDTI3WnWUCuY2Cibngq86KErnOzExIcOernSoEhy1p4GAU4IRUoPQLF3DU2Jioqc8HTbJwN/xMkTzenV1dXl5ue9zoSDsfc5mLx2gl5ZGMgi2qqqq4JxO9rTv1dXVWfVWQPnq4uJi95+rP5ZY71qycBUFjevJJlutf0smiKtOYW24p4RHMvDrgIFz8nDgwIHQeqCLTIp8eaiUhXtfABEtPJKBHe9alNlScL6IZ/gHjFuMAPMcPnzY34/I+Hr69OnQWkypMBce2pMdk8HevXvZMDYnIVqmNawHQLu6urrATnXLp5qamkJlMaWqvHCZZOCH6Ojo4Iw6gd2bgICnNdqpP/0CcNLyYABFOTk5q54l8VFubm51dbX9V7VUktcqkgz8xsFq+5O8b20fJP346dOnCQfQJSsrq7Ky0tomXVtbq1hIeXm5tUuxJqmeL1cdgmSwUmpqaklJidnfMjg4SAtQ7IOCdlGIu/r6ekkn6o/GAgzZ2dn79++3sEn/+uuvWg6wV1VV2TYcSMWkejQ2kkGAjh49avbBPZ69r+7s2bOWHINtamoyjkampaWxFaBFbGxsRESEzNqtatIaXykko29dXZ3d1rBUiVhAMlAiu2hzc7PZ38IbFtQ3U1tbW5B7UmcsEBs3bmQrQIuYmJgPlk+TWdukdSkuLg7+gngi1ZDKqFxCAZLB/0lNTTX7Utt1/qhjLYLck67oQ1c8UxlQ6XCC36SNIdOky/EyMzM7Ozstv40oJydHqsFLlkkG2sgOY2o4mJiYoBFoCQfd3d1mn6CVPlS+hUuaYVLrcs+7Zl/fKruMfIupQ2Z0dHRDQ8OpU6csOXggXypf3dLSEvCTBEEy8BgOZDwwaRd9//49jUCLiIgI2f/NO7VZUlIizcD9+qzAHk8GrJCVleWed9vb2827FFp2FtllgnNPf0FBgew+Qb6ZqLKyUr6UtyWRDEycksouasao8/r1axqBRsXFxffu3dN79FJK6+zsrK2t9fS4NJucSUVIW/VSVuOCRO0HD2TIlN0kyCfdZVnKy8vle6UjNXWXkcIlgsgXVVVV8YjDEPVRqFRUWpjsSHl5ebdu3bp69aquN7lt3ryZRqCXcfTy8OHDN2/eVHxRvUzXioqK1jwqILO9sH+JA8z26aefevpVZmam9Dl9fX0XLlxQeTGBDJmlpaV79+618NC6fHXxsqGhIRm8db0V07nD5i6jOYU6O75RyRfSrP/+++8AXjQX8LtuEYDFxcUnT574+0pA2UYSAbOzszk3CbtxOBz9/f137971vT0bb86UPseel+A535YZ2PvEnT0qFxiuHFx516KF5ubmpDVPTEx4uWJgw4YNSUlJEtgZaeyzpZyPpo6Pj4+Li5P/JCcnyzbiUeoIldQ7NTVltOf5+fnR0VHj5zJMGnfSSnuOjIwMretgjIV6+/btzMyM8RPXR8g7F40elWMGAABgHfkPqwAAAJAMAAAAyQAAAJAMAAAAyQAAAJAMAAAAyQAAAJAMAAAAyQAAAJAMAAAAyQAAAJAMAAAAyQAAAJAMAAAAyQAAAJAMAAAAyQAAAJAMAAAAyQAAAJAMAAAAyQAAAJAMAAAAyQAAAJAMAAAAyQAAAJAMAAAASAYAAIBkAAAASAYAAIBkAAAASAYAAIBkAAAASAYAAIBkAAAASAYAAIBkAAAASAYAAIBkAAAASAYAAIBkAAAASAYAAIBkAAAASAYAAIBkAAAASAYAAIBkAAAASAYAAIBkAAAASAYAAIBkAAAASAYAAIBkAAAAQDIAAAD/z38FGAC53JTVpMzfSgAAAABJRU5ErkJggg==;" parent="PfW1Trj3aX01LcuOc2Ej-16" vertex="1">
          <mxGeometry x="506.51" y="500" width="81.49" height="25" as="geometry" />
        </mxCell>
        <mxCell id="PfW1Trj3aX01LcuOc2Ej-42" style="edgeStyle=orthogonalEdgeStyle;rounded=0;orthogonalLoop=1;jettySize=auto;html=1;entryX=0;entryY=0.5;entryDx=0;entryDy=0;" parent="PfW1Trj3aX01LcuOc2Ej-4" source="N08xS9JCno1T1F9PN58o-127" target="PfW1Trj3aX01LcuOc2Ej-41" edge="1">
          <mxGeometry relative="1" as="geometry" />
        </mxCell>
        <mxCell id="N08xS9JCno1T1F9PN58o-127" value="app&lt;br&gt;Web App" style="shape=image;html=1;verticalAlign=top;verticalLabelPosition=bottom;labelBackgroundColor=#ffffff;imageAspect=0;aspect=fixed;image=https://cdn0.iconfinder.com/data/icons/long-shadow-web-icons/512/angular-symbol-128.png" parent="PfW1Trj3aX01LcuOc2Ej-4" vertex="1">
          <mxGeometry x="873" y="262" width="50" height="50" as="geometry" />
        </mxCell>
        <mxCell id="-xrmGZC775zc49n530f5-20" value="" style="edgeStyle=orthogonalEdgeStyle;rounded=0;orthogonalLoop=1;jettySize=auto;html=1;" parent="PfW1Trj3aX01LcuOc2Ej-4" source="N08xS9JCno1T1F9PN58o-158" target="N08xS9JCno1T1F9PN58o-127" edge="1">
          <mxGeometry relative="1" as="geometry">
            <mxPoint x="716" y="287" as="sourcePoint" />
            <mxPoint x="1221" y="350" as="targetPoint" />
          </mxGeometry>
        </mxCell>
        <mxCell id="dtOV9YOIjFEI8-B-jVSO-3" style="edgeStyle=orthogonalEdgeStyle;rounded=0;orthogonalLoop=1;jettySize=auto;html=1;exitX=1;exitY=0.5;exitDx=0;exitDy=0;entryX=0;entryY=0.5;entryDx=0;entryDy=0;" parent="PfW1Trj3aX01LcuOc2Ej-4" source="N08xS9JCno1T1F9PN58o-158" target="N08xS9JCno1T1F9PN58o-127" edge="1">
          <mxGeometry relative="1" as="geometry" />
        </mxCell>
        <mxCell id="-xrmGZC775zc49n530f5-23" style="edgeStyle=orthogonalEdgeStyle;rounded=0;orthogonalLoop=1;jettySize=auto;html=1;entryX=0;entryY=0.75;entryDx=0;entryDy=0;" parent="PfW1Trj3aX01LcuOc2Ej-4" source="N08xS9JCno1T1F9PN58o-135" target="N08xS9JCno1T1F9PN58o-127" edge="1">
          <mxGeometry relative="1" as="geometry">
            <Array as="points">
              <mxPoint x="783" y="553" />
              <mxPoint x="783" y="300" />
            </Array>
          </mxGeometry>
        </mxCell>
        <mxCell id="PfW1Trj3aX01LcuOc2Ej-43" style="edgeStyle=orthogonalEdgeStyle;rounded=0;orthogonalLoop=1;jettySize=auto;html=1;entryX=0;entryY=0.5;entryDx=0;entryDy=0;" parent="PfW1Trj3aX01LcuOc2Ej-4" source="dtOV9YOIjFEI8-B-jVSO-10" target="PfW1Trj3aX01LcuOc2Ej-41" edge="1">
          <mxGeometry relative="1" as="geometry" />
        </mxCell>
        <mxCell id="dtOV9YOIjFEI8-B-jVSO-10" value="api-docs" style="shape=image;verticalLabelPosition=bottom;labelBackgroundColor=default;verticalAlign=top;aspect=fixed;imageAspect=0;image=https://redocly.com/assets/redoc.7e2e6d1e039d5dd8004c5aa0e5eaa38213714d3db9211389368794386b4d5004.3ac8e79b.svg;" parent="PfW1Trj3aX01LcuOc2Ej-4" vertex="1">
          <mxGeometry x="873" y="131" width="50" height="50" as="geometry" />
        </mxCell>
        <mxCell id="PfW1Trj3aX01LcuOc2Ej-44" style="edgeStyle=orthogonalEdgeStyle;rounded=0;orthogonalLoop=1;jettySize=auto;html=1;" parent="PfW1Trj3aX01LcuOc2Ej-4" source="PfW1Trj3aX01LcuOc2Ej-41" target="PfW1Trj3aX01LcuOc2Ej-10" edge="1">
          <mxGeometry relative="1" as="geometry" />
        </mxCell>
        <mxCell id="PfW1Trj3aX01LcuOc2Ej-10" value="ALB" style="shape=image;verticalLabelPosition=bottom;verticalAlign=top;imageAspect=0;aspect=fixed;image=data:image/svg+xml,PD94bWwgdmVyc2lvbj0iMS4wIiBlbmNvZGluZz0iVVRGLTgiPz4KPHN2ZyB3aWR0aD0iNjRweCIgaGVpZ2h0PSI2NHB4IiB2aWV3Qm94PSIwIDAgNjQgNjQiIHZlcnNpb249IjEuMSIgeG1sbnM9Imh0dHA6Ly93d3cudzMub3JnLzIwMDAvc3ZnIiB4bWxuczp4bGluaz0iaHR0cDovL3d3dy53My5vcmcvMTk5OS94bGluayI+CiAgICA8dGl0bGU+SWNvbi1BcmNoaXRlY3R1cmUvNDgvQXJjaF9FbGFzdGljLUxvYWQtQmFsYW5jaW5nXzQ4PC90aXRsZT4KICAgIDxnIGlkPSJJY29uLUFyY2hpdGVjdHVyZS80OC9BcmNoX0VsYXN0aWMtTG9hZC1CYWxhbmNpbmdfNDgiIHN0cm9rZT0ibm9uZSIgc3Ryb2tlLXdpZHRoPSIxIiBmaWxsPSJub25lIiBmaWxsLXJ1bGU9ImV2ZW5vZGQiPgogICAgICAgIDxnIGlkPSJJY29uLUFyY2hpdGVjdHVyZS1CRy80OC9OZXR3b3JraW5nLUNvbnRlbnQtRGVsaXZlcnkiIGZpbGw9IiM4QzRGRkYiPgogICAgICAgICAgICA8cmVjdCBpZD0iUmVjdGFuZ2xlIiB4PSIwIiB5PSIwIiB3aWR0aD0iNjQiIGhlaWdodD0iNjQiPjwvcmVjdD4KICAgICAgICA8L2c+CiAgICAgICAgPHBhdGggZD0iTTIzLjUsNDIgQzE3LjcxLDQyIDEzLDM3LjI5IDEzLDMxLjUgQzEzLDI1LjcxIDE3LjcxLDIxIDIzLjUsMjEgQzI5LjI5LDIxIDM0LDI1LjcxIDM0LDMxLjUgQzM0LDM3LjI5IDI5LjI5LDQyIDIzLjUsNDIgTTQ4LDQ4IEM0OCw0OS42NTQgNDYuNjU0LDUxIDQ1LDUxIEM0My4zNDYsNTEgNDIsNDkuNjU0IDQyLDQ4IEM0Miw0Ni4zNDYgNDMuMzQ2LDQ1IDQ1LDQ1IEM0Ni42NTQsNDUgNDgsNDYuMzQ2IDQ4LDQ4IE00NSwxMyBDNDYuNjU0LDEzIDQ4LDE0LjM0NiA0OCwxNiBDNDgsMTcuNjU0IDQ2LjY1NCwxOSA0NSwxOSBDNDMuMzQ2LDE5IDQyLDE3LjY1NCA0MiwxNiBDNDIsMTQuMzQ2IDQzLjM0NiwxMyA0NSwxMyBNNDgsMjkgQzQ5LjY1NCwyOSA1MSwzMC4zNDYgNTEsMzIgQzUxLDMzLjY1NCA0OS42NTQsMzUgNDgsMzUgQzQ2LjM0NiwzNSA0NSwzMy42NTQgNDUsMzIgQzQ1LDMwLjM0NiA0Ni4zNDYsMjkgNDgsMjkgTTM1LjkwMSwzMyBMNDMuMTAyLDMzIEM0My41NjUsMzUuMjc5IDQ1LjU4NiwzNyA0OCwzNyBDNTAuNzU3LDM3IDUzLDM0Ljc1NyA1MywzMiBDNTMsMjkuMjQzIDUwLjc1NywyNyA0OCwyNyBDNDUuNTg2LDI3IDQzLjU2NSwyOC43MjEgNDMuMTAyLDMxIEwzNS45NzUsMzEgQzM1LjkxNiwyOS41NDEgMzUuNjE0LDI4LjE0NiAzNS4wOTYsMjYuODU2IEw0Mi43OTksMjAuNDY3IEM0My40NjYsMjAuNzk3IDQ0LjIwNiwyMSA0NSwyMSBDNDcuNzU3LDIxIDUwLDE4Ljc1NyA1MCwxNiBDNTAsMTMuMjQzIDQ3Ljc1NywxMSA0NSwxMSBDNDIuMjQzLDExIDQwLDEzLjI0MyA0MCwxNiBDNDAsMTcuMjI0IDQwLjQ1OSwxOC4zMzEgNDEuMTkxLDE5LjIwMSBMMzQuMTcyLDI1LjAyNCBDMzEuOTc3LDIxLjQyIDI4LjAyMSwxOSAyMy41LDE5IEMxNi42MDcsMTkgMTEsMjQuNjA3IDExLDMxLjUgQzExLDM4LjM5MyAxNi42MDcsNDQgMjMuNSw0NCBDMjcuNzQzLDQ0IDMxLjQ5Myw0MS44NzEgMzMuNzU0LDM4LjYyOSBMNDEuMTkxLDQ0Ljc5OSBDNDAuNDU5LDQ1LjY2OSA0MCw0Ni43NzYgNDAsNDggQzQwLDUwLjc1NyA0Mi4yNDMsNTMgNDUsNTMgQzQ3Ljc1Nyw1MyA1MCw1MC43NTcgNTAsNDggQzUwLDQ1LjI0MyA0Ny43NTcsNDMgNDUsNDMgQzQ0LjIwNiw0MyA0My40NjYsNDMuMjAzIDQyLjc5OSw0My41MzMgTDM0Ljc3LDM2Ljg3MyBDMzUuMzQ0LDM1LjY3MyAzNS43MzYsMzQuMzczIDM1LjkwMSwzMyIgaWQ9IkVsYXN0aWMtTG9hZC1CYWxhbmNpbmdfSWNvbl80OF9TcXVpZCIgZmlsbD0iI0ZGRkZGRiI+PC9wYXRoPgogICAgPC9nPgo8L3N2Zz4=;points=[[0,0],[1,0],[1,1],[0,1],[0,0.167],[0.167,0],[1,0.167],[0.167,1],[0,0.333],[0.333,0],[1,0.333],[0.333,1],[0,0.5],[0.5,0],[1,0.5],[0.5,1],[0,0.667],[0.667,0],[1,0.667],[0.667,1],[0,0.833],[0.833,0],[1,0.833],[0.833,1]];labelBackgroundColor=default;" parent="PfW1Trj3aX01LcuOc2Ej-4" vertex="1">
          <mxGeometry x="1193" y="195.50000000000006" width="50" height="50" as="geometry" />
        </mxCell>
        <mxCell id="-xrmGZC775zc49n530f5-43" value="7" style="rounded=1;whiteSpace=wrap;html=1;fillColor=#007CBD;strokeColor=none;fontColor=#FFFFFF;fontStyle=1;fontSize=22;labelBackgroundColor=none;" parent="PfW1Trj3aX01LcuOc2Ej-4" vertex="1">
          <mxGeometry x="333" y="350" width="40" height="38" as="geometry" />
        </mxCell>
        <mxCell id="PfW1Trj3aX01LcuOc2Ej-47" value="Route 53" style="shape=image;verticalLabelPosition=bottom;verticalAlign=top;imageAspect=0;aspect=fixed;image=data:image/svg+xml,PD94bWwgdmVyc2lvbj0iMS4wIiBlbmNvZGluZz0iVVRGLTgiPz4KPHN2ZyB3aWR0aD0iNjRweCIgaGVpZ2h0PSI2NHB4IiB2aWV3Qm94PSIwIDAgNjQgNjQiIHZlcnNpb249IjEuMSIgeG1sbnM9Imh0dHA6Ly93d3cudzMub3JnLzIwMDAvc3ZnIiB4bWxuczp4bGluaz0iaHR0cDovL3d3dy53My5vcmcvMTk5OS94bGluayI+CiAgICA8dGl0bGU+SWNvbi1BcmNoaXRlY3R1cmUvNDgvQXJjaF9BbWF6b24tUm91dGUtNTNfNDg8L3RpdGxlPgogICAgPGcgaWQ9Ikljb24tQXJjaGl0ZWN0dXJlLzQ4L0FyY2hfQW1hem9uLVJvdXRlLTUzXzQ4IiBzdHJva2U9Im5vbmUiIHN0cm9rZS13aWR0aD0iMSIgZmlsbD0ibm9uZSIgZmlsbC1ydWxlPSJldmVub2RkIj4KICAgICAgICA8ZyBpZD0iSWNvbi1BcmNoaXRlY3R1cmUtQkcvNDgvTmV0d29ya2luZy1Db250ZW50LURlbGl2ZXJ5IiBmaWxsPSIjOEM0RkZGIj4KICAgICAgICAgICAgPHJlY3QgaWQ9IlJlY3RhbmdsZSIgeD0iMCIgeT0iMCIgd2lkdGg9IjY0IiBoZWlnaHQ9IjY0Ij48L3JlY3Q+CiAgICAgICAgPC9nPgogICAgICAgIDxwYXRoIGQ9Ik0zOC43NjEsMzIuNTI2NTA3MyBDMzkuMzM2LDMzLjA1Nzc2NjkgMzkuNjIzLDMzLjc3MDExNDkgMzkuNjIzLDM0LjY2MzU1MTUgQzM5LjYyMywzNS42MzcwMjcyIDM5LjI3NCwzNi40MTM0MDY2IDM4LjU3NCwzNi45OTM2OTAxIEMzNy44NzUsMzcuNTc0OTc0MSAzNi45MzUsMzcuODY1MTE1OSAzNS43NTQsMzcuODY1MTE1OSBDMzQuODIyLDM3Ljg2NTExNTkgMzMuODk5LDM3LjY2NjAxODYgMzIuOTg2LDM3LjI2OTgyNSBMMzIuOTg2LDM2LjA3ODI0MjggQzM0LjA2NywzNi40MzU0MTczIDM0Ljk5LDM2LjYxMzUwNDMgMzUuNzU0LDM2LjYxMzUwNDMgQzM2LjUwOCwzNi42MTM1MDQzIDM3LjA4OCwzNi40NDU0MjIyIDM3LjQ5NSwzNi4xMDgyNTc0IEMzNy45MDMsMzUuNzcxMDkyNyAzOC4xMDYsMzUuMjg4ODU3MSAzOC4xMDYsMzQuNjYzNTUxNSBDMzguMTA2LDMzLjQ2Mjk2NDkgMzcuMzQ3LDMyLjg2MTY3MSAzNS44MjgsMzIuODYxNjcxIEMzNS4zNTIsMzIuODYxNjcxIDM0Ljg4MSwzMi44ODY2ODMzIDM0LjQxNCwzMi45MzU3MDcyIEwzNC40MTQsMzEuOTUzMjI3MSBMMzcuNTQsMjguNTQzNTYxMSBMMzMuMTM0LDI4LjU0MzU2MTEgTDMzLjEzNCwyNy4zMjE5NjQxIEwzOS4xOTMsMjcuMzIxOTY0MSBMMzkuMTkzLDI4LjQ5ODUzOTEgTDM2LjEyNiwzMS43NDUxMjU1IEMzNi4xNzYsMzEuNzM1MTIwNiAzNi4yMjUsMzEuNzMwMTE4MSAzNi4yNzUsMzEuNzMwMTE4MSBMMzYuNDI0LDMxLjczMDExODEgQzM3LjQwNywzMS43MzAxMTgxIDM4LjE4NSwzMS45OTYyNDgyIDM4Ljc2MSwzMi41MjY1MDczIE0zMC4xMTQsMzIuMjY2MzgwMiBDMzAuNzE4LDMyLjgzMjY1NjkgMzEuMDIxLDMzLjYxMTAzNzIgMzEuMDIxLDM0LjYwMzUyMjIgQzMxLjAyMSwzNS41NzY5OTc5IDMwLjY2OCwzNi4zNjMzODIxIDI5Ljk2NCwzNi45NjQ2NzU5IEMyOS4yNTksMzcuNTY0OTY5MiAyOC4zMzEsMzcuODY1MTE1OSAyNy4xODEsMzcuODY1MTE1OSBDMjYuMTY5LDM3Ljg2NTExNTkgMjUuMjIxLDM3LjY2NjAxODYgMjQuMzM4LDM3LjI2OTgyNSBMMjQuMzM4LDM2LjA3ODI0MjggQzI1LjQ0LDM2LjQzNTQxNzMgMjYuMzgyLDM2LjYxMzUwNDMgMjcuMTY2LDM2LjYxMzUwNDMgQzI3LjkyLDM2LjYxMzUwNDMgMjguNDk4LDM2LjQ0MzQyMTIgMjguOSwzNi4xMDEyNTQgQzI5LjMwMiwzNS43NTgwODYzIDI5LjUwMiwzNS4yNjQ4NDUzIDI5LjUwMiwzNC42MTg1Mjk1IEMyOS41MDIsMzMuOTE0MTg1MyAyOS4zMTUsMzMuNDAyOTM1NSAyOC45MzcsMzMuMDg0NzgwMSBDMjguNTYsMzIuNzY3NjI1MSAyNy45NDUsMzIuNjA4NTQ3NCAyNy4wOTEsMzIuNjA4NTQ3NCBDMjYuNDc2LDMyLjYwODU0NzQgMjUuNzA3LDMyLjY1ODU3MTggMjQuNzg0LDMyLjc1NzYyMDIgTDI0Ljc4NCwzMS43NzUxNDAxIEwyNS4wNjgsMjcuMzIxOTY0MSBMMzAuNSwyNy4zMjE5NjQxIEwzMC41LDI4LjU0MzU2MTEgTDI2LjMxOCwyOC41NDM1NjExIEwyNi4xMjMsMzEuNTY3MDM4NCBDMjYuNjY5LDMxLjQ2Njk4OTYgMjcuMTYsMzEuNDE2OTY1MSAyNy41OTcsMzEuNDE2OTY1MSBDMjguNjY5LDMxLjQxNjk2NTEgMjkuNTA4LDMxLjcwMDEwMzUgMzAuMTE0LDMyLjI2NjM4MDIgTTQxLjI2MSw0Mi45NjM2MDcyIEMzNy41MTYsNDMuNjM1OTM1NyAzNC4yMzMsNDUuMTQ1NjczNSAzMiw0Ni4zOTUyODQxIEMyOS43NjgsNDUuMTQ1NjczNSAyNi40ODUsNDMuNjM1OTM1NyAyMi43NCw0Mi45NjM2MDcyIEMyMS43MDgsNDIuNzc4NTE2OCAxNi41NjYsNDEuNzA3OTkzNyAxNi41NjYsMzguODI0NTg0NyBDMTYuNTY2LDM3LjQ2MjkxOTQgMTcuMDYzLDM2LjU0MjQ2OTYgMTguMDE3LDM0Ljg5OTY2NjkgQzE5LjEzMywzMi45NzM3MjU4IDIwLjY2MywzMC4zMzY0MzcxIDIwLjY2MywyNi42NzM2NDc0IEMyMC42NjMsMjQuMTEwMzk0OSAyMC4wMDQsMjEuNjUxMTkzMiAxOC43MDMsMTkuMzUzMDcwMyBDMTguNzkyLDE5LjI0NDAxNyAxOC44ODIsMTkuMTMyOTYyNyAxOC45NzIsMTkuMDIyOTA4OSBDMjAuOTI3LDE5Ljk3MjM3MjkgMjIuOTU5LDIwLjQ1MjYwNzUgMjUuMDI1LDIwLjQ1MjYwNzUgQzI3LjU3MSwyMC40NTI2MDc1IDI5LjkxNCwxOS43OTYyODY4IDMyLDE4LjUwMTY1NDIgQzM0LjA4NiwxOS43OTYyODY4IDM2LjQzLDIwLjQ1MjYwNzUgMzguOTc2LDIwLjQ1MjYwNzUgQzQxLjA0MSwyMC40NTI2MDc1IDQzLjA3MywxOS45NzIzNzI5IDQ1LjAyOSwxOS4wMjI5MDg5IEM0NS4xMTgsMTkuMTMyOTYyNyA0NS4yMDgsMTkuMjQ0MDE3IDQ1LjI5NywxOS4zNTMwNzAzIEM0My45OTYsMjEuNjUxMTkzMiA0My4zMzcsMjQuMTEwMzk0OSA0My4zMzcsMjYuNjczNjQ3NCBDNDMuMzM3LDMwLjMzNjQzNzEgNDQuODY3LDMyLjk3MzcyNTggNDUuOTg0LDM0Ljg5OTY2NjkgQzQ2LjkzOCwzNi41NDI0Njk2IDQ3LjQzNSwzNy40NjI5MTk0IDQ3LjQzNSwzOC44MjQ1ODQ3IEM0Ny40MzUsNDEuNzA3OTkzNyA0Mi4yOTIsNDIuNzc4NTE2OCA0MS4yNjEsNDIuOTYzNjA3MiBNNDUuMzM3LDI2LjY3MzY0NzQgQzQ1LjMzNywyNC4yNTk0Njc3IDQ2LjAxOSwyMS45NDQzMzY0IDQ3LjM2MiwxOS43OTIyODQ5IEM0Ny41ODksMTkuNDI5MTA3NCA0Ny41NTksMTguOTYwODc4NiA0Ny4yODgsMTguNjI5NzE2OCBDNDYuODkzLDE4LjE0NTQ4MDIgNDYuNDc5LDE3LjYzNjIzMTMgNDYuMDcsMTcuMTI5OTg0IEM0NS43NjYsMTYuNzUyNzk5NyA0NS4yMzQsMTYuNjQ5NzQ5MyA0NC44MDksMTYuODgzODYzNyBDNDIuOTI2LDE3LjkyNDM3MjEgNDAuOTYzLDE4LjQ1MTYyOTggMzguOTc2LDE4LjQ1MTYyOTggQzM2LjU3NiwxOC40NTE2Mjk4IDM0LjQ4MiwxNy44MDgzMTU0IDMyLjU3LDE2LjQ4MjY2NzcgQzMyLjIyOCwxNi4yNDQ1NTEzIDMxLjc3MywxNi4yNDQ1NTEzIDMxLjQzMSwxNi40ODI2Njc3IEMyOS41MTksMTcuODA4MzE1NCAyNy40MjQsMTguNDUxNjI5OCAyNS4wMjUsMTguNDUxNjI5OCBDMjMuMDM3LDE4LjQ1MTYyOTggMjEuMDc0LDE3LjkyNDM3MjEgMTkuMTkyLDE2Ljg4Mzg2MzcgQzE4Ljc2NiwxNi42NDk3NDkzIDE4LjIzNiwxNi43NTI3OTk3IDE3LjkzMSwxNy4xMjk5ODQgQzE3LjUyMiwxNy42MzYyMzEzIDE3LjEwOCwxOC4xNDU0ODAyIDE2LjcxMiwxOC42Mjk3MTY4IEMxNi40NDIsMTguOTYwODc4NiAxNi40MTEsMTkuNDI5MTA3NCAxNi42MzksMTkuNzkyMjg0OSBDMTcuOTgyLDIxLjk0NDMzNjQgMTguNjYzLDI0LjI1OTQ2NzcgMTguNjYzLDI2LjY3MzY0NzQgQzE4LjY2MywyOS43OTgxNzQxIDE3LjQwMSwzMS45NzQyMzc0IDE2LjI4NiwzMy44OTUxNzYxIEMxNS4yMiwzNS43MzQwNzQ2IDE0LjU2NiwzNi45NTU2NzE1IDE0LjU2NiwzOC44MjQ1ODQ3IEMxNC41NjYsNDMuMTg3NzE2NyAyMC41NTEsNDQuNjAzNDA4NSAyMi4zODYsNDQuOTMyNTY5MyBDMjYuMTM2LDQ1LjYwNjg5ODggMjkuNDEsNDcuMTk3Njc2MSAzMS40OTcsNDguNDEyMjY5NiBDMzEuNjUzLDQ4LjUwMjMxMzYgMzEuODI2LDQ4LjU0ODMzNjEgMzIsNDguNTQ4MzM2MSBDMzIuMTc0LDQ4LjU0ODMzNjEgMzIuMzQ4LDQ4LjUwMjMxMzYgMzIuNTAzLDQ4LjQxMjI2OTYgQzM0LjU5LDQ3LjE5NzY3NjEgMzcuODY1LDQ1LjYwNjg5ODggNDEuNjE1LDQ0LjkzMjU2OTMgQzQzLjQ0OSw0NC42MDM0MDg1IDQ5LjQzNSw0My4xODc3MTY3IDQ5LjQzNSwzOC44MjQ1ODQ3IEM0OS40MzUsMzYuOTU1NjcxNSA0OC43ODEsMzUuNzM0MDc0NiA0Ny43MTQsMzMuODk1MTc2MSBDNDYuNiwzMS45NzQyMzc0IDQ1LjMzNywyOS43OTgxNzQxIDQ1LjMzNywyNi42NzM2NDc0IE00Mi4wNjgsNDcuNDU4ODAzNyBDMzcuNDAyLDQ4LjI5NzIxMzQgMzMuNDY4LDUwLjc1NTQxNDYgMzIsNTEuNzY3OTA5MyBDMzAuNTMyLDUwLjc1NTQxNDYgMjYuNTk5LDQ4LjI5NzIxMzQgMjEuOTMzLDQ3LjQ1ODgwMzcgQzE5LjYwMyw0Ny4wMzk1OTg5IDEyLDQ1LjE3ODY4OTYgMTIsMzguODI0NTg0NyBDMTIsMzYuMTcwMjg3OCAxMy4wMDQsMzQuNDM4NDQxNSAxNC4wNjgsMzIuNjA1NTQ1OSBDMTUuMDY2LDMwLjg4NTcwNTUgMTYuMDk4LDI5LjEwNjgzNjMgMTYuMDk4LDI2LjY3MzY0NzQgQzE2LjA5OCwyMy4wMDY4NTU2IDE0LjA3MSwyMC4zNzE1Njc5IDEyLjk0MSwxOS4xODY5ODkxIEMxNC4wOTUsMTcuNzgyMzAyNyAxNi42MzYsMTQuNjgwNzg3MiAxOC4wMjksMTIuODk2OTE1NSBDMjAuMTUxLDE0LjgzMTg2MSAyMi42LDE1Ljg4NTM3NTggMjUuMDI1LDE1Ljg4NTM3NTggQzI3LjcyNiwxNS44ODUzNzU4IDI5Ljk2NywxNC44MTk4NTUyIDMyLDEyLjU0ODc0NTQgQzM0LjAzMywxNC44MTk4NTUyIDM2LjI3NSwxNS44ODUzNzU4IDM4Ljk3NiwxNS44ODUzNzU4IEM0MS40MDEsMTUuODg1Mzc1OCA0My44NSwxNC44MzE4NjEgNDUuOTcyLDEyLjg5NjkxNTUgQzQ3LjM2NSwxNC42ODA3ODcyIDQ5LjkwNiwxNy43ODIzMDI3IDUxLjA2LDE5LjE4Njk4OTEgQzQ5LjkzLDIwLjM3MTU2NzkgNDcuOTAzLDIzLjAwNjg1NTYgNDcuOTAzLDI2LjY3MzY0NzQgQzQ3LjkwMywyOS4xMDY4MzYzIDQ4LjkzNSwzMC44ODU3MDU1IDQ5LjkzMywzMi42MDU1NDU5IEM1MC45OTYsMzQuNDM4NDQxNSA1MiwzNi4xNzAyODc4IDUyLDM4LjgyNDU4NDcgQzUyLDQ1LjE3ODY4OTYgNDQuMzk4LDQ3LjAzOTU5ODkgNDIuMDY4LDQ3LjQ1ODgwMzcgTTUxLjY2MiwzMS42MDEwNTUxIEM1MC43MTgsMjkuOTc0MjYwMSA0OS45MDMsMjguNTY3NTcyOCA0OS45MDMsMjYuNjczNjQ3NCBDNDkuOTAzLDIyLjY3MTY5MTggNTMuMDI0LDIwLjA3MTQyMTMgNTMuMDUzLDIwLjA0NzQwOTUgQzUzLjI2LDE5Ljg3OTMyNzQgNTMuMzkyLDE5LjYzNjIwODYgNTMuNDE5LDE5LjM3MDA3ODYgQzUzLjQ0NiwxOS4xMDM5NDg1IDUzLjM2NSwxOC44Mzg4MTkgNTMuMTk2LDE4LjYzMjcxODMgQzUzLjE0NCwxOC41NzA2ODc5IDQ4LjA0OSwxMi4zOTM2Njk2IDQ2Ljg4NSwxMC43OTc4ODk5IEM0Ni43MDksMTAuNTU2NzcyMSA0Ni40MzYsMTAuNDA2Njk4NyA0Ni4xMzgsMTAuMzg4Njg5OSBDNDUuODQ1LDEwLjM2OTY4MDYgNDUuNTUsMTAuNDg2NzM3OCA0NS4zNDcsMTAuNzAzODQzOSBDNDMuNDMsMTIuNzU0ODQ2MSA0MS4xNjcsMTMuODg0Mzk4MSAzOC45NzYsMTMuODg0Mzk4MSBDMzYuNTYsMTMuODg0Mzk4MSAzNC42NTQsMTIuODAwODY4NiAzMi43OTQsMTAuMzcwNjgxMSBDMzIuNDE1LDkuODc2NDM5NjIgMzEuNTg1LDkuODc2NDM5NjIgMzEuMjA2LDEwLjM3MDY4MTEgQzI5LjM0NywxMi44MDA4Njg2IDI3LjQ0MSwxMy44ODQzOTgxIDI1LjAyNSwxMy44ODQzOTgxIEMyMi44MzMsMTMuODg0Mzk4MSAyMC41NzEsMTIuNzU0ODQ2MSAxOC42NTQsMTAuNzAzODQzOSBDMTguNDUsMTAuNDg1NzM3MyAxOC4xNTQsMTAuMzY0Njc4MiAxNy44NjMsMTAuMzg4Njg5OSBDMTcuNTY1LDEwLjQwNjY5ODcgMTcuMjkxLDEwLjU1Njc3MjEgMTcuMTE1LDEwLjc5Nzg4OTkgQzE1Ljk1MSwxMi4zOTM2Njk2IDEwLjg1NywxOC41NzA2ODc5IDEwLjgwNSwxOC42MzI3MTgzIEMxMC42MzUsMTguODM4ODE5IDEwLjU1NSwxOS4xMDM5NDg1IDEwLjU4MSwxOS4zNzAwNzg2IEMxMC42MDksMTkuNjM2MjA4NiAxMC43NCwxOS44NzkzMjc0IDEwLjk0OCwyMC4wNDc0MDk1IEMxMC45OCwyMC4wNzM0MjIyIDE0LjA5OCwyMi42NDE2NzcyIDE0LjA5OCwyNi42NzM2NDc0IEMxNC4wOTgsMjguNTY3NTcyOCAxMy4yODIsMjkuOTc0MjYwMSAxMi4zMzgsMzEuNjAxMDU1MSBDMTEuMjQyLDMzLjQ4OTk3ODEgMTAsMzUuNjMxMDI0MyAxMCwzOC44MjQ1ODQ3IEMxMCw0NC4xNjExOTI0IDE0LjMyOCw0OC4xMjUxMjkzIDIxLjU3OSw0OS40Mjg3NjYzIEMyNi44OTUsNTAuMzgzMjMyNyAzMS4zNDcsNTMuNzU5ODgyNyAzMS4zOTIsNTMuNzkzODk5MyBDMzEuNTcyLDUzLjkzMTk2NjggMzEuNzg1LDU0IDMyLDU0IEMzMi4yMTUsNTQgMzIuNDMsNTMuOTMwOTY2MyAzMi42MSw1My43OTI4OTg4IEMzMi42NTQsNTMuNzU4ODgyMiAzNy4wODgsNTAuMzg3MjM0NyA0Mi40MjEsNDkuNDI4NzY2MyBDNDkuNjcyLDQ4LjEyNTEyOTMgNTQsNDQuMTYxMTkyNCA1NCwzOC44MjQ1ODQ3IEM1NCwzNS42MzEwMjQzIDUyLjc1OCwzMy40ODk5NzgxIDUxLjY2MiwzMS42MDEwNTUxIiBpZD0iQW1hem9uLVJvdXRlLTUzLUljb25fNDhfU3F1aWQiIGZpbGw9IiNGRkZGRkYiPjwvcGF0aD4KICAgIDwvZz4KPC9zdmc+;points=[[0,0],[1,0],[1,1],[0,1],[0,0.167],[0.167,0],[1,0.167],[0.167,1],[0,0.333],[0.333,0],[1,0.333],[0.333,1],[0,0.5],[0.5,0],[1,0.5],[0.5,1],[0,0.667],[0.667,0],[1,0.667],[0.667,1],[0,0.833],[0.833,0],[1,0.833],[0.833,1]]" parent="PfW1Trj3aX01LcuOc2Ej-4" vertex="1">
          <mxGeometry x="1193" y="404" width="50" height="50" as="geometry" />
        </mxCell>
        <mxCell id="PfW1Trj3aX01LcuOc2Ej-48" style="edgeStyle=orthogonalEdgeStyle;rounded=0;orthogonalLoop=1;jettySize=auto;html=1;" parent="PfW1Trj3aX01LcuOc2Ej-4" source="PfW1Trj3aX01LcuOc2Ej-47" target="PfW1Trj3aX01LcuOc2Ej-10" edge="1">
          <mxGeometry relative="1" as="geometry" />
        </mxCell>
        <mxCell id="dtOV9YOIjFEI8-B-jVSO-22" style="edgeStyle=orthogonalEdgeStyle;rounded=0;orthogonalLoop=1;jettySize=auto;html=1;entryX=0;entryY=0.5;entryDx=0;entryDy=0;" parent="PfW1Trj3aX01LcuOc2Ej-1" source="N08xS9JCno1T1F9PN58o-129" target="N08xS9JCno1T1F9PN58o-135" edge="1">
          <mxGeometry relative="1" as="geometry">
            <Array as="points">
              <mxPoint x="510" y="594" />
            </Array>
          </mxGeometry>
        </mxCell>
        <mxCell id="PfW1Trj3aX01LcuOc2Ej-32" value="" style="group" parent="PfW1Trj3aX01LcuOc2Ej-1" vertex="1" connectable="0">
          <mxGeometry x="390" y="706.5" width="240" height="163.5" as="geometry" />
        </mxCell>
        <mxCell id="PfW1Trj3aX01LcuOc2Ej-33" value="&lt;span class=&quot;awsui_root_18wu0_1qbfe_99 awsui_box_18wu0_1qbfe_219 awsui_strong-variant_18wu0_1qbfe_219 awsui_color-default_18wu0_1qbfe_219 awsui_font-size-default_18wu0_1qbfe_235 awsui_font-weight-default_18wu0_1qbfe_275&quot;&gt;CnbAccount&lt;/span&gt;" style="whiteSpace=wrap;html=1;strokeColor=#E7157B;fillColor=none;container=0;verticalAlign=top;align=left;spacingLeft=35;spacingTop=3;fontColor=#E7157B;" parent="PfW1Trj3aX01LcuOc2Ej-32" vertex="1">
          <mxGeometry width="240" height="163.5" as="geometry" />
        </mxCell>
        <mxCell id="PfW1Trj3aX01LcuOc2Ej-34" value="" style="shape=image;verticalLabelPosition=bottom;labelBackgroundColor=default;verticalAlign=top;aspect=fixed;imageAspect=0;image=data:image/svg+xml,PHN2ZyB4bWxuczp4bGluaz0iaHR0cDovL3d3dy53My5vcmcvMTk5OS94bGluayIgeG1sbnM9Imh0dHA6Ly93d3cudzMub3JnLzIwMDAvc3ZnIiB2ZXJzaW9uPSIxLjEiIHZpZXdCb3g9IjAgMCA0MCA0MCIgaGVpZ2h0PSI0MHB4IiB3aWR0aD0iNDBweCI+JiN4YTsgICAgPHRpdGxlPkljb24tQXJjaGl0ZWN0dXJlLUdyb3VwLzMyL0FXUy1BY2NvdW50XzMyPC90aXRsZT4mI3hhOyAgICA8ZyBmaWxsLXJ1bGU9ImV2ZW5vZGQiIGZpbGw9Im5vbmUiIHN0cm9rZS13aWR0aD0iMSIgc3Ryb2tlPSJub25lIiBpZD0iSWNvbi1BcmNoaXRlY3R1cmUtR3JvdXAvMzIvQVdTLUFjY291bnRfMzIiPiYjeGE7ICAgICAgICA8cmVjdCBoZWlnaHQ9IjQwIiB3aWR0aD0iNDAiIHk9IjAiIHg9IjAiIGZpbGw9IiNFNzE1N0IiIGlkPSJSZWN0YW5nbGUiLz4mI3hhOyAgICAgICAgPHBhdGggZmlsbD0iI0ZGRkZGRiIgaWQ9IkZpbGwtMSIgZD0iTTI0LjUsMjIgQzI2LjQzLDIyIDI4LDIzLjU3IDI4LDI1LjUgQzI4LDI3LjQzIDI2LjQzLDI5IDI0LjUsMjkgQzIyLjU3LDI5IDIxLDI3LjQzIDIxLDI1LjUgQzIxLDIzLjU3IDIyLjU3LDIyIDI0LjUsMjIgTDI0LjUsMjIgWiBNMjQuNSwzMCBDMjYuOTgxLDMwIDI5LDI3Ljk4MSAyOSwyNS41IEMyOSwyMy4wMTkgMjYuOTgxLDIxIDI0LjUsMjEgQzIyLjAxOSwyMSAyMCwyMy4wMTkgMjAsMjUuNSBDMjAsMjcuOTgxIDIyLjAxOSwzMCAyNC41LDMwIEwyNC41LDMwIFogTTI2LjAyMywxMC44OCBMMjkuMDg0LDE3IEwyMi45NjMsMTcgTDI2LjAyMywxMC44OCBaIE0yMi4xNTQsMTggTDI5Ljg5MywxOCBDMzAuMDY1LDE4IDMwLjIyNywxNy45MSAzMC4zMTgsMTcuNzYzIEMzMC40MDksMTcuNjE1IDMwLjQxNywxNy40MzIgMzAuMzQsMTcuMjc2IEwyNi40NzEsOS41MzggQzI2LjMwMSw5LjIgMjUuNzQ2LDkuMiAyNS41NzYsOS41MzggTDIxLjcwNywxNy4yNzYgQzIxLjYzLDE3LjQzMiAyMS42MzgsMTcuNjE1IDIxLjcyOSwxNy43NjMgQzIxLjgyLDE3LjkxIDIxLjk4MSwxOCAyMi4xNTQsMTggTDIyLjE1NCwxOCBaIE0xMSwyMyBMMTgsMjMgTDE4LDE2IEwxMSwxNiBMMTEsMjMgWiBNMTAuNSwyNCBMMTguNSwyNCBDMTguNzc2LDI0IDE5LDIzLjc3NiAxOSwyMy41IEwxOSwxNS41IEMxOSwxNS4yMjQgMTguNzc2LDE1IDE4LjUsMTUgTDEwLjUsMTUgQzEwLjIyNCwxNSAxMCwxNS4yMjQgMTAsMTUuNSBMMTAsMjMuNSBDMTAsMjMuNzc2IDEwLjIyNCwyNCAxMC41LDI0IEwxMC41LDI0IFogTTgsMzIgTDMyLDMyIEwzMiw4IEw4LDggTDgsMzIgWiBNMzIuNSw3IEw3LjUsNyBDNy4yMjQsNyA3LDcuMjI0IDcsNy41IEw3LDMyLjUgQzcsMzIuNzc2IDcuMjI0LDMzIDcuNSwzMyBMMzIuNSwzMyBDMzIuNzc2LDMzIDMzLDMyLjc3NiAzMywzMi41IEwzMyw3LjUgQzMzLDcuMjI0IDMyLjc3Niw3IDMyLjUsNyBMMzIuNSw3IFoiLz4mI3hhOyAgICA8L2c+JiN4YTs8L3N2Zz4=;allowArrows=0;connectable=0;moveable=0;resizable=0;" parent="PfW1Trj3aX01LcuOc2Ej-32" vertex="1">
          <mxGeometry width="30" height="30" as="geometry" />
        </mxCell>
        <mxCell id="N08xS9JCno1T1F9PN58o-129" value="openchallenges-img&#xa;S3 bucket" style="shape=image;verticalLabelPosition=bottom;verticalAlign=top;imageAspect=0;aspect=fixed;image=data:image/svg+xml,PD94bWwgdmVyc2lvbj0iMS4wIiBlbmNvZGluZz0iVVRGLTgiPz4KPHN2ZyB3aWR0aD0iNjRweCIgaGVpZ2h0PSI2NHB4IiB2aWV3Qm94PSIwIDAgNjQgNjQiIHZlcnNpb249IjEuMSIgeG1sbnM9Imh0dHA6Ly93d3cudzMub3JnLzIwMDAvc3ZnIiB4bWxuczp4bGluaz0iaHR0cDovL3d3dy53My5vcmcvMTk5OS94bGluayI+CiAgICA8dGl0bGU+SWNvbi1BcmNoaXRlY3R1cmUvNDgvQXJjaF9BbWF6b24tU2ltcGxlLVN0b3JhZ2UtU2VydmljZV80ODwvdGl0bGU+CiAgICA8ZyBpZD0iSWNvbi1BcmNoaXRlY3R1cmUvNDgvQXJjaF9BbWF6b24tU2ltcGxlLVN0b3JhZ2UtU2VydmljZV80OCIgc3Ryb2tlPSJub25lIiBzdHJva2Utd2lkdGg9IjEiIGZpbGw9Im5vbmUiIGZpbGwtcnVsZT0iZXZlbm9kZCI+CiAgICAgICAgPGcgaWQ9Ikljb24tQXJjaGl0ZWN0dXJlLUJHLzQ4L1N0b3JhZ2UiIGZpbGw9IiM3QUExMTYiPgogICAgICAgICAgICA8cmVjdCBpZD0iUmVjdGFuZ2xlIiB4PSIwIiB5PSIwIiB3aWR0aD0iNjQiIGhlaWdodD0iNjQiPjwvcmVjdD4KICAgICAgICA8L2c+CiAgICAgICAgPGcgaWQ9Ikljb24tU2VydmljZS80OC9BbWF6b24tU2ltcGxlLVN0b3JhZ2UtU2VydmljZV80OCIgdHJhbnNmb3JtPSJ0cmFuc2xhdGUoMTAuOTk5ODAwLCAxMC4wMDAyMDApIiBmaWxsPSIjRkZGRkZGIj4KICAgICAgICAgICAgPHBhdGggZD0iTTM2Ljc1OSwyMy45NDggTDM2Ljk5MywyMi4xMzEgQzM5LjE2NiwyMy4zODUgMzkuODQyLDI0LjEyMSA0MC4wMzcsMjQuNDI0IEMzOS43MTMsMjQuNDg1IDM4LjgzMiwyNC41MDkgMzYuNzU5LDIzLjk0OCBMMzYuNzU5LDIzLjk0OCBaIE0xOS41LDExIEM5LjEyNSwxMSAyLjM4Miw4LjQ4OCAyLDYuNjk2IEwyLDYuNTExIEMyLjM0OSw1LjM5MiA4LjE0LDIgMTkuNSwyIEMzMC44NCwyIDM2LjYzMiw1LjM4MSAzNyw2LjUwNSBMMzcsNi42MTYgQzM2LjcyNCw4LjQ0NiAyOS45NjEsMTEgMTkuNSwxMSBMMTkuNSwxMSBaIE0zNC44MTgsMjMuMzYyIEMzMC4wNTMsMjEuNzk3IDIzLjkxMiwxOC45NzkgMjEuNTk0LDE3Ljg4OCBDMjEuNTM1LDE2Ljc4NiAyMC42MjgsMTUuOTA2IDE5LjUxMiwxNS45MDYgQzE4LjM1OCwxNS45MDYgMTcuNDE4LDE2Ljg0NSAxNy40MTgsMTggQzE3LjQxOCwxOS4xNTQgMTguMzU4LDIwLjA5NCAxOS41MTIsMjAuMDk0IEMxOS45NjksMjAuMDk0IDIwLjM4OSwxOS45NDIgMjAuNzMzLDE5LjY5MyBDMjMuMTMyLDIwLjgyMiAyOS42MTksMjMuNzk4IDM0LjU1OCwyNS4zOCBMMzIuODM3LDM4LjcyNCBDMzIuNTgzLDQwLjM1MiAyNy45MTksNDIgMTkuNDk3LDQyIEMxMS4wNzIsNDIgNi40MDUsNDAuMzUyIDYuMTU1LDM4Ljc1MSBMMi40MzUsOS44MTQgQzUuOTQ1LDExLjkxNSAxMi43NDksMTMgMTkuNSwxMyBDMjYuMjUsMTMgMzMuMDU0LDExLjkxNSAzNi41NjUsOS44MTUgTDM0LjgxOCwyMy4zNjIgWiBNMzksNi41IEMzOSwzLjQzMSAzMC42NjEsMCAxOS41LDAgQzguMzM5LDAgLTMuNTUyNzEzNjhlLTE1LDMuNDMxIC0zLjU1MjcxMzY4ZS0xNSw2LjUgTC0zLjU1MjcxMzY4ZS0xNSw3LjA0MyBMNC4xNzQsMzkuMDMzIEM0Ljg3NSw0My41MTYgMTUuMTIzLDQ0IDE5LjQ5Nyw0NCBDMjMuODY5LDQ0IDM0LjExMyw0My41MTYgMzQuODE4LDM5LjAwNyBMMzYuNTAxLDI1Ljk0NyBDMzcuNzc4LDI2LjI3OSAzOC44MTIsMjYuNDU2IDM5LjYxNiwyNi40NTUgQzQwLjYwNiwyNi40NTUgNDEuMjczLDI2LjIwMyA0MS42OTcsMjUuNjk3IEM0Mi4wNDcsMjUuMjgxIDQyLjE4NSwyNC43NTYgNDIuMDg1LDI0LjIyMSBDNDEuODU3LDIzIDQwLjQwMywyMS43MTIgMzcuMzcsMjAuMDQ0IEwzNy4yNywxOS45ODkgTDM5LDcuMDQ0IEwzOSw2LjUgWiIgaWQ9IkFtYXpvbi1TaW1wbGUtU3RvcmFnZS1TZXJ2aWNlLUljb25fNDhfU3F1aWQiPjwvcGF0aD4KICAgICAgICA8L2c+CiAgICA8L2c+Cjwvc3ZnPg==;points=[[0,0],[1,0],[1,1],[0,1],[0,0.167],[0.167,0],[1,0.167],[0.167,1],[0,0.333],[0.333,0],[1,0.333],[0.333,1],[0,0.5],[0.5,0],[1,0.5],[0.5,1],[0,0.667],[0.667,0],[1,0.667],[0.667,1],[0,0.833],[0.833,0],[1,0.833],[0.833,1]]" parent="PfW1Trj3aX01LcuOc2Ej-32" vertex="1">
          <mxGeometry x="95" y="55" width="50" height="50" as="geometry" />
        </mxCell>
        <mxCell id="PfW1Trj3aX01LcuOc2Ej-23" style="edgeStyle=orthogonalEdgeStyle;rounded=0;orthogonalLoop=1;jettySize=auto;html=1;entryX=0;entryY=0.5;entryDx=0;entryDy=0;" parent="1" source="PfW1Trj3aX01LcuOc2Ej-21" target="PfW1Trj3aX01LcuOc2Ej-22" edge="1">
          <mxGeometry relative="1" as="geometry" />
        </mxCell>
        <mxCell id="PfW1Trj3aX01LcuOc2Ej-26" value="&lt;div&gt;push to&lt;/div&gt;&lt;div&gt;main&lt;/div&gt;" style="edgeLabel;html=1;align=center;verticalAlign=middle;resizable=0;points=[];" parent="PfW1Trj3aX01LcuOc2Ej-23" vertex="1" connectable="0">
          <mxGeometry x="-0.1934" y="-3" relative="1" as="geometry">
            <mxPoint x="5" y="-3" as="offset" />
          </mxGeometry>
        </mxCell>
        <mxCell id="PfW1Trj3aX01LcuOc2Ej-21" value="Sage-Bionetworks/&lt;br&gt;sage-monorepo" style="dashed=0;outlineConnect=0;html=1;align=center;labelPosition=center;verticalLabelPosition=bottom;verticalAlign=top;shape=mxgraph.weblogos.github;aspect=fixed;" parent="1" vertex="1">
          <mxGeometry x="510.0000000000002" y="137.5" width="50" height="50" as="geometry" />
        </mxCell>
        <mxCell id="PfW1Trj3aX01LcuOc2Ej-25" style="edgeStyle=orthogonalEdgeStyle;rounded=0;orthogonalLoop=1;jettySize=auto;html=1;entryX=0;entryY=0.5;entryDx=0;entryDy=0;" parent="1" source="PfW1Trj3aX01LcuOc2Ej-22" target="PfW1Trj3aX01LcuOc2Ej-24" edge="1">
          <mxGeometry relative="1" as="geometry" />
        </mxCell>
        <mxCell id="PfW1Trj3aX01LcuOc2Ej-27" value="publish" style="edgeLabel;html=1;align=center;verticalAlign=middle;resizable=0;points=[];" parent="PfW1Trj3aX01LcuOc2Ej-25" vertex="1" connectable="0">
          <mxGeometry x="-0.3706" y="3" relative="1" as="geometry">
            <mxPoint x="9" y="3" as="offset" />
          </mxGeometry>
        </mxCell>
        <mxCell id="PfW1Trj3aX01LcuOc2Ej-22" value="CI/CD&#xa;GitHub Actions" style="shape=image;editableCssRules=.*;image=data:image/svg+xml,PHN2ZyB2aWV3Qm94PSIwIDAgMjQgMjQiIHhtbG5zPSJodHRwOi8vd3d3LnczLm9yZy8yMDAwL3N2ZyI+PHN0eWxlPip7ZmlsbDojMjA4OEZGfTwvc3R5bGU+PHBhdGggZD0iTTEwLjk4NCAxMy44MzZhLjUuNSAwIDAgMS0uMzUzLS4xNDZsLS43NDUtLjc0M2EuNS41IDAgMSAxIC43MDYtLjcwOGwuMzkyLjM5MSAxLjE4MS0xLjE4YS41LjUgMCAwIDEgLjcwOC43MDdsLTEuNTM1IDEuNTMzYS41MDQuNTA0IDAgMCAxLS4zNTQuMTQ2em05LjM1My0uMTQ3bDEuNTM0LTEuNTMyYS41LjUgMCAwIDAtLjcwNy0uNzA3bC0xLjE4MSAxLjE4LS4zOTItLjM5MWEuNS41IDAgMSAwLS43MDYuNzA4bC43NDYuNzQzYS40OTcuNDk3IDAgMCAwIC43MDYtLjAwMXpNNC41MjcgNy40NTJsMi41NTctMS41ODVBMSAxIDAgMCAwIDcuMDkgNC4xN0w0LjUzMyAyLjU2QTEgMSAwIDAgMCAzIDMuNDA2djMuMTk2YTEuMDAxIDEuMDAxIDAgMCAwIDEuNTI3Ljg1em0yLjAzLTIuNDM2TDQgNi42MDJWMy40MDZsMi41NTcgMS42MXpNMjQgMTIuNWMwIDEuOTMtMS41NyAzLjUtMy41IDMuNWEzLjUwMyAzLjUwMyAwIDAgMS0zLjQ2LTNoLTIuMDhhMy41MDMgMy41MDMgMCAwIDEtMy40NiAzIDMuNTAyIDMuNTAyIDAgMCAxLTMuNDYtM2gtLjU1OGMtLjk3MiAwLTEuODUtLjM5OS0yLjQ4Mi0xLjA0MlYxN2MwIDEuNjU0IDEuMzQ2IDMgMyAzaC4wNGMuMjQ0LTEuNjkzIDEuNy0zIDMuNDYtMyAxLjkzIDAgMy41IDEuNTcgMy41IDMuNVMxMy40MyAyNCAxMS41IDI0YTMuNTAyIDMuNTAyIDAgMCAxLTMuNDYtM0g4Yy0yLjIwNiAwLTQtMS43OTQtNC00VjkuODk5QTUuMDA4IDUuMDA4IDAgMCAxIDAgNWMwLTIuNzU3IDIuMjQzLTUgNS01czUgMi4yNDMgNSA1YTUuMDA1IDUuMDA1IDAgMCAxLTQuOTUyIDQuOTk4QTIuNDgyIDIuNDgyIDAgMCAwIDcuNDgyIDEyaC41NThjLjI0NC0xLjY5MyAxLjctMyAzLjQ2LTNhMy41MDIgMy41MDIgMCAwIDEgMy40NiAzaDIuMDhhMy41MDMgMy41MDMgMCAwIDEgMy40Ni0zYzEuOTMgMCAzLjUgMS41NyAzLjUgMy41em0tMTUgOGMwIDEuMzc4IDEuMTIyIDIuNSAyLjUgMi41czIuNS0xLjEyMiAyLjUtMi41LTEuMTIyLTIuNS0yLjUtMi41UzkgMTkuMTIyIDkgMjAuNXpNNSA5YzIuMjA2IDAgNC0xLjc5NCA0LTRTNy4yMDYgMSA1IDEgMSAyLjc5NCAxIDVzMS43OTQgNCA0IDR6bTkgMy41YzAtMS4zNzgtMS4xMjItMi41LTIuNS0yLjVTOSAxMS4xMjIgOSAxMi41czEuMTIyIDIuNSAyLjUgMi41IDIuNS0xLjEyMiAyLjUtMi41em05IDBjMC0xLjM3OC0xLjEyMi0yLjUtMi41LTIuNVMxOCAxMS4xMjIgMTggMTIuNXMxLjEyMiAyLjUgMi41IDIuNSAyLjUtMS4xMjIgMi41LTIuNXptLTEzIDhhLjUuNSAwIDEgMCAxIDAgLjUuNSAwIDAgMC0xIDB6bTIgMGEuNS41IDAgMSAwIDEgMCAuNS41IDAgMCAwLTEgMHptMTIgMGMwIDEuOTMtMS41NyAzLjUtMy41IDMuNWEzLjUwMyAzLjUwMyAwIDAgMS0zLjQ2LTMuMDAyYy0uMDA3LjAwMS0uMDEzLjAwNS0uMDIxLjAwNWwtLjUwNi4wMTdoLS4wMTdhLjUuNSAwIDAgMS0uMDE2LS45OTlsLjUwNi0uMDE3Yy4wMTgtLjAwMi4wMzUuMDA2LjA1Mi4wMDdBMy41MDMgMy41MDMgMCAwIDEgMjAuNSAxN2MxLjkzIDAgMy41IDEuNTcgMy41IDMuNXptLTEgMGMwLTEuMzc4LTEuMTIyLTIuNS0yLjUtMi41UzE4IDE5LjEyMiAxOCAyMC41czEuMTIyIDIuNSAyLjUgMi41IDIuNS0xLjEyMiAyLjUtMi41eiIvPjwvc3ZnPg==;aspect=fixed;labelPosition=center;verticalLabelPosition=bottom;align=center;verticalAlign=top;" parent="1" vertex="1">
          <mxGeometry x="682.5" y="140" width="50" height="50" as="geometry" />
        </mxCell>
        <mxCell id="PfW1Trj3aX01LcuOc2Ej-31" style="edgeStyle=orthogonalEdgeStyle;rounded=0;orthogonalLoop=1;jettySize=auto;html=1;entryX=0.695;entryY=0.001;entryDx=0;entryDy=0;entryPerimeter=0;" parent="1" source="PfW1Trj3aX01LcuOc2Ej-24" target="jZVaUwOg5UY3L9NAnvdq-71" edge="1">
          <mxGeometry relative="1" as="geometry">
            <mxPoint x="941" y="331.16666666666674" as="targetPoint" />
          </mxGeometry>
        </mxCell>
        <mxCell id="PfW1Trj3aX01LcuOc2Ej-24" value="GHCR" style="editableCssRules=.*;html=1;shape=image;verticalLabelPosition=bottom;labelBackgroundColor=#ffffff;verticalAlign=top;aspect=fixed;imageAspect=0;image=data:image/svg+xml,PHN2ZyB4bWxucz0iaHR0cDovL3d3dy53My5vcmcvMjAwMC9zdmciIHhtbG5zOnY9Imh0dHBzOi8vdmVjdGEuaW8vbmFubyIgd2lkdGg9IjM3Ny4xNTkzMDIxNjAyNjMwNSIgaGVpZ2h0PSIzMzYuMTYyNDk5MDAzMzEwOCIgdmlld0JveD0iLTAuMDU4MDAwMDA1NzgxNjUwNTQgMC4xMTI5OTk5OTgwMzMwNDY3MiA5OS43OTAwMDA5MTU1MjczNCA4OC45NDMwMDA3OTM0NTcwMyI+JiN4YTs8c3R5bGUgdHlwZT0idGV4dC9jc3MiPiYjeGE7CS5zdDB7ZmlsbDojNjY5ZGY2O30mI3hhOwkuc3Qxe2ZpbGw6I2FlY2JmYTt9JiN4YTsJLnN0MntmaWxsOiM0Mjg1ZjQ7fSYjeGE7PC9zdHlsZT4mI3hhOwk8cGF0aCBjbGFzcz0ic3QwIiBkPSJNNTMuMjQzIDYyLjA5VjQ3LjA5NGwxMy4yMDEgOC40MTZ2MTUuMDM4em0tMzMuMDIxIDBWNDcuMDk0bDEzLjIwMSA4LjQxNnYxNS4wMzh6bTE2LjUxMS0zMi4yODVWMTQuODFsMTMuMjAxIDguNDE2djE1LjAzOHptNjIuOTk5IDMzLjk2VjI1LjQwM2wtOS41NjItMS44ODR2NDIuMTMxem0tOTkuNzg4IDBWMjUuNDAzbDkuNTYyLTEuODg0djQyLjEzMXoiLz4mI3hhOwk8cGF0aCBjbGFzcz0ic3QxIiBkPSJNNTMuMTg1IDQ3LjA5NGwxMy4yNTgtOC4yODcgMTMuMDE2IDguMjM0LTEzLjAxNiA4LjQ2OXptLTMzLjAyMSAwbDEzLjI1OC04LjI4NyAxMy4wMTYgOC4yMzQtMTMuMDE2IDguNDY5ek0zNi42NzUgMTQuODFsMTMuMjU4LTguMjg3IDEzLjAxNiA4LjIzNC0xMy4wMTYgOC40Njl6bTYzLjA1NiA0OC45NTZ2MTIuMjE3TDc3LjAxIDg5LjA1NVY3Ny43NTJ6bTAtMzguMzYzVjEzLjE4Nkw3Ny4wMS4xMTN2MTEuMzAzek0tLjA1OCA2My43NjZ2MTIuMjE3bDIyLjcyMSAxMy4wNzNWNzcuNzUyem0wLTM4LjM2M1YxMy4xODZMMjIuNjYzLjExM3YxMS4zMDN6Ii8+JiN4YTsJPHBhdGggY2xhc3M9InN0MiIgZD0iTTY2LjQ0NCA3MC41NDdWNTUuNTFsMTMuMDE2LTguNDY5djE1LjR6bS0zMy4wMjEgMFY1NS41MWwxMy4wMTYtOC40Njl2MTUuNHptMTYuNTExLTMyLjI4NVYyMy4yMjVsMTMuMDE2LTguNDY5djE1LjR6bTQ5Ljc5OCAyNS41MDNsLTkuNTYyIDUuODh2LTMuOTk2em0wLTM4LjM2M2wtOS41NjItNS44OHYzLjk5NnpNLS4wNTggNjMuNzY2bDkuNTYyIDUuODh2LTMuOTk2em0wLTM4LjM2M2w5LjU2Mi01Ljg4djMuOTk2eiIvPiYjeGE7PC9zdmc+;" parent="1" vertex="1">
          <mxGeometry x="845" y="142.5" width="50" height="45" as="geometry" />
        </mxCell>
        <mxCell id="PfW1Trj3aX01LcuOc2Ej-37" style="edgeStyle=orthogonalEdgeStyle;rounded=0;orthogonalLoop=1;jettySize=auto;html=1;" parent="1" source="PfW1Trj3aX01LcuOc2Ej-10" target="dtOV9YOIjFEI8-B-jVSO-7" edge="1">
          <mxGeometry relative="1" as="geometry" />
        </mxCell>
        <mxCell id="PfW1Trj3aX01LcuOc2Ej-38" style="edgeStyle=orthogonalEdgeStyle;rounded=0;orthogonalLoop=1;jettySize=auto;html=1;entryX=-0.085;entryY=0.553;entryDx=0;entryDy=0;entryPerimeter=0;" parent="1" source="PfW1Trj3aX01LcuOc2Ej-10" target="jZVaUwOg5UY3L9NAnvdq-92" edge="1">
          <mxGeometry relative="1" as="geometry">
            <Array as="points">
              <mxPoint x="1430" y="516.5" />
              <mxPoint x="1430" y="414.5" />
            </Array>
          </mxGeometry>
        </mxCell>
        <mxCell id="PfW1Trj3aX01LcuOc2Ej-39" style="edgeStyle=orthogonalEdgeStyle;rounded=0;orthogonalLoop=1;jettySize=auto;html=1;" parent="1" source="PfW1Trj3aX01LcuOc2Ej-10" target="jZVaUwOg5UY3L9NAnvdq-93" edge="1">
          <mxGeometry relative="1" as="geometry">
            <Array as="points">
              <mxPoint x="1430" y="516.5" />
              <mxPoint x="1430" y="622.5" />
            </Array>
          </mxGeometry>
        </mxCell>
        <mxCell id="PfW1Trj3aX01LcuOc2Ej-74" value="3" style="rounded=1;whiteSpace=wrap;html=1;fillColor=#007CBD;strokeColor=none;fontColor=#FFFFFF;fontStyle=1;fontSize=22;labelBackgroundColor=none;aspect=fixed;" parent="1" vertex="1">
          <mxGeometry x="130" y="468" width="40" height="38" as="geometry" />
        </mxCell>
        <mxCell id="PfW1Trj3aX01LcuOc2Ej-75" value="4" style="rounded=1;whiteSpace=wrap;html=1;fillColor=#007CBD;strokeColor=none;fontColor=#FFFFFF;fontStyle=1;fontSize=22;labelBackgroundColor=none;" parent="1" vertex="1">
          <mxGeometry x="130" y="514" width="40" height="38" as="geometry" />
        </mxCell>
        <mxCell id="PfW1Trj3aX01LcuOc2Ej-76" value="2" style="rounded=1;whiteSpace=wrap;html=1;fillColor=#007CBD;strokeColor=none;fontColor=#FFFFFF;fontStyle=1;fontSize=22;labelBackgroundColor=none;" parent="1" vertex="1">
          <mxGeometry x="130" y="423" width="40" height="38" as="geometry" />
        </mxCell>
        <mxCell id="PfW1Trj3aX01LcuOc2Ej-77" value="1" style="rounded=1;whiteSpace=wrap;html=1;fillColor=#007CBD;strokeColor=none;fontColor=#FFFFFF;fontStyle=1;fontSize=22;labelBackgroundColor=none;aspect=fixed;" parent="1" vertex="1">
          <mxGeometry x="130" y="377" width="40" height="38" as="geometry" />
        </mxCell>
        <mxCell id="PfW1Trj3aX01LcuOc2Ej-96" value="" style="group" parent="1" vertex="1" connectable="0">
          <mxGeometry x="1620.5" y="689.5" width="504" height="56" as="geometry" />
        </mxCell>
        <mxCell id="-QjtrjUzRDEMRZ5MF8oH-38" value="8" style="rounded=1;whiteSpace=wrap;html=1;fillColor=#007CBD;strokeColor=none;fontColor=#FFFFFF;fontStyle=1;fontSize=22;labelBackgroundColor=none;" parent="PfW1Trj3aX01LcuOc2Ej-96" vertex="1">
          <mxGeometry width="42" height="38" as="geometry" />
        </mxCell>
        <mxCell id="SCVMTBWpLvtzJIhz15lM-9" value="Currently, OpenChallenges REST API only has read-only endpoints. In 2024, endpoints will be added to manage OC resources (create, update and delete operations). " style="text;html=1;align=left;verticalAlign=top;spacingTop=-4;fontSize=14;labelBackgroundColor=none;whiteSpace=wrap;fixedWidth=1;" parent="PfW1Trj3aX01LcuOc2Ej-96" vertex="1">
          <mxGeometry x="52" width="452" height="56" as="geometry" />
        </mxCell>
        <mxCell id="PfW1Trj3aX01LcuOc2Ej-97" value="" style="group" parent="1" vertex="1" connectable="0">
          <mxGeometry x="1620.5" y="584.5" width="505.5" height="90" as="geometry" />
        </mxCell>
        <mxCell id="-QjtrjUzRDEMRZ5MF8oH-39" value="7" style="rounded=1;whiteSpace=wrap;html=1;fillColor=#007CBD;strokeColor=none;fontColor=#FFFFFF;fontStyle=1;fontSize=22;labelBackgroundColor=none;" parent="PfW1Trj3aX01LcuOc2Ej-97" vertex="1">
          <mxGeometry width="40.95551257253385" height="38" as="geometry" />
        </mxCell>
        <mxCell id="SCVMTBWpLvtzJIhz15lM-10" value="Three-Node Clusters are a common starting point for production environments requiring high availability. With three nodes, you can configure Elasticsearch to replicate data across nodes, allowing the cluster to remain operational even if one node fails. This setup supports one replica, ensuring data redundancy and increasing read capacity." style="text;html=1;align=left;verticalAlign=top;spacingTop=-4;fontSize=14;labelBackgroundColor=none;whiteSpace=wrap;fixedWidth=1;" parent="PfW1Trj3aX01LcuOc2Ej-97" vertex="1">
          <mxGeometry x="50.64216634429408" width="454.85783365570603" height="90" as="geometry" />
        </mxCell>
        <mxCell id="PfW1Trj3aX01LcuOc2Ej-98" value="" style="group" parent="1" vertex="1" connectable="0">
          <mxGeometry x="1620.5" y="514" width="504" height="56" as="geometry" />
        </mxCell>
        <mxCell id="PfW1Trj3aX01LcuOc2Ej-49" value="6" style="rounded=1;whiteSpace=wrap;html=1;fillColor=#007CBD;strokeColor=none;fontColor=#FFFFFF;fontStyle=1;fontSize=22;labelBackgroundColor=none;" parent="PfW1Trj3aX01LcuOc2Ej-98" vertex="1">
          <mxGeometry width="42" height="38" as="geometry" />
        </mxCell>
        <mxCell id="PfW1Trj3aX01LcuOc2Ej-50" value="The MariaDB instance is deployed as a container that already includes most of the data. At this stage of the project, adopting an AWS managed solution would be preferred to support upcoming CUD operations." style="text;html=1;align=left;verticalAlign=top;spacingTop=-4;fontSize=14;labelBackgroundColor=none;whiteSpace=wrap;fixedWidth=1;" parent="PfW1Trj3aX01LcuOc2Ej-98" vertex="1">
          <mxGeometry x="52" width="452" height="56" as="geometry" />
        </mxCell>
        <mxCell id="PfW1Trj3aX01LcuOc2Ej-99" value="" style="group" parent="1" vertex="1" connectable="0">
          <mxGeometry x="1620.5" y="461" width="504" height="40" as="geometry" />
        </mxCell>
        <mxCell id="-QjtrjUzRDEMRZ5MF8oH-37" value="5" style="rounded=1;whiteSpace=wrap;html=1;fillColor=#007CBD;strokeColor=none;fontColor=#FFFFFF;fontStyle=1;fontSize=22;labelBackgroundColor=none;" parent="PfW1Trj3aX01LcuOc2Ej-99" vertex="1">
          <mxGeometry width="42" height="38" as="geometry" />
        </mxCell>
        <mxCell id="SCVMTBWpLvtzJIhz15lM-7" value="An AWS-managed alternative to HashiCorp Vault is AWS SSM Parameter Store." style="text;html=1;align=left;verticalAlign=top;spacingTop=-4;fontSize=14;labelBackgroundColor=none;whiteSpace=wrap;fixedWidth=1;" parent="PfW1Trj3aX01LcuOc2Ej-99" vertex="1">
          <mxGeometry x="52" width="452" height="40" as="geometry" />
        </mxCell>
        <mxCell id="PfW1Trj3aX01LcuOc2Ej-100" value="" style="group" parent="1" vertex="1" connectable="0">
          <mxGeometry x="1620.5" y="391" width="504" height="56" as="geometry" />
        </mxCell>
        <mxCell id="PfW1Trj3aX01LcuOc2Ej-45" value="4" style="rounded=1;whiteSpace=wrap;html=1;fillColor=#007CBD;strokeColor=none;fontColor=#FFFFFF;fontStyle=1;fontSize=22;labelBackgroundColor=none;" parent="PfW1Trj3aX01LcuOc2Ej-100" vertex="1">
          <mxGeometry width="42" height="38" as="geometry" />
        </mxCell>
        <mxCell id="PfW1Trj3aX01LcuOc2Ej-46" value="The AWS region (us-east-1) and security groups are note represented the sake of clarity. The security group for the resources deployed to &lt;span class=&quot;awsui_root_18wu0_1qbfe_99 awsui_box_18wu0_1qbfe_219 awsui_strong-variant_18wu0_1qbfe_219 awsui_color-default_18wu0_1qbfe_219 awsui_font-size-default_18wu0_1qbfe_235 awsui_font-weight-default_18wu0_1qbfe_275&quot;&gt;org-sagebase-cnb-dev with CDKTF are defined &lt;a href=&quot;https://github.com/Sage-Bionetworks/sage-monorepo/blob/main/apps/openchallenges/infra/src/security-group/security-groups.ts&quot;&gt;here&lt;/a&gt;.&lt;br&gt;&lt;/span&gt;" style="text;html=1;align=left;verticalAlign=top;spacingTop=-4;fontSize=14;labelBackgroundColor=none;whiteSpace=wrap;fixedWidth=1;" parent="PfW1Trj3aX01LcuOc2Ej-100" vertex="1">
          <mxGeometry x="52" width="452" height="56" as="geometry" />
        </mxCell>
        <mxCell id="PfW1Trj3aX01LcuOc2Ej-101" value="" style="group" parent="1" vertex="1" connectable="0">
          <mxGeometry x="1620.5" y="319.5" width="504" height="56" as="geometry" />
        </mxCell>
        <mxCell id="PfW1Trj3aX01LcuOc2Ej-69" value="3" style="rounded=1;whiteSpace=wrap;html=1;fillColor=#007CBD;strokeColor=none;fontColor=#FFFFFF;fontStyle=1;fontSize=22;labelBackgroundColor=none;" parent="PfW1Trj3aX01LcuOc2Ej-101" vertex="1">
          <mxGeometry width="42" height="38" as="geometry" />
        </mxCell>
        <mxCell id="PfW1Trj3aX01LcuOc2Ej-70" value="The EC2 instance and ALB have been deployed with CDK for Terraform (CDKTF). The services that compose OC are currently deployed manually inside the EC2 with Docker Compose." style="text;html=1;align=left;verticalAlign=top;spacingTop=-4;fontSize=14;labelBackgroundColor=none;whiteSpace=wrap;fixedWidth=1;" parent="PfW1Trj3aX01LcuOc2Ej-101" vertex="1">
          <mxGeometry x="52" width="452" height="56" as="geometry" />
        </mxCell>
        <mxCell id="PfW1Trj3aX01LcuOc2Ej-102" value="" style="group" parent="1" vertex="1" connectable="0">
          <mxGeometry x="1620.5" y="230.5" width="502.5" height="71.5" as="geometry" />
        </mxCell>
        <mxCell id="-QjtrjUzRDEMRZ5MF8oH-36" value="2" style="rounded=1;whiteSpace=wrap;html=1;fillColor=#007CBD;strokeColor=none;fontColor=#FFFFFF;fontStyle=1;fontSize=22;labelBackgroundColor=none;" parent="PfW1Trj3aX01LcuOc2Ej-102" vertex="1">
          <mxGeometry width="42" height="38" as="geometry" />
        </mxCell>
        <mxCell id="SCVMTBWpLvtzJIhz15lM-6" value="&lt;font face=&quot;Helvetica&quot;&gt;The name of the components match the name of the folders where they are developed in the GitHub repository &lt;a href=&quot;https://github.com/Sage-Bionetworks/sage-monorepo/tree/main/apps/openchallenges&quot;&gt;Sage-Bionetworks/sage-monorepo/apps/{name}&lt;/a&gt;. In general, the same name is used to create the Docker images &lt;a href=&quot;https://github.com/orgs/Sage-Bionetworks/packages?repo_name=sage-monorepo&quot;&gt;ghcr.io/sage-bionetworks/{name}&lt;/a&gt;.&lt;code&gt;&lt;br&gt;&lt;/code&gt;&lt;/font&gt;" style="text;html=1;align=left;verticalAlign=top;spacingTop=-4;fontSize=14;labelBackgroundColor=none;whiteSpace=wrap;fixedWidth=1;" parent="PfW1Trj3aX01LcuOc2Ej-102" vertex="1">
          <mxGeometry x="51.5" width="451" height="71.5" as="geometry" />
        </mxCell>
        <mxCell id="PfW1Trj3aX01LcuOc2Ej-103" value="" style="group" parent="1" vertex="1" connectable="0">
          <mxGeometry x="1620.5" y="124.5" width="502.5" height="90" as="geometry" />
        </mxCell>
        <mxCell id="-xrmGZC775zc49n530f5-44" value="1" style="rounded=1;whiteSpace=wrap;html=1;fillColor=#007CBD;strokeColor=none;fontColor=#FFFFFF;fontStyle=1;fontSize=22;labelBackgroundColor=none;" parent="PfW1Trj3aX01LcuOc2Ej-103" vertex="1">
          <mxGeometry width="42" height="38" as="geometry" />
        </mxCell>
        <mxCell id="-xrmGZC775zc49n530f5-45" value="All the components are containerized and their images available on GHCR. The OpenChallenges stack is currently deployed on an EC2 instance (t3.xlarge) with Docker Compose. The EC2 instance, ALB and other resources are deployed with the CDK for Terraform (CDKTF). See &lt;a href=&quot;https://github.com/Sage-Bionetworks/sage-monorepo/tree/main/apps/openchallenges/infra&quot;&gt;sage-monorepo/openchallenges/infra&lt;/a&gt;." style="text;html=1;align=left;verticalAlign=top;spacingTop=-4;fontSize=14;labelBackgroundColor=none;whiteSpace=wrap;resizeWidth=1;fixedWidth=1;resizeHeight=1;" parent="PfW1Trj3aX01LcuOc2Ej-103" vertex="1">
          <mxGeometry x="51.5" width="451" height="90" as="geometry" />
        </mxCell>
      </root>
    </mxGraphModel>
  </diagram>
</mxfile>
